<?xml version="1.0" encoding="UTF-8"?>
<svg id="katman_1" data-name="katman 1" xmlns="http://www.w3.org/2000/svg" viewBox="0 0 320 320">
  <defs>
    <style>
      .cls-1, .cls-2 {
        fill: #fff;
      }

      .cls-3 {
        letter-spacing: -.05em;
      }

      .cls-4 {
        fill: #00a651;
      }

      .cls-2 {
        font-family: Calibri, Calibri;
        font-size: 10.34px;
      }

      .cls-5 {
        letter-spacing: 0em;
      }

      .cls-6 {
        letter-spacing: 0em;
      }
    </style>
  </defs>
  <rect class="cls-4" width="320" height="320"/>
  <g id="VeksisLogo">
    <path class="cls-1" d="M120.92,277.67l.86-2.82c-1.26-1.15-2.87-1.92-4.67-2.07-4.74-.4-9.26,3.7-9.26,9.64l4.09-.36c-.1-3.52,2.46-6.2,5.38-6.13,1.42.03,2.69.71,3.6,1.74"/>
    <path class="cls-1" d="M128.06,273.11c.22,1.55-.55,2.8-1.8,2.76-1.33-.04-2.62-1.5-2.82-3.22-.19-1.68.77-2.83,2.06-2.62,1.22.2,2.33,1.56,2.55,3.07"/>
    <path class="cls-1" d="M121.15,281.53c.19,2.09-1.1,4.07-3.01,4.4-2.06.36-3.94-1.34-4.05-3.75-.1-2.33,1.54-4.2,3.51-4.24,1.83-.03,3.36,1.55,3.55,3.58"/>
    <path class="cls-1" d="M129.03,274.73c-.16,1.65-1.17,2.89-2.65,2.9-1.03,0-2.07-.59-2.87-1.56l-.79,2.79c1.21,1.07,2.62,1.65,3.99,1.55,2.37-.17,3.88-2.3,4.04-4.94l-1.72-.74Z"/>
    <text class="cls-2" transform="translate(162.54 280.6)"><tspan x="0" y="0">Business</tspan></text>
    <text class="cls-2" transform="translate(133.78 280.6)"><tspan class="cls-3" x="0" y="0">V</tspan><tspan class="cls-5" x="5.36" y="0">e</tspan><tspan class="cls-6" x="10.5" y="0">k</tspan><tspan x="15.11" y="0">sis</tspan></text>
    <path class="cls-1" d="M137.67,286.29v1.2s0,.03-.01.04c0,.01-.02.02-.04.02-.02,0-.04.01-.07.02-.03,0-.06,0-.1,0s-.08,0-.1,0c-.03,0-.05,0-.07-.02-.02,0-.03-.01-.04-.02,0-.01-.01-.02-.01-.04v-1.2l-.92-1.84s-.03-.07-.03-.09c0-.02,0-.04.01-.05.01-.01.04-.02.07-.02.03,0,.08,0,.13,0,.05,0,.09,0,.12,0,.03,0,.06,0,.07.01.02,0,.03.01.04.03,0,.01.02.02.03.04l.45.94c.04.09.08.18.13.28.04.1.08.2.13.29h0c.04-.1.08-.19.12-.29.04-.09.08-.19.12-.28l.45-.94s.01-.03.02-.04c0-.01.02-.02.04-.03.02,0,.04-.01.07-.01.03,0,.06,0,.11,0,.06,0,.11,0,.14,0,.03,0,.06.01.07.02.01.01.02.03.01.05,0,.02-.02.05-.03.09l-.92,1.84ZM140.47,287.5s0,.04-.02.05c-.01.01-.03.02-.06.02-.02,0-.06,0-.1,0s-.08,0-.1,0c-.03,0-.04-.01-.06-.02-.01-.01-.02-.03-.02-.05v-.23c-.1.11-.21.19-.33.25-.12.06-.25.09-.39.09-.12,0-.23-.02-.32-.05-.1-.03-.18-.08-.25-.13-.07-.06-.12-.13-.16-.22-.04-.09-.06-.18-.06-.29,0-.13.03-.24.08-.33.05-.09.13-.17.22-.23.1-.06.22-.11.36-.14.14-.03.3-.05.48-.05h.31v-.18c0-.09,0-.16-.03-.23-.02-.07-.05-.12-.09-.17-.04-.04-.09-.08-.16-.1-.07-.02-.15-.03-.24-.03-.1,0-.19.01-.28.04-.08.02-.15.05-.21.08-.06.03-.11.06-.15.08-.04.02-.07.04-.09.04-.01,0-.03,0-.04-.01-.01,0-.02-.02-.03-.03,0-.01-.01-.03-.02-.05,0-.02,0-.04,0-.07,0-.04,0-.08,0-.1,0-.02.02-.05.04-.07.02-.02.06-.05.12-.08.06-.03.12-.06.19-.08.07-.02.15-.04.24-.06.09-.02.17-.02.26-.02.16,0,.3.02.42.06.11.04.21.09.28.16.07.07.12.16.15.27.03.11.05.23.05.37v1.53ZM140.06,286.47h-.36c-.11,0-.21,0-.3.03-.08.02-.15.05-.21.09-.06.04-.1.08-.12.14-.03.05-.04.11-.04.18,0,.12.04.21.11.28.07.07.18.1.31.1.11,0,.21-.03.3-.08.09-.06.19-.14.29-.25v-.48ZM142.68,287.39s0,.06,0,.08c0,.02-.01.04-.02.06,0,.01-.02.02-.03.03-.01,0-.02,0-.04,0h-1.4s-.06-.01-.09-.04c-.02-.02-.03-.06-.03-.12v-.09s0-.04,0-.06c0-.02,0-.04.02-.06,0-.02.02-.04.03-.06.01-.02.03-.04.04-.07l1-1.56h-.97s-.05-.01-.06-.04c-.02-.03-.02-.07-.02-.13,0-.03,0-.06,0-.08,0-.02,0-.04.02-.06,0-.01.02-.02.03-.03.01,0,.02,0,.04,0h1.3s.03,0,.05,0c.01,0,.03.01.04.03.01.01.02.03.02.05,0,.02,0,.04,0,.07v.08s0,.05,0,.07c0,.02,0,.04-.02.06,0,.02-.02.04-.03.06-.01.02-.03.05-.04.07l-1,1.56h1.06s.03,0,.04,0c.01,0,.02.02.03.03,0,.01.01.03.02.05,0,.02,0,.05,0,.08ZM143.69,287.5s0,.02-.01.03c0,0-.02.02-.03.02-.02,0-.04.01-.06.02-.03,0-.06,0-.1,0s-.07,0-.1,0c-.03,0-.05,0-.06-.02-.02,0-.03-.01-.03-.02,0,0,0-.02,0-.03v-2.27s0-.02,0-.03c0,0,.02-.02.03-.03.02,0,.04-.01.06-.02.03,0,.06,0,.1,0s.08,0,.1,0c.03,0,.05,0,.06.02s.03.02.03.03c0,0,.01.02.01.03v2.27ZM144.87,287.5s0,.02-.01.03c0,0-.02.02-.03.02-.02,0-.04.01-.06.02-.03,0-.06,0-.1,0s-.07,0-.1,0c-.03,0-.05,0-.06-.02-.02,0-.03-.01-.03-.02,0,0,0-.02,0-.03v-3.37s0-.03,0-.04c0-.01.02-.02.03-.03.02,0,.04-.01.06-.02.03,0,.06,0,.1,0s.08,0,.1,0c.03,0,.05,0,.06.02.02,0,.03.02.03.03,0,.01.01.02.01.04v3.37ZM146.06,287.5s0,.02-.01.03c0,0-.02.02-.03.02-.02,0-.04.01-.06.02-.03,0-.06,0-.1,0s-.07,0-.1,0c-.03,0-.05,0-.06-.02-.02,0-.03-.01-.03-.02,0,0,0-.02,0-.03v-2.27s0-.02,0-.03c0,0,.02-.02.03-.03.02,0,.04-.01.06-.02.03,0,.06,0,.1,0s.08,0,.1,0c.03,0,.05,0,.06.02s.03.02.03.03c0,0,.01.02.01.03v2.27ZM150.19,287.5s0,.02-.01.03c0,0-.02.02-.03.02-.02,0-.04.01-.06.02-.03,0-.06,0-.1,0s-.08,0-.1,0c-.03,0-.05,0-.06-.02-.02,0-.03-.01-.03-.02,0,0-.01-.02-.01-.03v-1.38c0-.1,0-.18-.03-.26-.02-.08-.04-.15-.08-.2-.04-.06-.08-.1-.14-.13-.06-.03-.12-.05-.2-.05-.1,0-.19.04-.29.11-.1.07-.2.18-.32.33v1.59s0,.02-.01.03c0,0-.02.02-.03.02-.02,0-.04.01-.06.02-.03,0-.06,0-.1,0s-.07,0-.1,0c-.03,0-.05,0-.07-.02-.02,0-.03-.01-.03-.02,0,0,0-.02,0-.03v-1.38c0-.1,0-.18-.03-.26-.02-.08-.05-.15-.08-.2-.04-.06-.08-.1-.14-.13-.06-.03-.12-.05-.2-.05-.1,0-.19.04-.29.11-.1.07-.2.18-.32.33v1.59s0,.02-.01.03c0,0-.02.02-.03.02-.02,0-.04.01-.06.02-.03,0-.06,0-.1,0s-.07,0-.1,0c-.03,0-.05,0-.06-.02-.02,0-.03-.01-.03-.02,0,0,0-.02,0-.03v-2.27s0-.02,0-.03c0,0,.02-.02.03-.03s.03-.01.06-.02c.02,0,.05,0,.09,0s.07,0,.09,0c.02,0,.04,0,.06.02.01,0,.02.02.03.03,0,0,0,.02,0,.03v.3c.13-.14.25-.25.37-.31.12-.07.24-.1.36-.1.09,0,.18.01.25.03.07.02.14.05.2.09.06.04.11.09.15.14.04.05.07.12.1.18.08-.08.15-.15.22-.21.07-.06.13-.1.2-.14.06-.04.12-.06.18-.08.06-.02.12-.02.18-.02.15,0,.27.03.37.08.1.05.18.12.24.21.06.09.11.19.13.3.03.12.04.24.04.36v1.43ZM153.59,287.75c.04.08.06.14.08.19.02.05.02.1.02.14,0,.06-.01.12-.04.17-.02.05-.06.09-.1.13-.04.03-.09.06-.16.08-.06.02-.13.03-.2.03-.06,0-.11,0-.17-.01-.05,0-.1-.02-.14-.02-.04,0-.06-.02-.08-.02-.01,0-.02-.02-.03-.03,0-.01-.01-.02-.01-.04,0-.02,0-.04,0-.06,0-.05,0-.09.02-.1.01-.02.03-.03.05-.03h.31c.06,0,.1-.01.13-.03.03-.02.05-.06.05-.1,0-.02,0-.05-.02-.08-.01-.03-.02-.07-.04-.1l-.12-.26c-.15-.02-.29-.06-.43-.12-.14-.07-.27-.16-.38-.29-.11-.13-.2-.3-.27-.5-.06-.2-.1-.44-.1-.7s.03-.51.1-.72c.07-.21.17-.39.29-.54.13-.15.28-.26.45-.34.18-.08.37-.12.58-.12.09,0,.19,0,.27.03.09.02.17.04.25.07.08.03.14.06.2.09.06.04.1.06.12.09.02.02.04.04.04.05,0,.01.01.03.02.04,0,.02,0,.03.01.06,0,.02,0,.05,0,.08,0,.03,0,.06,0,.09,0,.02,0,.04-.02.06,0,.02-.01.03-.02.04,0,0-.02.01-.03.01-.02,0-.06-.02-.1-.05-.04-.03-.1-.07-.16-.11-.07-.04-.15-.08-.24-.11-.09-.03-.21-.05-.34-.05-.14,0-.28.03-.39.09-.12.06-.22.14-.3.26-.08.11-.15.25-.2.41-.05.16-.07.35-.07.56s.02.39.07.55c.04.16.11.29.19.4.08.11.19.19.31.24.12.05.26.08.41.08.12,0,.23-.02.33-.05.1-.03.18-.07.25-.11.07-.04.13-.08.17-.11.04-.03.08-.05.1-.05.01,0,.02,0,.03,0,0,0,.02.01.02.03,0,.01,0,.03.01.06,0,.03,0,.06,0,.1,0,.03,0,.05,0,.07,0,.02,0,.04,0,.05,0,.02,0,.03-.02.04,0,.01-.02.03-.04.04-.02.02-.05.04-.11.08-.05.03-.12.07-.2.1-.08.03-.15.06-.23.08-.08.02-.15.03-.22.04l.07.15ZM156.98,286.34c0,.18-.02.36-.07.51-.05.16-.12.29-.22.4-.1.11-.22.2-.36.26-.15.06-.31.09-.51.09s-.35-.03-.49-.08c-.14-.06-.25-.14-.35-.24-.09-.11-.16-.23-.21-.39-.05-.15-.07-.32-.07-.51s.02-.36.07-.51c.05-.16.12-.29.22-.4.1-.11.22-.2.36-.26.14-.06.31-.09.51-.09s.35.03.49.08c.14.06.25.14.35.24.09.11.16.23.21.39.05.15.07.32.07.51ZM156.54,286.37c0-.12-.01-.24-.03-.35-.02-.11-.06-.21-.11-.29-.05-.08-.12-.15-.21-.2-.09-.05-.2-.07-.34-.07-.12,0-.23.02-.32.07-.09.04-.16.11-.22.19-.06.08-.1.17-.13.28-.03.11-.04.23-.04.36s.01.24.03.35c.02.11.06.2.11.29.05.08.13.15.21.19.09.05.2.07.34.07.12,0,.23-.02.32-.07.09-.04.16-.11.22-.18.06-.08.1-.17.13-.28.03-.11.04-.23.04-.36ZM155.63,284.49c0,.09-.02.16-.05.19-.03.03-.1.05-.19.05s-.15-.02-.18-.05c-.03-.03-.05-.09-.05-.18,0-.09.02-.16.05-.19.03-.03.09-.05.19-.05s.15.02.19.05c.03.03.05.09.05.18ZM156.52,284.49c0,.09-.02.16-.05.19-.03.03-.1.05-.19.05s-.15-.02-.18-.05c-.03-.03-.05-.09-.05-.18,0-.09.02-.16.05-.19.03-.03.09-.05.19-.05s.15.02.19.05c.03.03.05.09.05.18ZM158.97,287.39s0,.06,0,.08c0,.02-.01.04-.02.06,0,.01-.02.02-.03.03-.01,0-.02,0-.04,0h-1.4s-.06-.01-.09-.04c-.02-.02-.03-.06-.03-.12v-.09s0-.04,0-.06c0-.02,0-.04.02-.06,0-.02.02-.04.03-.06.01-.02.03-.04.04-.07l1-1.56h-.97s-.05-.01-.06-.04c-.02-.03-.02-.07-.02-.13,0-.03,0-.06,0-.08,0-.02,0-.04.02-.06,0-.01.02-.02.03-.03.01,0,.02,0,.04,0h1.3s.03,0,.05,0c.01,0,.03.01.04.03.01.01.02.03.02.05,0,.02,0,.04,0,.07v.08s0,.05,0,.07c0,.02,0,.04-.02.06,0,.02-.02.04-.03.06-.01.02-.03.05-.04.07l-1,1.56h1.06s.03,0,.04,0c.01,0,.02.02.03.03,0,.01.01.03.02.05,0,.02,0,.05,0,.08ZM161.5,287.5s0,.02,0,.03c0,0-.02.02-.03.02-.02,0-.03.01-.06.02-.02,0-.05,0-.09,0-.04,0-.07,0-.09,0-.02,0-.04,0-.06-.02-.01,0-.02-.01-.03-.02,0,0,0-.02,0-.03v-.3c-.13.14-.26.25-.38.31-.13.07-.25.1-.38.1-.15,0-.28-.03-.38-.08s-.19-.12-.25-.21c-.06-.09-.11-.19-.14-.3-.03-.12-.04-.26-.04-.42v-1.38s0-.02,0-.03c0,0,.02-.02.03-.03.02,0,.04-.01.07-.02.03,0,.06,0,.1,0s.07,0,.1,0c.03,0,.05,0,.06.02.02,0,.03.02.03.03,0,0,.01.02.01.03v1.32c0,.13,0,.24.03.32.02.08.05.15.09.2.04.06.09.1.15.13.06.03.13.05.21.05.1,0,.21-.04.31-.11.1-.07.21-.18.33-.33v-1.59s0-.02,0-.03c0,0,.02-.02.03-.03.02,0,.04-.01.06-.02.03,0,.06,0,.1,0s.07,0,.1,0c.03,0,.05,0,.06.02.02,0,.03.02.03.03,0,0,.01.02.01.03v2.27ZM160.32,284.49c0,.09-.02.16-.05.19-.03.03-.1.05-.19.05s-.15-.02-.18-.05c-.03-.03-.05-.09-.05-.18,0-.09.02-.16.05-.19.03-.03.09-.05.19-.05s.15.02.19.05c.03.03.05.09.05.18ZM161.21,284.49c0,.09-.02.16-.05.19-.03.03-.1.05-.19.05s-.15-.02-.18-.05c-.03-.03-.05-.09-.05-.18,0-.09.02-.16.05-.19.03-.03.09-.05.19-.05s.15.02.19.05c.03.03.05.09.05.18ZM165.64,287.5s0,.02-.01.03c0,0-.02.02-.03.02-.02,0-.04.01-.06.02-.03,0-.06,0-.1,0s-.08,0-.1,0c-.03,0-.05,0-.06-.02-.02,0-.03-.01-.03-.02,0,0-.01-.02-.01-.03v-1.38c0-.1,0-.18-.03-.26-.02-.08-.04-.15-.08-.2-.04-.06-.08-.1-.14-.13-.06-.03-.12-.05-.2-.05-.1,0-.19.04-.29.11-.1.07-.2.18-.32.33v1.59s0,.02-.01.03c0,0-.02.02-.03.02-.02,0-.04.01-.06.02-.03,0-.06,0-.1,0s-.07,0-.1,0c-.03,0-.05,0-.07-.02-.02,0-.03-.01-.03-.02,0,0,0-.02,0-.03v-1.38c0-.1,0-.18-.03-.26-.02-.08-.05-.15-.08-.2-.04-.06-.08-.1-.14-.13-.06-.03-.12-.05-.2-.05-.1,0-.19.04-.29.11-.1.07-.2.18-.32.33v1.59s0,.02-.01.03c0,0-.02.02-.03.02-.02,0-.04.01-.06.02-.03,0-.06,0-.1,0s-.07,0-.1,0c-.03,0-.05,0-.06-.02-.02,0-.03-.01-.03-.02,0,0,0-.02,0-.03v-2.27s0-.02,0-.03c0,0,.02-.02.03-.03.02,0,.03-.01.06-.02.02,0,.05,0,.09,0s.07,0,.09,0c.02,0,.04,0,.06.02.01,0,.02.02.03.03,0,0,0,.02,0,.03v.3c.13-.14.25-.25.37-.31.12-.07.24-.1.36-.1.09,0,.18.01.25.03.07.02.14.05.2.09.06.04.11.09.15.14.04.05.07.12.1.18.08-.08.15-.15.22-.21.07-.06.13-.1.2-.14.06-.04.12-.06.18-.08.06-.02.12-.02.18-.02.15,0,.27.03.37.08.1.05.18.12.24.21.06.09.11.19.13.3.03.12.04.24.04.36v1.43ZM166.81,287.5s0,.02-.01.03c0,0-.02.02-.03.02-.02,0-.04.01-.06.02-.03,0-.06,0-.1,0s-.07,0-.1,0c-.03,0-.05,0-.06-.02-.02,0-.03-.01-.03-.02,0,0,0-.02,0-.03v-3.37s0-.03,0-.04c0-.01.02-.02.03-.03.02,0,.04-.01.06-.02.03,0,.06,0,.1,0s.08,0,.1,0c.03,0,.05,0,.06.02.02,0,.03.02.03.03,0,.01.01.02.01.04v3.37ZM169.51,286.27c0,.07-.02.11-.05.14-.03.03-.07.04-.11.04h-1.49c0,.13.01.24.04.34.03.1.07.19.13.26.06.07.14.13.23.17.09.04.21.06.35.06.11,0,.2,0,.29-.03.08-.02.16-.04.22-.06.06-.02.11-.04.15-.06.04-.02.07-.03.09-.03.01,0,.02,0,.03,0,0,0,.02.01.02.03,0,.01,0,.03.01.05,0,.02,0,.05,0,.08,0,.02,0,.04,0,.06,0,.02,0,.03,0,.04,0,.01,0,.02-.01.03,0,.01-.01.02-.02.03,0,0-.04.02-.08.05-.05.02-.1.04-.18.06-.07.02-.16.04-.25.05-.09.02-.2.02-.3.02-.19,0-.35-.03-.49-.08-.14-.05-.26-.13-.35-.23-.1-.1-.17-.23-.22-.39-.05-.15-.07-.33-.07-.54s.03-.37.08-.53c.05-.16.12-.29.22-.4.09-.11.21-.19.34-.25.13-.06.28-.09.45-.09.18,0,.33.03.46.09.13.06.23.13.31.23.08.1.14.21.18.34.04.13.06.27.06.42v.08ZM169.1,286.14c0-.22-.04-.39-.15-.51-.1-.12-.25-.19-.46-.19-.1,0-.19.02-.27.06-.08.04-.14.09-.2.15-.05.06-.09.14-.12.22-.03.08-.04.17-.05.27h1.24ZM171.47,285.38s0,.07,0,.09c0,.03,0,.04-.01.06,0,.01-.01.03-.02.03,0,0-.02.01-.03.01s-.03,0-.05-.01c-.02,0-.04-.02-.07-.02-.02,0-.05-.01-.08-.02-.03,0-.06-.01-.1-.01-.04,0-.08,0-.12.03-.04.02-.08.04-.13.08-.04.04-.09.09-.14.15-.05.06-.1.14-.16.23v1.49s0,.02-.01.03c0,0-.02.02-.03.02-.02,0-.04.01-.06.02-.03,0-.06,0-.1,0s-.07,0-.1,0c-.03,0-.05,0-.06-.02-.02,0-.03-.01-.03-.02,0,0,0-.02,0-.03v-2.27s0-.02,0-.03c0,0,.02-.02.03-.03.02,0,.03-.01.06-.02.02,0,.05,0,.09,0s.07,0,.09,0c.02,0,.04,0,.06.02.01,0,.02.02.03.03,0,0,0,.02,0,.03v.33c.06-.09.12-.16.18-.22.05-.06.11-.1.16-.13.05-.03.1-.06.14-.07.05-.01.1-.02.14-.02.02,0,.05,0,.07,0,.03,0,.06,0,.09.01.03,0,.06.01.08.02.02,0,.04.02.05.03.01,0,.02.02.02.02,0,0,0,.02,0,.03,0,.01,0,.03,0,.05,0,.02,0,.05,0,.09ZM172.41,284.46c0,.1-.02.16-.06.2-.04.04-.11.05-.2.05s-.16-.02-.2-.05c-.04-.03-.05-.1-.05-.2s.02-.16.06-.2c.04-.04.11-.05.2-.05s.16.02.2.05c.04.03.05.1.05.2ZM172.36,287.5s0,.02-.01.03c0,0-.02.02-.03.02-.02,0-.04.01-.06.02-.03,0-.06,0-.1,0s-.07,0-.1,0c-.03,0-.05,0-.06-.02-.02,0-.03-.01-.03-.02,0,0,0-.02,0-.03v-2.27s0-.02,0-.03c0-.01.02-.02.03-.03.02,0,.04-.01.06-.02.03,0,.06,0,.1,0s.08,0,.1,0c.03,0,.05,0,.06.02.02,0,.03.02.03.03,0,.01.01.02.01.03v2.27ZM174.18,286.7c0-.09.01-.18.04-.26.03-.08.06-.16.12-.24.05-.08.12-.15.21-.23.09-.07.19-.15.31-.22-.07-.09-.12-.17-.17-.25-.05-.07-.09-.14-.12-.21-.03-.06-.05-.12-.07-.18-.01-.06-.02-.12-.02-.18,0-.1.02-.2.05-.3.04-.09.09-.18.17-.25s.18-.13.3-.17c.12-.04.27-.06.45-.06.15,0,.28.02.38.05.11.03.2.08.27.14.07.06.13.13.16.21.04.08.05.18.05.28s-.02.19-.05.27c-.03.08-.08.16-.15.24-.07.08-.16.15-.27.23-.11.08-.24.16-.4.24.06.07.12.14.19.22.07.07.14.15.21.23.07.08.15.15.22.22.08.07.15.14.23.21.03-.05.06-.1.09-.16.03-.06.05-.12.07-.18.02-.06.04-.13.05-.2.01-.07.02-.14.02-.2v-.09s0-.03,0-.04c0-.01.02-.02.03-.03.01,0,.03-.01.06-.02.03,0,.06,0,.1,0,.04,0,.07,0,.09,0,.03,0,.05,0,.06.01.02,0,.03.02.04.03,0,.01.01.03.01.05v.06c0,.09,0,.19-.02.28-.02.09-.04.18-.07.27-.03.09-.06.17-.1.25-.04.08-.09.15-.14.22.08.06.14.11.2.15.06.04.1.07.14.1.04.03.07.04.1.05.03.01.05.02.06.02s.03,0,.05,0c.02,0,.03,0,.04,0,0,0,.02.02.02.04,0,.02,0,.05,0,.09s0,.08,0,.1c0,.03,0,.04,0,.06,0,.01-.01.02-.02.03-.01,0-.03.02-.06.02-.03,0-.06.01-.11.01-.03,0-.07,0-.11-.02-.04-.01-.09-.03-.14-.06-.05-.03-.12-.07-.19-.12-.07-.05-.16-.11-.25-.19-.07.06-.14.11-.22.16-.08.05-.16.09-.25.12-.09.03-.18.06-.28.08-.1.02-.2.03-.31.03-.11,0-.21,0-.3-.03-.09-.02-.18-.04-.26-.08-.08-.03-.15-.08-.22-.13-.06-.05-.12-.11-.16-.18-.04-.07-.08-.14-.1-.22-.02-.08-.04-.17-.04-.27ZM174.64,286.66c0,.09.01.17.04.24.03.07.07.13.13.19.06.05.13.09.21.12.09.03.18.04.3.04.07,0,.14,0,.2-.02.07-.01.13-.03.19-.06.06-.02.12-.05.17-.09.05-.03.1-.07.15-.11-.09-.08-.17-.15-.26-.24-.09-.08-.17-.16-.25-.25-.08-.08-.16-.16-.23-.25-.07-.08-.14-.16-.21-.24-.08.05-.15.11-.21.16-.06.05-.1.11-.14.16-.03.05-.06.11-.07.16-.02.05-.02.11-.02.17ZM174.93,284.91s0,.09.02.14c.01.05.03.1.06.15.03.05.06.11.1.17.04.06.08.12.13.2.12-.07.23-.13.31-.19.08-.06.15-.11.2-.17.05-.05.09-.11.11-.16.02-.05.03-.11.03-.17,0-.05,0-.1-.03-.14-.02-.04-.05-.08-.08-.12-.04-.03-.09-.06-.15-.08-.06-.02-.13-.03-.21-.03-.09,0-.16.01-.23.03-.06.02-.11.05-.15.09-.04.04-.07.08-.09.13-.02.05-.03.1-.03.16ZM181.16,287.49s0,.03,0,.04c0,.01-.02.02-.03.03-.02,0-.04.01-.07.02-.03,0-.07,0-.11,0-.06,0-.11,0-.14,0-.04,0-.06-.01-.08-.03-.02-.01-.03-.03-.05-.05l-1.2-1.63v1.63s0,.02-.01.03c0,.01-.02.02-.04.03-.02,0-.04.01-.07.02-.03,0-.06,0-.1,0s-.07,0-.1,0c-.03,0-.05,0-.07-.02-.02,0-.03-.01-.04-.03,0-.01-.01-.02-.01-.03v-3.13s0-.03.01-.04c0-.01.02-.02.04-.02.02,0,.04-.01.07-.02.03,0,.06,0,.1,0s.08,0,.1,0c.03,0,.05,0,.07.02.02,0,.03.01.04.02,0,.01.01.02.01.04v1.45l1.15-1.45s.02-.03.04-.04c.01-.01.03-.02.05-.02.02,0,.04-.01.07-.01.03,0,.06,0,.11,0s.08,0,.11,0c.03,0,.05,0,.06.02.02,0,.03.02.03.03,0,.01,0,.02,0,.03,0,.02,0,.04-.02.07-.01.02-.03.05-.06.09l-1.08,1.29,1.16,1.55s.05.07.05.09c0,.02,0,.03,0,.04ZM183.53,287.5s0,.02,0,.03c0,0-.02.02-.03.02-.02,0-.03.01-.06.02-.02,0-.05,0-.09,0-.04,0-.07,0-.09,0-.02,0-.04,0-.06-.02-.01,0-.02-.01-.03-.02,0,0,0-.02,0-.03v-.3c-.13.14-.26.25-.38.31-.13.07-.25.1-.38.1-.15,0-.28-.03-.38-.08s-.19-.12-.25-.21c-.06-.09-.11-.19-.14-.3-.03-.12-.04-.26-.04-.42v-1.38s0-.02,0-.03c0,0,.02-.02.03-.03.02,0,.04-.01.07-.02.03,0,.06,0,.1,0s.07,0,.1,0c.03,0,.05,0,.06.02.02,0,.03.02.03.03,0,0,.01.02.01.03v1.32c0,.13,0,.24.03.32.02.08.05.15.09.2.04.06.09.1.15.13.06.03.13.05.21.05.1,0,.21-.04.31-.11.1-.07.21-.18.33-.33v-1.59s0-.02,0-.03c0,0,.02-.02.03-.03.02,0,.04-.01.06-.02.03,0,.06,0,.1,0s.07,0,.1,0c.03,0,.05,0,.06.02.02,0,.03.02.03.03,0,0,.01.02.01.03v2.27ZM185.62,285.38s0,.07,0,.09c0,.03,0,.04-.01.06,0,.01-.01.03-.02.03,0,0-.02.01-.03.01s-.03,0-.05-.01c-.02,0-.04-.02-.07-.02-.02,0-.05-.01-.08-.02-.03,0-.06-.01-.1-.01-.04,0-.08,0-.12.03-.04.02-.08.04-.13.08-.04.04-.09.09-.14.15-.05.06-.1.14-.16.23v1.49s0,.02-.01.03c0,0-.02.02-.03.02-.02,0-.04.01-.06.02-.03,0-.06,0-.1,0s-.07,0-.1,0c-.03,0-.05,0-.06-.02-.02,0-.03-.01-.03-.02,0,0,0-.02,0-.03v-2.27s0-.02,0-.03c0,0,.02-.02.03-.03.02,0,.03-.01.06-.02.02,0,.05,0,.09,0s.07,0,.09,0c.02,0,.04,0,.06.02.01,0,.02.02.03.03,0,0,0,.02,0,.03v.33c.06-.09.12-.16.18-.22.05-.06.11-.1.16-.13.05-.03.1-.06.14-.07.05-.01.1-.02.14-.02.02,0,.05,0,.07,0,.03,0,.06,0,.09.01.03,0,.06.01.08.02.02,0,.04.02.05.03.01,0,.02.02.02.02,0,0,0,.02,0,.03,0,.01,0,.03,0,.05,0,.02,0,.05,0,.09ZM188.04,287.5s0,.02,0,.03c0,0-.02.02-.03.02-.02,0-.03.01-.06.02-.02,0-.05,0-.09,0-.04,0-.07,0-.09,0-.02,0-.04,0-.06-.02-.01,0-.02-.01-.03-.02,0,0,0-.02,0-.03v-.3c-.13.14-.26.25-.38.31-.13.07-.25.1-.38.1-.15,0-.28-.03-.38-.08s-.19-.12-.25-.21c-.06-.09-.11-.19-.14-.3-.03-.12-.04-.26-.04-.42v-1.38s0-.02,0-.03c0,0,.02-.02.03-.03.02,0,.04-.01.07-.02.03,0,.06,0,.1,0s.07,0,.1,0c.03,0,.05,0,.06.02.02,0,.03.02.03.03,0,0,.01.02.01.03v1.32c0,.13,0,.24.03.32.02.08.05.15.09.2.04.06.09.1.15.13.06.03.13.05.21.05.1,0,.21-.04.31-.11.1-.07.21-.18.33-.33v-1.59s0-.02,0-.03c0,0,.02-.02.03-.03.02,0,.04-.01.06-.02.03,0,.06,0,.1,0s.07,0,.1,0c.03,0,.05,0,.06.02.02,0,.03.02.03.03,0,0,.01.02.01.03v2.27ZM192.18,287.5s0,.02-.01.03c0,0-.02.02-.03.02-.02,0-.04.01-.06.02-.03,0-.06,0-.1,0s-.08,0-.1,0c-.03,0-.05,0-.06-.02-.02,0-.03-.01-.03-.02,0,0-.01-.02-.01-.03v-1.38c0-.1,0-.18-.03-.26-.02-.08-.04-.15-.08-.2-.04-.06-.08-.1-.14-.13-.06-.03-.12-.05-.2-.05-.1,0-.19.04-.29.11-.1.07-.2.18-.32.33v1.59s0,.02-.01.03c0,0-.02.02-.03.02-.02,0-.04.01-.06.02-.03,0-.06,0-.1,0s-.07,0-.1,0c-.03,0-.05,0-.07-.02-.02,0-.03-.01-.03-.02,0,0,0-.02,0-.03v-1.38c0-.1,0-.18-.03-.26-.02-.08-.05-.15-.08-.2-.04-.06-.08-.1-.14-.13-.06-.03-.12-.05-.2-.05-.1,0-.19.04-.29.11-.1.07-.2.18-.32.33v1.59s0,.02-.01.03c0,0-.02.02-.03.02-.02,0-.04.01-.06.02-.03,0-.06,0-.1,0s-.07,0-.1,0c-.03,0-.05,0-.06-.02-.02,0-.03-.01-.03-.02,0,0,0-.02,0-.03v-2.27s0-.02,0-.03c0,0,.02-.02.03-.03.02,0,.03-.01.06-.02.02,0,.05,0,.09,0s.07,0,.09,0c.02,0,.04,0,.06.02.01,0,.02.02.03.03,0,0,0,.02,0,.03v.3c.13-.14.25-.25.37-.31.12-.07.24-.1.36-.1.09,0,.18.01.25.03.07.02.14.05.2.09.06.04.11.09.15.14.04.05.07.12.1.18.08-.08.15-.15.22-.21.07-.06.13-.1.2-.14.06-.04.12-.06.18-.08.06-.02.12-.02.18-.02.15,0,.27.03.37.08.1.05.18.12.24.21.06.09.11.19.13.3.03.12.04.24.04.36v1.43ZM194.36,286.88c0,.12-.02.22-.06.31s-.1.17-.18.23c-.08.06-.17.11-.28.14-.11.03-.23.05-.36.05-.08,0-.16,0-.23-.02-.07-.01-.14-.03-.2-.05-.06-.02-.11-.04-.15-.06-.04-.02-.07-.04-.09-.06-.02-.02-.03-.04-.04-.07,0-.03-.01-.07-.01-.12,0-.03,0-.06,0-.08,0-.02,0-.04.01-.05,0-.01.01-.02.02-.03,0,0,.02,0,.03,0,.02,0,.05.01.08.03.04.02.08.05.13.07.05.03.12.05.19.07.07.02.16.03.25.03.07,0,.13,0,.19-.02.06-.02.11-.04.15-.07.04-.03.07-.07.1-.11.02-.05.03-.1.03-.16s-.02-.12-.05-.16c-.03-.04-.08-.08-.13-.12-.05-.03-.11-.06-.18-.09-.07-.03-.14-.05-.21-.08-.07-.03-.14-.06-.21-.1-.07-.04-.13-.08-.18-.13-.05-.05-.1-.11-.13-.19-.03-.07-.05-.16-.05-.26,0-.09.02-.17.05-.26.03-.08.09-.15.16-.21.07-.06.16-.11.26-.15.1-.04.22-.06.36-.06.06,0,.12,0,.18.02s.12.02.16.04c.05.02.09.03.12.05.03.02.06.03.08.05.02.01.03.03.04.04,0,.01.01.02.01.03s0,.03,0,.05c0,.02,0,.04,0,.07,0,.03,0,.05,0,.07,0,.02,0,.04-.01.05,0,.01-.01.02-.02.03,0,0-.02,0-.03,0-.02,0-.04,0-.07-.03-.03-.02-.07-.04-.11-.06-.05-.02-.1-.04-.16-.06-.06-.02-.13-.03-.21-.03-.07,0-.13,0-.19.02-.05.02-.1.04-.13.07-.03.03-.06.06-.08.1s-.03.08-.03.13c0,.07.02.12.05.17.03.04.08.08.13.12.05.03.12.06.18.09.07.03.14.05.21.08.07.03.14.06.21.1.07.04.13.08.19.13.05.05.1.11.13.18s.05.15.05.25ZM196.66,287.5s0,.04-.02.05c-.01.01-.03.02-.06.02-.02,0-.06,0-.1,0s-.08,0-.1,0c-.03,0-.04-.01-.06-.02-.01-.01-.02-.03-.02-.05v-.23c-.1.11-.21.19-.33.25-.12.06-.25.09-.39.09-.12,0-.23-.02-.32-.05-.1-.03-.18-.08-.25-.13-.07-.06-.12-.13-.16-.22-.04-.09-.06-.18-.06-.29,0-.13.03-.24.08-.33.05-.09.13-.17.22-.23.1-.06.22-.11.36-.14.14-.03.3-.05.48-.05h.31v-.18c0-.09,0-.16-.03-.23-.02-.07-.05-.12-.09-.17-.04-.04-.09-.08-.16-.1-.07-.02-.15-.03-.24-.03-.1,0-.19.01-.28.04-.08.02-.15.05-.21.08-.06.03-.11.06-.15.08-.04.02-.07.04-.09.04-.01,0-.03,0-.04-.01-.01,0-.02-.02-.03-.03,0-.01-.01-.03-.02-.05,0-.02,0-.04,0-.07,0-.04,0-.08,0-.1,0-.02.02-.05.04-.07.02-.02.06-.05.12-.08.06-.03.12-.06.19-.08.07-.02.15-.04.24-.06.09-.02.17-.02.26-.02.16,0,.3.02.42.06.11.04.21.09.28.16.07.07.12.16.15.27.03.11.05.23.05.37v1.53ZM196.25,286.47h-.36c-.11,0-.21,0-.3.03-.08.02-.15.05-.21.09-.06.04-.1.08-.12.14-.03.05-.04.11-.04.18,0,.12.04.21.11.28.07.07.18.1.31.1.11,0,.21-.03.3-.08.09-.06.19-.14.29-.25v-.48ZM197.84,287.5s0,.02-.01.03c0,0-.02.02-.03.02-.02,0-.04.01-.06.02-.03,0-.06,0-.1,0s-.07,0-.1,0c-.03,0-.05,0-.06-.02-.02,0-.03-.01-.03-.02,0,0,0-.02,0-.03v-3.37s0-.03,0-.04c0-.01.02-.02.03-.03.02,0,.04-.01.06-.02.03,0,.06,0,.1,0s.08,0,.1,0c.03,0,.05,0,.06.02.02,0,.03.02.03.03,0,.01.01.02.01.04v3.37ZM201.64,287.38s0,.06,0,.08c0,.02,0,.04-.02.06,0,.02-.02.03-.03.03-.01,0-.02.01-.04.01h-1.57s-.08-.01-.11-.04c-.03-.03-.05-.07-.05-.14v-2.91c0-.07.02-.11.05-.14.03-.03.07-.04.11-.04h1.55s.03,0,.04.01c.01,0,.02.02.03.03,0,.02.01.03.02.06,0,.02,0,.05,0,.08,0,.03,0,.06,0,.08,0,.02,0,.04-.02.06,0,.01-.02.02-.03.03-.01,0-.02.01-.04.01h-1.28v1.02h1.09s.03,0,.04.01c.01,0,.02.02.03.03,0,.01.01.03.02.06,0,.02,0,.05,0,.08,0,.03,0,.06,0,.08,0,.02,0,.04-.02.05,0,.01-.02.02-.03.03-.01,0-.02,0-.04,0h-1.09v1.17h1.29s.03,0,.04.01c.01,0,.02.02.03.03,0,.01.01.03.02.06,0,.02,0,.05,0,.08ZM204.19,285.33c0,.06,0,.1-.02.13-.02.03-.04.04-.06.04h-.33c.06.06.1.13.12.2.02.07.04.15.04.23,0,.13-.02.25-.06.35-.04.1-.1.19-.18.26-.08.07-.17.12-.28.16-.11.04-.23.06-.36.06-.09,0-.18-.01-.26-.04-.08-.02-.15-.06-.19-.09-.03.03-.06.06-.07.1-.02.04-.03.08-.03.13,0,.06.03.11.08.15.05.04.13.06.22.06l.59.03c.11,0,.22.02.31.05.09.03.18.07.24.12.07.05.12.11.16.19.04.07.06.16.06.26,0,.1-.02.2-.07.3-.04.09-.11.18-.2.25-.09.07-.2.13-.34.17-.14.04-.3.06-.49.06s-.34-.02-.47-.05c-.13-.03-.23-.07-.32-.13-.08-.05-.14-.12-.18-.19-.04-.07-.06-.16-.06-.24,0-.06,0-.11.02-.16.01-.05.03-.1.06-.15.03-.05.06-.09.1-.13.04-.04.09-.09.14-.13-.08-.04-.14-.09-.18-.16-.04-.06-.06-.13-.06-.21,0-.1.02-.19.06-.27.04-.08.09-.15.16-.22-.05-.06-.09-.13-.12-.21-.03-.08-.05-.17-.05-.28,0-.13.02-.25.07-.35.04-.1.1-.19.18-.26.08-.07.17-.12.28-.16.11-.04.23-.06.35-.06.07,0,.13,0,.19.01.06,0,.12.02.17.03h.69s.05.01.06.04c.01.03.02.07.02.13ZM203.75,287.73c0-.1-.04-.17-.12-.23-.08-.05-.19-.08-.32-.08l-.59-.02c-.05.04-.1.08-.13.12-.03.04-.06.07-.08.11-.02.03-.03.07-.04.1,0,.03-.01.07-.01.1,0,.11.06.19.17.25.11.06.27.08.46.08.13,0,.23-.01.32-.04.08-.02.15-.06.21-.1.05-.04.09-.09.11-.14.02-.05.03-.11.03-.16ZM203.48,284.12s.01-.04.03-.06.06-.02.12-.02c.03,0,.06,0,.08,0,.02,0,.03,0,.05.01.01,0,.02.01.02.02,0,0,0,.02,0,.03,0,.11-.01.21-.04.3-.03.08-.07.16-.12.21-.05.06-.12.1-.2.13-.08.03-.18.04-.28.04-.11,0-.21-.02-.29-.05-.08-.03-.15-.07-.2-.13-.05-.06-.09-.13-.12-.21-.02-.08-.04-.18-.04-.29,0-.03.01-.05.03-.06s.06-.02.12-.02c.03,0,.06,0,.07,0,.02,0,.03,0,.05.01.01,0,.02.01.02.02,0,0,0,.02,0,.03,0,.06.01.11.03.16.01.05.04.09.06.12.03.03.06.06.11.08s.09.03.15.03c.05,0,.1,0,.14-.02.04-.01.08-.04.11-.07.03-.03.06-.07.07-.12.02-.05.03-.11.03-.18ZM203.54,285.93c0-.15-.04-.28-.13-.36-.08-.09-.21-.13-.36-.13-.08,0-.15.01-.21.04-.06.03-.11.06-.15.11-.04.05-.07.1-.09.16-.02.06-.03.13-.03.19,0,.15.04.27.13.35.08.09.2.13.36.13.08,0,.15-.01.21-.04.06-.03.11-.06.15-.11.04-.05.07-.1.09-.16.02-.06.03-.12.03-.19ZM205.19,284.46c0,.1-.02.16-.06.2-.04.04-.11.05-.2.05s-.16-.02-.2-.05c-.04-.03-.05-.1-.05-.2s.02-.16.06-.2c.04-.04.11-.05.2-.05s.16.02.2.05c.04.03.05.1.05.2ZM205.14,287.5s0,.02-.01.03c0,0-.02.02-.03.02-.02,0-.04.01-.06.02-.03,0-.06,0-.1,0s-.07,0-.1,0c-.03,0-.05,0-.06-.02-.02,0-.03-.01-.03-.02,0,0,0-.02,0-.03v-2.27s0-.02,0-.03c0-.01.02-.02.03-.03.02,0,.04-.01.06-.02.03,0,.06,0,.1,0s.08,0,.1,0c.03,0,.05,0,.06.02.02,0,.03.02.03.03,0,.01.01.02.01.03v2.27ZM207.89,285.17c.05,0,.08.01.1.03.02.02.03.06.03.1v2.2s0,.02-.01.03c0,0-.02.02-.03.02-.02,0-.04.01-.06.02-.03,0-.06,0-.1,0-.04,0-.08,0-.1,0-.03,0-.05,0-.06-.02-.02,0-.03-.01-.03-.02,0,0-.01-.02-.01-.03v-1.99h-1.17v1.27c0,.16.02.27.07.35.05.08.13.12.25.12.04,0,.07,0,.1-.01s.06-.02.08-.02c.02,0,.04-.02.06-.02.02,0,.03-.01.05-.01,0,0,.02,0,.02,0,0,0,.01.01.02.02,0,.01,0,.03.01.05,0,.02,0,.05,0,.08,0,.05,0,.09-.01.11,0,.03-.02.05-.03.06-.01.01-.03.03-.06.04-.03.01-.06.02-.09.03-.03,0-.07.01-.11.02-.04,0-.08,0-.12,0-.12,0-.22-.02-.3-.05-.08-.03-.15-.08-.21-.14-.05-.06-.09-.14-.12-.24-.02-.1-.04-.21-.04-.34v-1.33h-.32s-.05-.01-.06-.04c-.02-.03-.02-.07-.02-.13,0-.03,0-.06,0-.08,0-.02,0-.04.02-.05,0-.01.02-.02.03-.03.01,0,.02,0,.04,0h.32v-.54s0-.02,0-.03c0-.01.02-.02.03-.03.02,0,.04-.01.06-.02.03,0,.06,0,.1,0s.08,0,.1,0c.03,0,.05,0,.06.02.02,0,.03.02.03.03,0,.01.01.02.01.03v.54h1.46ZM208.06,284.46c0,.1-.02.16-.06.2-.04.04-.11.05-.2.05s-.16-.02-.2-.05c-.04-.03-.05-.1-.05-.2s.02-.16.06-.2c.04-.04.11-.05.2-.05s.16.02.2.05c.04.03.05.1.05.2ZM212.15,287.5s0,.02-.01.03c0,0-.02.02-.03.02-.02,0-.04.01-.06.02-.03,0-.06,0-.1,0s-.08,0-.1,0c-.03,0-.05,0-.06-.02-.02,0-.03-.01-.03-.02,0,0-.01-.02-.01-.03v-1.38c0-.1,0-.18-.03-.26-.02-.08-.04-.15-.08-.2-.04-.06-.08-.1-.14-.13-.06-.03-.12-.05-.2-.05-.1,0-.19.04-.29.11-.1.07-.2.18-.32.33v1.59s0,.02-.01.03c0,0-.02.02-.03.02-.02,0-.04.01-.06.02-.03,0-.06,0-.1,0s-.07,0-.1,0c-.03,0-.05,0-.07-.02-.02,0-.03-.01-.03-.02,0,0,0-.02,0-.03v-1.38c0-.1,0-.18-.03-.26-.02-.08-.05-.15-.08-.2-.04-.06-.08-.1-.14-.13-.06-.03-.12-.05-.2-.05-.1,0-.19.04-.29.11-.1.07-.2.18-.32.33v1.59s0,.02-.01.03c0,0-.02.02-.03.02-.02,0-.04.01-.06.02-.03,0-.06,0-.1,0s-.07,0-.1,0c-.03,0-.05,0-.06-.02-.02,0-.03-.01-.03-.02,0,0,0-.02,0-.03v-2.27s0-.02,0-.03c0,0,.02-.02.03-.03.02,0,.03-.01.06-.02.02,0,.05,0,.09,0s.07,0,.09,0c.02,0,.04,0,.06.02.01,0,.02.02.03.03,0,0,0,.02,0,.03v.3c.13-.14.25-.25.37-.31.12-.07.24-.1.36-.1.09,0,.18.01.25.03.07.02.14.05.2.09.06.04.11.09.15.14.04.05.07.12.1.18.08-.08.15-.15.22-.21.07-.06.13-.1.2-.14.06-.04.12-.06.18-.08.06-.02.12-.02.18-.02.15,0,.27.03.37.08.1.05.18.12.24.21.06.09.11.19.13.3.03.12.04.24.04.36v1.43Z"/>
  </g>
  <g id="Logo">
    <path class="cls-1" d="M136.87,181.93l17.22-17.22-31.98-31.98c-18.35,18.35-36.7,36.7-55.06,55.06,2.52,8.44,6.16,16.39,10.74,23.69l44.32-44.32,14.76,14.76h0Z"/>
    <path class="cls-1" d="M96.29,233.13c6.23,5.43,13.16,10.08,20.64,13.79,28.77-28.78,57.55-57.55,86.33-86.33l43.27,43.27c4.06-7.98,7.04-16.6,8.76-25.67-17.35-17.35-34.69-34.69-52.03-52.03-35.66,35.66-71.31,71.31-106.97,106.97h0Z"/>
    <path class="cls-1" d="M99.57,200.33l-17.47,17.47c2.67,3.59,5.58,7,8.72,10.18l17.22-17.22c-3.13-3.21-5.97-6.69-8.47-10.43h0Z"/>
    <path class="cls-1" d="M256.99,159.99c0-53.56-43.43-96.98-96.99-96.98s-96.99,43.43-96.99,96.99c0,6.6.66,13.05,1.92,19.29l22.49-22.49c1.68-38.63,33.53-69.43,72.58-69.43,34.24,0,62.93,23.68,70.62,55.56l25.97,25.97c.27-2.92.4-5.88.4-8.87h0v-.02Z"/>
    <path class="cls-1" d="M160,232.65c-5.62,0-11.08-.64-16.33-1.84l-19.39,19.39c11.05,4.38,23.11,6.79,35.72,6.79,34.99,0,65.66-18.53,82.71-46.31l-17.88-17.88c-11.99,23.64-36.51,39.84-64.84,39.84h0Z"/>
  </g>
</svg>