<?xml version="1.0" encoding="UTF-8"?>
<svg id="katman_1" data-name="katman 1" xmlns="http://www.w3.org/2000/svg" viewBox="0 0 708.94 167.57">
  <defs>
    <style>
      .cls-1, .cls-2 {
        fill: #00a651;
      }

      .cls-2 {
        font-family: SegoeUI-Bold, 'Segoe UI';
        font-size: 102.24px;
        font-weight: 700;
      }

      .cls-3 {
        letter-spacing: -.02em;
      }
    </style>
  </defs>
  <g id="LogoVeYazı">
    <g id="Yazı">
      <text class="cls-2" transform="translate(187 118.69)"><tspan x="0" y="0">Inno</tspan><tspan class="cls-3" x="218.61" y="0">v</tspan><tspan x="272.49" y="0">a</tspan></text>
      <text class="cls-2" transform="translate(526.06 119.94)"><tspan x="0" y="0">101</tspan></text>
    </g>
    <g id="Logo">
      <path class="cls-1" d="M63.22,95.01l13.23-13.23-24.58-24.58c-14.11,14.11-28.21,28.21-42.32,42.32,1.94,6.49,4.73,12.6,8.25,18.21l34.07-34.07,11.35,11.35Z"/>
      <path class="cls-1" d="M32.03,134.37c4.79,4.17,10.12,7.75,15.86,10.6,22.12-22.12,44.24-44.24,66.36-66.36l33.26,33.26c3.12-6.14,5.41-12.76,6.73-19.73-13.33-13.33-26.66-26.67-40-40-27.41,27.41-54.82,54.82-82.22,82.22Z"/>
      <path class="cls-1" d="M34.55,109.16l-13.43,13.43c2.05,2.76,4.29,5.38,6.7,7.83l13.23-13.23c-2.41-2.46-4.59-5.15-6.51-8.02Z"/>
      <path class="cls-1" d="M155.56,78.15c0-41.17-33.38-74.55-74.56-74.55S6.45,36.98,6.45,78.16c0,5.08.51,10.03,1.47,14.82l17.29-17.29c1.29-29.7,25.77-53.37,55.79-53.37,26.32,0,48.38,18.2,54.29,42.71l19.96,19.96c.2-2.25.31-4.52.31-6.82,0,0,0,0,0,0,0,0,0,0,0,0Z"/>
      <path class="cls-1" d="M81.01,134c-4.32,0-8.52-.49-12.55-1.42l-14.91,14.91c8.5,3.37,17.76,5.22,27.46,5.22,26.9,0,50.47-14.24,63.58-35.6l-13.74-13.74c-9.21,18.17-28.07,30.63-49.84,30.63Z"/>
    </g>
  </g>
</svg>