<?xml version="1.0" encoding="UTF-8"?>
<svg id="katman_1" data-name="katman 1" xmlns="http://www.w3.org/2000/svg" viewBox="0 0 500 300">
  <defs>
    <style>
      .cls-1, .cls-2 {
        fill: #fff;
      }

      .cls-2 {
        font-family: SegoeUI-Bold, 'Segoe UI';
        font-size: 93.32px;
        font-weight: 700;
      }

      .cls-3 {
        letter-spacing: -.02em;
      }
    </style>
  </defs>
  <g id="LogoVeYazı">
    <g id="Yazı">
      <text class="cls-2" transform="translate(157.44 132.57)"><tspan x="0" y="0">Inno</tspan><tspan class="cls-3" x="199.53" y="0">v</tspan><tspan x="248.71" y="0">a</tspan></text>
      <text class="cls-2" transform="translate(157.44 206.57)"><tspan x="0" y="0">Summit</tspan></text>
    </g>
    <g id="Logo">
      <path class="cls-1" d="M51.82,153.1l12.08-12.08-22.43-22.43c-12.88,12.88-25.75,25.75-38.63,38.63,1.77,5.92,4.32,11.5,7.53,16.62l31.09-31.09,10.36,10.36Z"/>
      <path class="cls-1" d="M23.35,189.03c4.37,3.81,9.23,7.07,14.48,9.68,20.19-20.19,40.38-40.38,60.57-60.57l30.36,30.36c2.85-5.6,4.94-11.65,6.15-18.01-12.17-12.17-24.34-24.34-36.51-36.51-25.02,25.02-50.03,50.03-75.05,75.05Z"/>
      <path class="cls-1" d="M25.65,166.02l-12.25,12.25c1.87,2.52,3.92,4.91,6.11,7.14l12.08-12.08c-2.2-2.25-4.19-4.7-5.94-7.32Z"/>
      <path class="cls-1" d="M136.1,137.72c0-37.58-30.47-68.05-68.05-68.05S0,100.14,0,137.72c0,4.63.46,9.16,1.35,13.53l15.78-15.78c1.18-27.1,23.53-48.72,50.92-48.72,24.02,0,44.16,16.61,49.55,38.98l18.22,18.22c.19-2.05.28-4.13.28-6.22,0,0,0,0,0,0,0,0,0,0,0,0Z"/>
      <path class="cls-1" d="M68.05,188.69c-3.94,0-7.77-.45-11.46-1.29l-13.61,13.61c7.76,3.07,16.21,4.76,25.07,4.76,24.55,0,46.06-13,58.03-32.49l-12.54-12.54c-8.41,16.59-25.62,27.95-45.49,27.95Z"/>
    </g>
  </g>
</svg>