<?xml version="1.0" encoding="UTF-8"?>
<svg xmlns="http://www.w3.org/2000/svg" xmlns:xlink="http://www.w3.org/1999/xlink" viewBox="0 0 1080 1080">
  <defs>
    <style>
      .cls-1 {
        font-size: 51.78px;
      }

      .cls-1, .cls-2, .cls-3, .cls-4 {
        fill: #fff;
      }

      .cls-1, .cls-3, .cls-5 {
        isolation: isolate;
      }

      .cls-1, .cls-6 {
        font-family: SegoeUI-Bold, 'Segoe UI';
        font-weight: 700;
      }

      .cls-7 {
        letter-spacing: 0em;
      }

      .cls-8 {
        fill: url(#Adsız_degrade_3);
      }

      .cls-9 {
        letter-spacing: -.02em;
      }

      .cls-10 {
        letter-spacing: 0em;
      }

      .cls-3 {
        font-family: Calibri, Calibri;
        font-size: 37.13px;
      }

      .cls-4 {
        filter: url(#drop-shadow-1);
      }

      .cls-11 {
        mix-blend-mode: overlay;
        opacity: .39;
      }

      .cls-6 {
        fill: #00a651;
        filter: url(#drop-shadow-2);
        font-size: 76.75px;
      }

      .cls-12 {
        letter-spacing: 0em;
      }
    </style>
    <linearGradient id="Adsız_degrade_3" data-name="Adsız degrade 3" x1="188.19" y1="925.36" x2="916.35" y2="127.76" gradientUnits="userSpaceOnUse">
      <stop offset="0" stop-color="#00a651"/>
      <stop offset="1" stop-color="#003f0e"/>
    </linearGradient>
    <filter id="drop-shadow-1" x="-2.94" y="-1.32" width="1105.92" height="948.24" filterUnits="userSpaceOnUse">
      <feOffset dx="10" dy="10"/>
      <feGaussianBlur result="blur" stdDeviation="50"/>
      <feFlood flood-color="#000" flood-opacity=".5"/>
      <feComposite in2="blur" operator="in"/>
      <feComposite in="SourceGraphic"/>
    </filter>
    <filter id="drop-shadow-2" filterUnits="userSpaceOnUse">
      <feOffset dx="2" dy="2"/>
      <feGaussianBlur result="blur-2" stdDeviation="10"/>
      <feFlood flood-color="#000" flood-opacity=".25"/>
      <feComposite in2="blur-2" operator="in"/>
      <feComposite in="SourceGraphic"/>
    </filter>
  </defs>
  <g class="cls-5">
    <g id="Post_4" data-name="Post 4">
      <rect class="cls-8" width="1080" height="1080"/>
      <g id="Boncuklar" class="cls-11">
        <path class="cls-2" d="M10.64,21.46c5.88,0,10.66-4.81,10.66-10.74C21.3,4.8,16.52,0,10.64,0,4.76,0,0,4.8,0,10.72s4.76,10.74,10.64,10.74Z"/>
        <path class="cls-2" d="M60.5,20.89c5.56,0,10.08-4.55,10.08-10.17,0-5.62-4.52-10.15-10.08-10.15s-10.09,4.53-10.09,10.15,4.51,10.17,10.09,10.17Z"/>
        <path class="cls-2" d="M110.35,20.31c5.26,0,9.54-4.27,9.54-9.59s-4.27-9.61-9.54-9.61-9.54,4.31-9.54,9.61,4.28,9.59,9.54,9.59Z"/>
        <path class="cls-2" d="M160.21,19.78c4.97,0,8.98-4.06,8.98-9.06s-4.01-9.05-8.98-9.05-8.99,4.04-8.99,9.05c0,5,4.03,9.06,8.99,9.06Z"/>
        <path class="cls-2" d="M210.06,19.63c4.89,0,8.85-3.99,8.85-8.91,0-4.95-3.96-8.93-8.85-8.93-4.89,0-8.85,3.99-8.85,8.93s3.96,8.91,8.85,8.91Z"/>
        <path class="cls-2" d="M259.92,19.5c4.81,0,8.72-3.93,8.72-8.78,0-4.83-3.9-8.76-8.72-8.76-4.81,0-8.71,3.93-8.71,8.76,0,4.85,3.9,8.78,8.71,8.78Z"/>
        <path class="cls-2" d="M309.76,19.37c4.74,0,8.58-3.87,8.58-8.65,0-4.78-3.84-8.63-8.58-8.63-4.72,0-8.57,3.85-8.57,8.63,0,4.78,3.84,8.65,8.57,8.65Z"/>
        <path class="cls-2" d="M359.63,19.22c4.64,0,8.43-3.8,8.43-8.5s-3.79-8.5-8.43-8.5-8.44,3.8-8.44,8.5c0,4.7,3.77,8.5,8.44,8.5Z"/>
        <path class="cls-2" d="M409.47,18.79c4.44,0,8.02-3.59,8.02-8.07,0-4.46-3.58-8.07-8.02-8.07-4.42,0-8.01,3.61-8.01,8.07,0,4.48,3.58,8.07,8.01,8.07Z"/>
        <path class="cls-2" d="M459.34,18.37c4.2,0,7.6-3.42,7.6-7.65s-3.4-7.65-7.6-7.65-7.61,3.42-7.61,7.65c0,4.23,3.42,7.65,7.61,7.65Z"/>
        <path class="cls-2" d="M509.18,17.98c3.97,0,7.21-3.25,7.21-7.26,0-3.99-3.23-7.24-7.21-7.24s-7.18,3.25-7.18,7.24c0,4.01,3.23,7.26,7.18,7.26Z"/>
        <path class="cls-2" d="M559.05,17.53c3.73,0,6.77-3.05,6.77-6.81,0-3.76-3.04-6.83-6.77-6.83s-6.77,3.07-6.77,6.83,3.04,6.81,6.77,6.81Z"/>
        <path class="cls-2" d="M608.91,17c3.43,0,6.21-2.82,6.21-6.28,0-3.46-2.78-6.26-6.21-6.26s-6.23,2.8-6.23,6.26c0,3.46,2.78,6.28,6.23,6.28Z"/>
        <path class="cls-2" d="M658.76,16.42c3.14,0,5.67-2.54,5.67-5.7s-2.54-5.72-5.67-5.72c-3.14,0-5.67,2.58-5.67,5.72s2.54,5.7,5.67,5.7Z"/>
        <path class="cls-2" d="M708.62,16c2.89,0,5.24-2.37,5.24-5.28,0-2.91-2.35-5.28-5.24-5.28s-5.26,2.37-5.26,5.28c0,2.91,2.35,5.28,5.26,5.28Z"/>
        <path class="cls-2" d="M758.47,15.46c2.59,0,4.7-2.12,4.7-4.74s-2.11-4.74-4.7-4.74-4.7,2.12-4.7,4.74,2.11,4.74,4.7,4.74Z"/>
        <path class="cls-2" d="M808.33,15.04c2.37,0,4.27-1.94,4.27-4.33,0-2.41-1.9-4.31-4.27-4.31s-4.29,1.9-4.29,4.31,1.92,4.33,4.29,4.33Z"/>
        <path class="cls-2" d="M858.17,14.35c2,0,3.6-1.62,3.6-3.63s-1.6-3.61-3.6-3.61-3.58,1.62-3.58,3.61c0,2.01,1.6,3.63,3.58,3.63Z"/>
        <path class="cls-2" d="M908.04,13.93c1.75,0,3.17-1.45,3.17-3.22,0-1.77-1.42-3.2-3.17-3.2s-3.19,1.43-3.19,3.2c0,1.77,1.44,3.22,3.19,3.22Z"/>
        <path class="cls-2" d="M957.88,13.37c1.46,0,2.63-1.18,2.63-2.65,0-1.45-1.18-2.63-2.63-2.63s-2.61,1.18-2.61,2.63c0,1.47,1.18,2.65,2.61,2.65Z"/>
        <path class="cls-2" d="M1007.75,12.79c1.14,0,2.07-.9,2.07-2.07s-.93-2.09-2.07-2.09-2.07.94-2.07,2.09c0,1.17.91,2.07,2.07,2.07Z"/>
        <path class="cls-2" d="M1057.59,12.26c.84,0,1.53-.7,1.53-1.54,0-.85-.69-1.52-1.53-1.52s-1.51.68-1.51,1.52c0,.85.67,1.54,1.51,1.54Z"/>
        <path class="cls-2" d="M10.64,71.27c5.65,0,10.23-4.63,10.23-10.3,0-5.7-4.57-10.31-10.23-10.31S.41,55.27.41,60.96s4.57,10.3,10.23,10.3Z"/>
        <path class="cls-2" d="M60.5,70.71c5.34,0,9.67-4.36,9.67-9.74s-4.33-9.76-9.67-9.76-9.69,4.36-9.69,9.76,4.33,9.74,9.69,9.74Z"/>
        <ellipse class="cls-2" cx="110.35" cy="60.96" rx="9.13" ry="9.2"/>
        <path class="cls-2" d="M160.21,69.6c4.72,0,8.57-3.87,8.57-8.63,0-4.78-3.84-8.63-8.57-8.63s-8.58,3.85-8.58,8.63,3.85,8.63,8.58,8.63Z"/>
        <path class="cls-2" d="M210.06,69.6c4.74,0,8.58-3.87,8.58-8.63,0-4.78-3.84-8.63-8.58-8.63-4.72,0-8.57,3.85-8.57,8.63s3.84,8.63,8.57,8.63Z"/>
        <path class="cls-2" d="M259.92,69.6c4.72,0,8.57-3.87,8.57-8.63s-3.84-8.63-8.57-8.63-8.58,3.85-8.58,8.63c0,4.76,3.84,8.63,8.58,8.63Z"/>
        <path class="cls-2" d="M309.76,69.46c4.67,0,8.44-3.84,8.44-8.5,0-4.72-3.77-8.52-8.44-8.52s-8.44,3.8-8.44,8.52,3.79,8.5,8.44,8.5Z"/>
        <path class="cls-2" d="M359.63,69.46c4.64,0,8.43-3.84,8.43-8.5s-3.79-8.52-8.43-8.52-8.44,3.8-8.44,8.52c0,4.66,3.77,8.5,8.44,8.5Z"/>
        <path class="cls-2" d="M409.47,69.05c4.44,0,8.02-3.63,8.02-8.09,0-4.46-3.58-8.1-8.02-8.1-4.42,0-8.01,3.65-8.01,8.1s3.58,8.09,8.01,8.09Z"/>
        <path class="cls-2" d="M459.34,68.62c4.2,0,7.6-3.42,7.6-7.65,0-4.23-3.4-7.67-7.6-7.67s-7.61,3.44-7.61,7.67,3.42,7.65,7.61,7.65Z"/>
        <path class="cls-2" d="M509.18,68.2c3.97,0,7.21-3.25,7.21-7.24,0-4.01-3.23-7.26-7.21-7.26s-7.18,3.25-7.18,7.26,3.23,7.24,7.18,7.24Z"/>
        <path class="cls-2" d="M559.05,67.64c3.66,0,6.64-2.99,6.64-6.68,0-3.7-2.99-6.69-6.64-6.69s-6.64,2.99-6.64,6.69c0,3.69,2.99,6.68,6.64,6.68Z"/>
        <path class="cls-2" d="M608.91,67.23c3.43,0,6.21-2.8,6.21-6.26s-2.78-6.28-6.21-6.28-6.23,2.82-6.23,6.28c0,3.46,2.78,6.26,6.23,6.26Z"/>
        <path class="cls-2" d="M658.76,66.68c3.14,0,5.67-2.58,5.67-5.72s-2.54-5.74-5.67-5.74-5.67,2.58-5.67,5.74,2.54,5.72,5.67,5.72Z"/>
        <path class="cls-2" d="M708.62,66.23c2.89,0,5.24-2.37,5.24-5.27s-2.35-5.3-5.24-5.3-5.26,2.37-5.26,5.3,2.35,5.27,5.26,5.27Z"/>
        <path class="cls-2" d="M758.47,65.84c2.67,0,4.83-2.18,4.83-4.87,0-2.69-2.16-4.89-4.83-4.89s-4.83,2.2-4.83,4.89,2.16,4.87,4.83,4.87Z"/>
        <path class="cls-2" d="M808.33,65.29c2.37,0,4.27-1.94,4.27-4.33s-1.9-4.33-4.27-4.33-4.29,1.94-4.29,4.33,1.92,4.33,4.29,4.33Z"/>
        <path class="cls-2" d="M858.17,64.58c2,0,3.6-1.62,3.6-3.61,0-2.01-1.6-3.63-3.6-3.63s-3.58,1.62-3.58,3.63c0,1.99,1.6,3.61,3.58,3.61Z"/>
        <path class="cls-2" d="M908.04,64.16c1.75,0,3.17-1.43,3.17-3.2s-1.42-3.22-3.17-3.22-3.19,1.45-3.19,3.22c0,1.77,1.44,3.2,3.19,3.2Z"/>
        <path class="cls-2" d="M957.88,63.6c1.46,0,2.63-1.17,2.63-2.63,0-1.47-1.18-2.65-2.63-2.65s-2.61,1.18-2.61,2.65c0,1.47,1.18,2.63,2.61,2.63Z"/>
        <path class="cls-2" d="M1007.75,63.18c1.21,0,2.2-1.02,2.2-2.22,0-1.24-.99-2.24-2.2-2.24s-2.22,1-2.22,2.24c0,1.2.99,2.22,2.22,2.22Z"/>
        <path class="cls-2" d="M1057.59,62.64c.92,0,1.66-.75,1.66-1.67,0-.92-.75-1.67-1.66-1.67s-1.66.75-1.66,1.67c0,.92.75,1.67,1.66,1.67Z"/>
        <path class="cls-2" d="M10.64,121.08c5.43,0,9.82-4.42,9.82-9.89,0-5.45-4.38-9.89-9.82-9.89-5.41,0-9.82,4.44-9.82,9.89,0,5.47,4.4,9.89,9.82,9.89Z"/>
        <path class="cls-2" d="M60.5,120.54c5.11,0,9.26-4.17,9.26-9.35,0-5.15-4.14-9.33-9.26-9.33s-9.27,4.17-9.27,9.33,4.16,9.35,9.27,9.35Z"/>
        <path class="cls-2" d="M110.35,119.97c4.82,0,8.71-3.95,8.71-8.78,0-4.83-3.9-8.78-8.71-8.78s-8.72,3.95-8.72,8.78c0,4.83,3.9,8.78,8.72,8.78Z"/>
        <path class="cls-2" d="M160.21,119.56c4.57,0,8.29-3.74,8.29-8.37,0-4.61-3.71-8.35-8.29-8.35s-8.3,3.74-8.3,8.35c0,4.63,3.71,8.37,8.3,8.37Z"/>
        <path class="cls-2" d="M210.06,119.41c4.52,0,8.16-3.67,8.16-8.22s-3.64-8.22-8.16-8.22-8.16,3.67-8.16,8.22,3.66,8.22,8.16,8.22Z"/>
        <path class="cls-2" d="M259.92,119.41c4.5,0,8.16-3.67,8.16-8.22,0-4.55-3.66-8.22-8.16-8.22s-8.15,3.67-8.15,8.22c0,4.55,3.64,8.22,8.15,8.22Z"/>
        <path class="cls-2" d="M309.76,119.41c4.52,0,8.16-3.67,8.16-8.22s-3.64-8.22-8.16-8.22-8.16,3.67-8.16,8.22,3.66,8.22,8.16,8.22Z"/>
        <path class="cls-2" d="M359.63,119.41c4.49,0,8.15-3.67,8.15-8.22s-3.66-8.22-8.15-8.22-8.16,3.67-8.16,8.22c0,4.55,3.64,8.22,8.16,8.22Z"/>
        <path class="cls-2" d="M409.47,119.15c4.37,0,7.89-3.55,7.89-7.95s-3.53-7.94-7.89-7.94-7.88,3.55-7.88,7.94c0,4.4,3.53,7.95,7.88,7.95Z"/>
        <path class="cls-2" d="M459.34,118.71c4.12,0,7.46-3.37,7.46-7.52,0-4.16-3.34-7.52-7.46-7.52s-7.46,3.37-7.46,7.52,3.34,7.52,7.46,7.52Z"/>
        <path class="cls-2" d="M509.18,118.3c3.9,0,7.05-3.18,7.05-7.11s-3.15-7.09-7.05-7.09c-3.88,0-7.04,3.18-7.04,7.09s3.15,7.11,7.04,7.11Z"/>
        <path class="cls-2" d="M559.05,117.76c3.58,0,6.49-2.93,6.49-6.56s-2.91-6.54-6.49-6.54c-3.58,0-6.49,2.91-6.49,6.54,0,3.63,2.91,6.56,6.49,6.56Z"/>
        <path class="cls-2" d="M608.91,117.32c3.36,0,6.08-2.75,6.08-6.13,0-3.38-2.72-6.13-6.08-6.13s-6.08,2.75-6.08,6.13c0,3.38,2.72,6.13,6.08,6.13Z"/>
        <path class="cls-2" d="M658.76,116.91c3.14,0,5.67-2.58,5.67-5.72,0-3.14-2.54-5.7-5.67-5.7s-5.67,2.56-5.67,5.7,2.54,5.72,5.67,5.72Z"/>
        <path class="cls-2" d="M708.62,116.5c2.89,0,5.24-2.37,5.24-5.3s-2.35-5.28-5.24-5.28-5.26,2.37-5.26,5.28,2.35,5.3,5.26,5.3Z"/>
        <path class="cls-2" d="M758.47,116.08c2.67,0,4.83-2.18,4.83-4.89s-2.16-4.89-4.83-4.89-4.83,2.2-4.83,4.89,2.16,4.89,4.83,4.89Z"/>
        <path class="cls-2" d="M808.33,115.65c2.44,0,4.42-1.99,4.42-4.46s-1.98-4.46-4.42-4.46-4.42,1.99-4.42,4.46,1.98,4.46,4.42,4.46Z"/>
        <path class="cls-2" d="M858.17,114.82c2,0,3.6-1.62,3.6-3.63,0-2.01-1.6-3.63-3.6-3.63s-3.58,1.62-3.58,3.63,1.6,3.63,3.58,3.63Z"/>
        <path class="cls-2" d="M908.04,114.41c1.75,0,3.17-1.45,3.17-3.22,0-1.77-1.42-3.2-3.17-3.2s-3.19,1.43-3.19,3.2c0,1.77,1.44,3.22,3.19,3.22Z"/>
        <path class="cls-2" d="M957.88,113.99c1.53,0,2.76-1.26,2.76-2.8,0-1.52-1.23-2.78-2.76-2.78s-2.76,1.26-2.76,2.78c0,1.54,1.23,2.8,2.76,2.8Z"/>
        <path class="cls-2" d="M1007.75,113.56c1.28,0,2.35-1.05,2.35-2.37s-1.06-2.37-2.35-2.37-2.35,1.07-2.35,2.37c0,1.32,1.05,2.37,2.35,2.37Z"/>
        <path class="cls-2" d="M1057.59,113.02c1.01,0,1.81-.81,1.81-1.82,0-1-.8-1.81-1.81-1.81s-1.79.81-1.79,1.81c0,1.02.8,1.82,1.79,1.82Z"/>
        <path class="cls-2" d="M10.64,170.9c5.19,0,9.41-4.23,9.41-9.46,0-5.25-4.22-9.48-9.41-9.48s-9.41,4.23-9.41,9.48c0,5.23,4.22,9.46,9.41,9.46Z"/>
        <path class="cls-2" d="M60.5,170.35c4.87,0,8.85-3.99,8.85-8.91,0-4.93-3.97-8.91-8.85-8.91s-8.85,3.99-8.85,8.91,3.96,8.91,8.85,8.91Z"/>
        <path class="cls-2" d="M110.35,169.94c4.67,0,8.44-3.8,8.44-8.5,0-4.7-3.77-8.5-8.44-8.5s-8.43,3.8-8.43,8.5,3.79,8.5,8.43,8.5Z"/>
        <path class="cls-2" d="M160.21,169.52c4.42,0,8.01-3.63,8.01-8.09s-3.58-8.09-8.01-8.09-8.02,3.63-8.02,8.09,3.58,8.09,8.02,8.09Z"/>
        <path class="cls-2" d="M210.06,169.37c4.35,0,7.89-3.55,7.89-7.94s-3.55-7.95-7.89-7.95-7.88,3.55-7.88,7.95c0,4.38,3.53,7.94,7.88,7.94Z"/>
        <path class="cls-2" d="M259.92,169.37c4.35,0,7.88-3.55,7.88-7.94,0-4.4-3.52-7.95-7.88-7.95-4.35,0-7.88,3.55-7.88,7.95,0,4.38,3.53,7.94,7.88,7.94Z"/>
        <path class="cls-2" d="M309.76,169.37c4.37,0,7.89-3.55,7.89-7.94,0-4.4-3.53-7.95-7.89-7.95s-7.88,3.55-7.88,7.95,3.53,7.94,7.88,7.94Z"/>
        <path class="cls-2" d="M359.63,169.24c4.27,0,7.74-3.5,7.74-7.8s-3.47-7.8-7.74-7.8-7.75,3.5-7.75,7.8,3.47,7.8,7.75,7.8Z"/>
        <path class="cls-2" d="M409.47,169.09c4.2,0,7.61-3.42,7.61-7.65s-3.42-7.67-7.61-7.67-7.6,3.44-7.6,7.67,3.4,7.65,7.6,7.65Z"/>
        <path class="cls-2" d="M459.34,168.68c3.97,0,7.18-3.23,7.18-7.24s-3.21-7.24-7.18-7.24-7.18,3.23-7.18,7.24,3.21,7.24,7.18,7.24Z"/>
        <path class="cls-2" d="M509.18,168.26c3.75,0,6.77-3.07,6.77-6.83s-3.02-6.83-6.77-6.83-6.77,3.05-6.77,6.83c0,3.76,3.04,6.83,6.77,6.83Z"/>
        <path class="cls-2" d="M559.05,167.68c3.44,0,6.21-2.78,6.21-6.24,0-3.48-2.78-6.26-6.21-6.26s-6.21,2.78-6.21,6.26,2.78,6.24,6.21,6.24Z"/>
        <path class="cls-2" d="M608.91,167.42c3.27,0,5.93-2.69,5.93-5.98s-2.67-6-5.93-6-5.95,2.69-5.95,6c0,3.29,2.67,5.98,5.95,5.98Z"/>
        <path class="cls-2" d="M658.76,167c3.06,0,5.52-2.48,5.52-5.57s-2.46-5.59-5.52-5.59-5.52,2.5-5.52,5.59,2.46,5.57,5.52,5.57Z"/>
        <path class="cls-2" d="M708.62,166.59c2.82,0,5.11-2.31,5.11-5.15,0-2.84-2.3-5.17-5.11-5.17s-5.11,2.33-5.11,5.17,2.28,5.15,5.11,5.15Z"/>
        <path class="cls-2" d="M758.47,166.18c2.59,0,4.7-2.12,4.7-4.74s-2.11-4.74-4.7-4.74-4.7,2.11-4.7,4.74,2.11,4.74,4.7,4.74Z"/>
        <path class="cls-2" d="M808.33,165.74c2.37,0,4.27-1.92,4.27-4.31s-1.9-4.33-4.27-4.33-4.29,1.94-4.29,4.33,1.92,4.31,4.29,4.31Z"/>
        <path class="cls-2" d="M858.17,165.07c2,0,3.6-1.64,3.6-3.63,0-1.99-1.6-3.65-3.6-3.65s-3.58,1.65-3.58,3.65,1.6,3.63,3.58,3.63Z"/>
        <path class="cls-2" d="M908.04,164.64c1.75,0,3.17-1.43,3.17-3.2s-1.42-3.22-3.17-3.22-3.19,1.43-3.19,3.22c0,1.77,1.44,3.2,3.19,3.2Z"/>
        <path class="cls-2" d="M957.88,164.22c1.53,0,2.76-1.24,2.76-2.78,0-1.54-1.23-2.8-2.76-2.8s-2.76,1.26-2.76,2.8,1.23,2.78,2.76,2.78Z"/>
        <path class="cls-2" d="M1007.75,163.81c1.28,0,2.35-1.07,2.35-2.37,0-1.32-1.06-2.37-2.35-2.37s-2.35,1.05-2.35,2.37,1.05,2.37,2.35,2.37Z"/>
        <path class="cls-2" d="M1057.59,163.38c1.08,0,1.94-.87,1.94-1.94,0-1.07-.86-1.96-1.94-1.96s-1.92.88-1.92,1.96c0,1.07.86,1.94,1.92,1.94Z"/>
        <path class="cls-2" d="M10.64,220.73c4.96,0,8.99-4.08,8.99-9.06s-4.03-9.06-8.99-9.06c-4.96,0-8.98,4.06-8.98,9.06,0,4.98,4.01,9.06,8.98,9.06Z"/>
        <path class="cls-2" d="M60.5,220.32c4.72,0,8.57-3.87,8.57-8.65s-3.85-8.63-8.57-8.63c-4.74,0-8.58,3.87-8.58,8.63,0,4.78,3.84,8.65,8.58,8.65Z"/>
        <path class="cls-2" d="M110.35,219.75c4.42,0,8.02-3.61,8.02-8.09,0-4.46-3.6-8.07-8.02-8.07s-8.01,3.61-8.01,8.07,3.58,8.09,8.01,8.09Z"/>
        <path class="cls-2" d="M160.21,219.34c4.2,0,7.6-3.44,7.6-7.67s-3.4-7.65-7.6-7.65c-4.2,0-7.61,3.42-7.61,7.65,0,4.23,3.42,7.67,7.61,7.67Z"/>
        <path class="cls-2" d="M210.06,219.19c4.12,0,7.46-3.38,7.46-7.52s-3.34-7.52-7.46-7.52-7.46,3.37-7.46,7.52c0,4.14,3.34,7.52,7.46,7.52Z"/>
        <path class="cls-2" d="M259.92,219.19c4.12,0,7.46-3.38,7.46-7.52s-3.34-7.52-7.46-7.52-7.46,3.37-7.46,7.52,3.34,7.52,7.46,7.52Z"/>
        <path class="cls-2" d="M309.76,219.19c4.12,0,7.46-3.38,7.46-7.52,0-4.16-3.34-7.52-7.46-7.52-4.12,0-7.46,3.37-7.46,7.52s3.34,7.52,7.46,7.52Z"/>
        <path class="cls-2" d="M359.63,219.19c4.12,0,7.46-3.38,7.46-7.52s-3.34-7.52-7.46-7.52c-4.13,0-7.46,3.37-7.46,7.52s3.34,7.52,7.46,7.52Z"/>
        <path class="cls-2" d="M409.47,219.06c4.05,0,7.33-3.31,7.33-7.39,0-4.06-3.28-7.37-7.33-7.37s-7.32,3.31-7.32,7.37,3.28,7.39,7.32,7.39Z"/>
        <path class="cls-2" d="M459.34,218.64c3.83,0,6.9-3.12,6.9-6.98s-3.08-6.96-6.9-6.96-6.9,3.12-6.9,6.96,3.08,6.98,6.9,6.98Z"/>
        <path class="cls-2" d="M509.18,218.08c3.53,0,6.36-2.86,6.36-6.41,0-3.55-2.84-6.39-6.36-6.39s-6.34,2.84-6.34,6.39c0,3.55,2.84,6.41,6.34,6.41Z"/>
        <path class="cls-2" d="M559.05,217.66c3.28,0,5.95-2.71,5.95-6s-2.67-5.98-5.95-5.98-5.95,2.67-5.95,5.98,2.67,6,5.95,6Z"/>
        <path class="cls-2" d="M608.91,217.23c3.04,0,5.52-2.48,5.52-5.57s-2.48-5.59-5.52-5.59-5.54,2.52-5.54,5.59,2.48,5.57,5.54,5.57Z"/>
        <path class="cls-2" d="M658.76,216.97c2.91,0,5.26-2.37,5.26-5.3s-2.35-5.28-5.26-5.28-5.24,2.37-5.24,5.28c0,2.93,2.35,5.3,5.24,5.3Z"/>
        <path class="cls-2" d="M708.62,216.55c2.67,0,4.84-2.2,4.84-4.89s-2.17-4.87-4.84-4.87-4.85,2.18-4.85,4.87,2.16,4.89,4.85,4.89Z"/>
        <path class="cls-2" d="M758.47,216.27c2.52,0,4.57-2.07,4.57-4.61s-2.05-4.59-4.57-4.59-4.55,2.05-4.55,4.59c0,2.54,2.03,4.61,4.55,4.61Z"/>
        <path class="cls-2" d="M808.33,215.97c2.37,0,4.27-1.92,4.27-4.31,0-2.37-1.9-4.33-4.27-4.33s-4.29,1.96-4.29,4.33,1.92,4.31,4.29,4.31Z"/>
        <path class="cls-2" d="M858.17,215.3c2,0,3.6-1.62,3.6-3.63,0-1.99-1.6-3.61-3.6-3.61s-3.58,1.62-3.58,3.61,1.6,3.63,3.58,3.63Z"/>
        <path class="cls-2" d="M908.04,214.88c1.75,0,3.17-1.45,3.17-3.22,0-1.79-1.42-3.2-3.17-3.2s-3.19,1.41-3.19,3.2c0,1.77,1.44,3.22,3.19,3.22Z"/>
        <path class="cls-2" d="M957.88,214.45c1.53,0,2.76-1.24,2.76-2.78,0-1.52-1.23-2.8-2.76-2.8s-2.76,1.28-2.76,2.8c0,1.54,1.23,2.78,2.76,2.78Z"/>
        <path class="cls-2" d="M1007.75,214.02c1.28,0,2.35-1.03,2.35-2.35,0-1.3-1.06-2.35-2.35-2.35s-2.35,1.05-2.35,2.35c0,1.32,1.05,2.35,2.35,2.35Z"/>
        <path class="cls-2" d="M1057.59,213.6c1.08,0,1.94-.85,1.94-1.94,0-1.07-.86-1.96-1.94-1.96s-1.92.88-1.92,1.96c0,1.09.86,1.94,1.92,1.94Z"/>
        <path class="cls-2" d="M10.64,270.67c4.81,0,8.71-3.91,8.71-8.76,0-4.85-3.9-8.78-8.71-8.78s-8.71,3.93-8.71,8.78,3.9,8.76,8.71,8.76Z"/>
        <path class="cls-2" d="M60.5,270.26c4.57,0,8.29-3.74,8.29-8.35s-3.71-8.35-8.29-8.35c-4.59,0-8.3,3.74-8.3,8.35s3.71,8.35,8.3,8.35Z"/>
        <path class="cls-2" d="M110.35,269.72c4.27,0,7.74-3.52,7.74-7.8,0-4.31-3.47-7.8-7.74-7.8s-7.74,3.5-7.74,7.8c0,4.29,3.47,7.8,7.74,7.8Z"/>
        <path class="cls-2" d="M160.21,269.3c4.05,0,7.32-3.31,7.32-7.39s-3.27-7.39-7.32-7.39-7.33,3.31-7.33,7.39,3.28,7.39,7.33,7.39Z"/>
        <path class="cls-2" d="M210.06,269.15c3.97,0,7.19-3.23,7.19-7.24s-3.21-7.24-7.19-7.24-7.18,3.23-7.18,7.24c0,4.01,3.23,7.24,7.18,7.24Z"/>
        <path class="cls-2" d="M259.92,269.15c3.98,0,7.18-3.23,7.18-7.24s-3.21-7.24-7.18-7.24-7.18,3.23-7.18,7.24,3.21,7.24,7.18,7.24Z"/>
        <path class="cls-2" d="M309.76,269.15c3.97,0,7.2-3.23,7.2-7.24s-3.23-7.24-7.2-7.24-7.18,3.23-7.18,7.24c0,4.01,3.23,7.24,7.18,7.24Z"/>
        <path class="cls-2" d="M359.63,269.15c3.97,0,7.18-3.23,7.18-7.24,0-4.01-3.21-7.24-7.18-7.24s-7.19,3.23-7.19,7.24,3.21,7.24,7.19,7.24Z"/>
        <path class="cls-2" d="M409.47,269.02c3.9,0,7.05-3.18,7.05-7.11s-3.15-7.13-7.05-7.13-7.04,3.2-7.04,7.13c0,3.93,3.15,7.11,7.04,7.11Z"/>
        <path class="cls-2" d="M459.34,268.46c3.58,0,6.49-2.93,6.49-6.54s-2.91-6.54-6.49-6.54-6.49,2.93-6.49,6.54,2.91,6.54,6.49,6.54Z"/>
        <path class="cls-2" d="M509.18,268.04c3.36,0,6.09-2.75,6.09-6.13s-2.73-6.13-6.09-6.13c-3.36,0-6.07,2.75-6.07,6.13,0,3.38,2.71,6.13,6.07,6.13Z"/>
        <path class="cls-2" d="M559.05,267.76c3.21,0,5.8-2.61,5.8-5.85,0-3.23-2.59-5.87-5.8-5.87-3.21,0-5.8,2.63-5.8,5.87,0,3.23,2.59,5.85,5.8,5.85Z"/>
        <path class="cls-2" d="M608.91,267.35c2.97,0,5.37-2.43,5.37-5.43,0-3.01-2.41-5.43-5.37-5.43s-5.39,2.43-5.39,5.43c0,3.01,2.41,5.43,5.39,5.43Z"/>
        <path class="cls-2" d="M658.76,267.05c2.82,0,5.11-2.29,5.11-5.13,0-2.84-2.29-5.15-5.11-5.15s-5.11,2.31-5.11,5.15,2.3,5.13,5.11,5.13Z"/>
        <path class="cls-2" d="M708.62,266.78c2.67,0,4.84-2.2,4.84-4.87,0-2.69-2.17-4.87-4.84-4.87s-4.85,2.18-4.85,4.87,2.16,4.87,4.85,4.87Z"/>
        <path class="cls-2" d="M758.47,266.37c2.44,0,4.42-1.99,4.42-4.46s-1.98-4.46-4.42-4.46-4.42,1.97-4.42,4.46,1.98,4.46,4.42,4.46Z"/>
        <path class="cls-2" d="M808.33,266.09c2.28,0,4.14-1.86,4.14-4.17s-1.87-4.17-4.14-4.17-4.16,1.86-4.16,4.17,1.87,4.17,4.16,4.17Z"/>
        <path class="cls-2" d="M858.17,265.52c2,0,3.6-1.62,3.6-3.61s-1.6-3.63-3.6-3.63-3.58,1.64-3.58,3.63c0,1.99,1.6,3.61,3.58,3.61Z"/>
        <path class="cls-2" d="M908.04,265.09c1.75,0,3.17-1.43,3.17-3.18,0-1.77-1.42-3.2-3.17-3.2s-3.19,1.43-3.19,3.2,1.44,3.18,3.19,3.18Z"/>
        <path class="cls-2" d="M957.88,264.68c1.53,0,2.76-1.22,2.76-2.76,0-1.56-1.23-2.78-2.76-2.78s-2.76,1.22-2.76,2.78c0,1.54,1.23,2.76,2.76,2.76Z"/>
        <path class="cls-2" d="M1007.75,264.28c1.28,0,2.35-1.05,2.35-2.37,0-1.32-1.06-2.37-2.35-2.37s-2.35,1.05-2.35,2.37c0,1.32,1.05,2.37,2.35,2.37Z"/>
        <path class="cls-2" d="M1057.59,264c1.16,0,2.07-.94,2.07-2.09s-.91-2.09-2.07-2.09-2.07.94-2.07,2.09c0,1.15.93,2.09,2.07,2.09Z"/>
        <path class="cls-2" d="M10.64,320.51c4.59,0,8.3-3.74,8.3-8.35,0-4.63-3.71-8.37-8.3-8.37s-8.29,3.74-8.29,8.37,3.71,8.35,8.29,8.35Z"/>
        <path class="cls-2" d="M60.5,320.09c4.35,0,7.88-3.55,7.88-7.94s-3.53-7.95-7.88-7.95-7.89,3.55-7.89,7.95c0,4.38,3.53,7.94,7.89,7.94Z"/>
        <path class="cls-2" d="M110.35,319.68c4.12,0,7.46-3.38,7.46-7.52,0-4.16-3.34-7.52-7.46-7.52s-7.46,3.37-7.46,7.52c0,4.14,3.34,7.52,7.46,7.52Z"/>
        <path class="cls-2" d="M160.21,319.25c3.88,0,7.05-3.18,7.05-7.09s-3.17-7.11-7.05-7.11-7.05,3.18-7.05,7.11c0,3.91,3.15,7.09,7.05,7.09Z"/>
        <path class="cls-2" d="M210.06,319.12c3.83,0,6.92-3.12,6.92-6.96s-3.09-6.98-6.92-6.98-6.9,3.12-6.9,6.98,3.1,6.96,6.9,6.96Z"/>
        <path class="cls-2" d="M259.92,318.98c3.73,0,6.78-3.07,6.78-6.83s-3.04-6.83-6.78-6.83-6.77,3.05-6.77,6.83c0,3.76,3.02,6.83,6.77,6.83Z"/>
        <path class="cls-2" d="M309.76,318.98c3.75,0,6.77-3.07,6.77-6.83,0-3.78-3.02-6.83-6.77-6.83s-6.77,3.05-6.77,6.83,3.04,6.83,6.77,6.83Z"/>
        <path class="cls-2" d="M359.63,318.98c3.73,0,6.77-3.07,6.77-6.83,0-3.78-3.04-6.83-6.77-6.83s-6.78,3.05-6.78,6.83,3.02,6.83,6.78,6.83Z"/>
        <path class="cls-2" d="M409.47,318.83c3.68,0,6.64-3.01,6.64-6.68s-2.97-6.69-6.64-6.69-6.62,2.99-6.62,6.69c0,3.67,2.97,6.68,6.62,6.68Z"/>
        <path class="cls-2" d="M459.34,318.42c3.43,0,6.21-2.8,6.21-6.26s-2.78-6.28-6.21-6.28-6.21,2.8-6.21,6.28,2.78,6.26,6.21,6.26Z"/>
        <path class="cls-2" d="M509.18,318.14c3.29,0,5.95-2.69,5.95-5.98s-2.67-6-5.95-6-5.93,2.69-5.93,6,2.67,5.98,5.93,5.98Z"/>
        <path class="cls-2" d="M559.05,317.86c3.14,0,5.68-2.56,5.68-5.7s-2.54-5.72-5.68-5.72-5.67,2.54-5.67,5.72,2.54,5.7,5.67,5.7Z"/>
        <path class="cls-2" d="M608.91,317.44c2.89,0,5.24-2.37,5.24-5.28s-2.35-5.3-5.24-5.3-5.26,2.37-5.26,5.3,2.35,5.28,5.26,5.28Z"/>
        <path class="cls-2" d="M658.76,317.16c2.74,0,4.98-2.24,4.98-5s-2.24-5.04-4.98-5.04-4.98,2.26-4.98,5.04c0,2.76,2.24,5,4.98,5Z"/>
        <path class="cls-2" d="M708.62,316.88c2.6,0,4.68-2.11,4.68-4.72s-2.09-4.74-4.68-4.74-4.7,2.11-4.7,4.74,2.11,4.72,4.7,4.72Z"/>
        <path class="cls-2" d="M758.47,316.46c2.37,0,4.29-1.94,4.29-4.31s-1.92-4.33-4.29-4.33-4.27,1.94-4.27,4.33c0,2.37,1.9,4.31,4.27,4.31Z"/>
        <path class="cls-2" d="M808.33,316.05c2.13,0,3.86-1.75,3.86-3.89s-1.74-3.91-3.86-3.91-3.88,1.75-3.88,3.91,1.74,3.89,3.88,3.89Z"/>
        <path class="cls-2" d="M858.17,315.64c1.92,0,3.46-1.58,3.46-3.48,0-1.94-1.53-3.52-3.46-3.52s-3.45,1.58-3.45,3.52c0,1.9,1.55,3.48,3.45,3.48Z"/>
        <path class="cls-2" d="M908.04,315.22c1.68,0,3.04-1.37,3.04-3.07,0-1.69-1.37-3.07-3.04-3.07s-3.04,1.37-3.04,3.07,1.36,3.07,3.04,3.07Z"/>
        <path class="cls-2" d="M957.88,314.94c1.53,0,2.76-1.26,2.76-2.78,0-1.54-1.23-2.8-2.76-2.8s-2.76,1.26-2.76,2.8c0,1.52,1.23,2.78,2.76,2.78Z"/>
        <path class="cls-2" d="M1007.75,314.51c1.28,0,2.35-1.05,2.35-2.35s-1.06-2.37-2.35-2.37-2.35,1.05-2.35,2.37c0,1.3,1.05,2.35,2.35,2.35Z"/>
        <path class="cls-2" d="M1057.59,314.25c1.16,0,2.07-.96,2.07-2.09s-.91-2.11-2.07-2.11-2.07.94-2.07,2.11c0,1.13.93,2.09,2.07,2.09Z"/>
        <ellipse class="cls-2" cx="10.64" cy="362.39" rx="7.88" ry="7.94"/>
        <ellipse class="cls-2" cx="60.5" cy="362.39" rx="7.46" ry="7.52"/>
        <path class="cls-2" d="M110.35,369.49c3.9,0,7.06-3.18,7.06-7.11,0-3.95-3.16-7.11-7.06-7.11-3.88,0-7.05,3.16-7.05,7.11,0,3.93,3.17,7.11,7.05,7.11Z"/>
        <path class="cls-2" d="M160.21,369.08c3.66,0,6.62-3.03,6.62-6.69s-2.96-6.69-6.62-6.69-6.64,3.01-6.64,6.69c0,3.67,2.97,6.69,6.64,6.69Z"/>
        <ellipse class="cls-2" cx="210.06" cy="362.39" rx="6.36" ry="6.41"/>
        <ellipse class="cls-2" cx="259.92" cy="362.39" rx="6.36" ry="6.41"/>
        <path class="cls-2" d="M309.76,368.8c3.53,0,6.36-2.88,6.36-6.41s-2.84-6.41-6.36-6.41c-3.51,0-6.35,2.88-6.35,6.41s2.84,6.41,6.35,6.41Z"/>
        <path class="cls-2" d="M359.63,368.8c3.51,0,6.36-2.88,6.36-6.41,0-3.54-2.86-6.41-6.36-6.41s-6.37,2.88-6.37,6.41,2.86,6.41,6.37,6.41Z"/>
        <path class="cls-2" d="M409.47,368.65c3.45,0,6.23-2.8,6.23-6.26,0-3.46-2.78-6.26-6.23-6.26-3.43,0-6.21,2.8-6.21,6.26,0,3.46,2.78,6.26,6.21,6.26Z"/>
        <path class="cls-2" d="M459.34,368.38c3.28,0,5.93-2.69,5.93-6s-2.65-5.98-5.93-5.98-5.95,2.67-5.95,5.98c0,3.31,2.67,6,5.95,6Z"/>
        <path class="cls-2" d="M509.18,368.08c3.14,0,5.67-2.54,5.67-5.7s-2.54-5.72-5.67-5.72-5.65,2.54-5.65,5.72,2.54,5.7,5.65,5.7Z"/>
        <path class="cls-2" d="M559.05,367.69c2.89,0,5.26-2.37,5.26-5.3s-2.37-5.3-5.26-5.3-5.24,2.37-5.24,5.3,2.35,5.3,5.24,5.3Z"/>
        <path class="cls-2" d="M608.91,367.41c2.74,0,4.96-2.26,4.96-5.02,0-2.76-2.22-5.04-4.96-5.04s-4.98,2.28-4.98,5.04c0,2.76,2.22,5.02,4.98,5.02Z"/>
        <path class="cls-2" d="M658.76,367.24c2.67,0,4.83-2.16,4.83-4.85s-2.16-4.87-4.83-4.87-4.83,2.18-4.83,4.87,2.16,4.85,4.83,4.85Z"/>
        <path class="cls-2" d="M708.62,366.84c2.44,0,4.42-1.99,4.42-4.46s-1.98-4.46-4.42-4.46-4.42,1.99-4.42,4.46,1.98,4.46,4.42,4.46Z"/>
        <path class="cls-2" d="M758.47,366.56c2.3,0,4.14-1.86,4.14-4.17,0-2.33-1.85-4.19-4.14-4.19s-4.14,1.86-4.14,4.19,1.84,4.17,4.14,4.17Z"/>
        <path class="cls-2" d="M808.33,366.13c2.05,0,3.73-1.65,3.73-3.74s-1.68-3.78-3.73-3.78-3.73,1.69-3.73,3.78,1.66,3.74,3.73,3.74Z"/>
        <path class="cls-2" d="M858.17,365.71c1.83,0,3.32-1.49,3.32-3.33s-1.49-3.35-3.32-3.35-3.32,1.5-3.32,3.35,1.49,3.33,3.32,3.33Z"/>
        <path class="cls-2" d="M908.04,365.45c1.68,0,3.04-1.37,3.04-3.07,0-1.69-1.37-3.07-3.04-3.07s-3.04,1.37-3.04,3.07,1.36,3.07,3.04,3.07Z"/>
        <path class="cls-2" d="M957.88,365.17c1.53,0,2.76-1.24,2.76-2.78,0-1.54-1.23-2.78-2.76-2.78s-2.76,1.24-2.76,2.78c0,1.54,1.23,2.78,2.76,2.78Z"/>
        <path class="cls-2" d="M1007.75,364.75c1.28,0,2.35-1.07,2.35-2.37s-1.06-2.37-2.35-2.37-2.35,1.05-2.35,2.37c0,1.3,1.05,2.37,2.35,2.37Z"/>
        <path class="cls-2" d="M1057.59,364.47c1.16,0,2.07-.96,2.07-2.09s-.91-2.09-2.07-2.09-2.07.94-2.07,2.09c0,1.13.93,2.09,2.07,2.09Z"/>
        <ellipse class="cls-2" cx="10.64" cy="412.63" rx="7.46" ry="7.52"/>
        <path class="cls-2" d="M60.5,419.72c3.88,0,7.04-3.2,7.04-7.09,0-3.93-3.15-7.11-7.04-7.11-3.9,0-7.05,3.18-7.05,7.11s3.15,7.09,7.05,7.09Z"/>
        <path class="cls-2" d="M110.35,419.31c3.68,0,6.64-2.99,6.64-6.68,0-3.7-2.97-6.69-6.64-6.69s-6.62,2.99-6.62,6.69c0,3.69,2.97,6.68,6.62,6.68Z"/>
        <path class="cls-2" d="M160.21,418.89c3.43,0,6.21-2.8,6.21-6.26,0-3.46-2.78-6.28-6.21-6.28-3.43,0-6.23,2.82-6.23,6.28s2.8,6.26,6.23,6.26Z"/>
        <path class="cls-2" d="M210.06,418.76c3.36,0,6.08-2.75,6.08-6.13,0-3.38-2.72-6.13-6.08-6.13-3.36,0-6.08,2.75-6.08,6.13,0,3.38,2.72,6.13,6.08,6.13Z"/>
        <path class="cls-2" d="M259.92,418.76c3.36,0,6.08-2.75,6.08-6.13s-2.72-6.13-6.08-6.13-6.08,2.75-6.08,6.13,2.72,6.13,6.08,6.13Z"/>
        <path class="cls-2" d="M309.76,418.61c3.28,0,5.95-2.67,5.95-5.98s-2.67-6-5.95-6-5.93,2.69-5.93,6,2.65,5.98,5.93,5.98Z"/>
        <path class="cls-2" d="M359.63,418.61c3.28,0,5.93-2.67,5.93-5.98s-2.65-6-5.93-6-5.96,2.69-5.96,6,2.67,5.98,5.96,5.98Z"/>
        <path class="cls-2" d="M409.47,418.48c3.21,0,5.82-2.63,5.82-5.85s-2.61-5.87-5.82-5.87c-3.19,0-5.8,2.63-5.8,5.87s2.61,5.85,5.8,5.85Z"/>
        <path class="cls-2" d="M459.34,418.2c3.06,0,5.52-2.5,5.52-5.57,0-3.08-2.46-5.59-5.52-5.59s-5.52,2.5-5.52,5.59,2.46,5.57,5.52,5.57Z"/>
        <path class="cls-2" d="M509.18,417.92c2.91,0,5.26-2.37,5.26-5.28s-2.35-5.32-5.26-5.32-5.24,2.37-5.24,5.32,2.35,5.28,5.24,5.28Z"/>
        <path class="cls-2" d="M559.05,417.63c2.74,0,4.98-2.24,4.98-5s-2.24-5.02-4.98-5.02-4.98,2.24-4.98,5.02c0,2.76,2.24,5,4.98,5Z"/>
        <path class="cls-2" d="M608.91,417.35c2.59,0,4.68-2.11,4.68-4.72s-2.09-4.74-4.68-4.74-4.7,2.12-4.7,4.74,2.09,4.72,4.7,4.72Z"/>
        <path class="cls-2" d="M658.76,417.2c2.52,0,4.57-2.03,4.57-4.57s-2.05-4.61-4.57-4.61-4.55,2.07-4.55,4.61,2.03,4.57,4.55,4.57Z"/>
        <path class="cls-2" d="M708.62,416.79c2.28,0,4.14-1.86,4.14-4.16s-1.87-4.19-4.14-4.19-4.16,1.88-4.16,4.19c0,2.29,1.87,4.16,4.16,4.16Z"/>
        <path class="cls-2" d="M758.47,416.52c2.15,0,3.88-1.77,3.88-3.89s-1.74-3.91-3.88-3.91-3.86,1.75-3.86,3.91,1.74,3.89,3.86,3.89Z"/>
        <path class="cls-2" d="M808.33,416.11c1.9,0,3.45-1.56,3.45-3.48s-1.55-3.5-3.45-3.5-3.47,1.56-3.47,3.5,1.55,3.48,3.47,3.48Z"/>
        <path class="cls-2" d="M858.17,415.83c1.75,0,3.19-1.43,3.19-3.2s-1.44-3.22-3.19-3.22-3.17,1.45-3.17,3.22c0,1.77,1.42,3.2,3.17,3.2Z"/>
        <path class="cls-2" d="M908.04,415.55c1.6,0,2.89-1.3,2.89-2.91,0-1.62-1.29-2.95-2.89-2.95s-2.91,1.34-2.91,2.95c0,1.62,1.31,2.91,2.91,2.91Z"/>
        <path class="cls-2" d="M957.88,415.26c1.46,0,2.63-1.18,2.63-2.63,0-1.47-1.18-2.65-2.63-2.65s-2.61,1.18-2.61,2.65c0,1.45,1.18,2.63,2.61,2.63Z"/>
        <path class="cls-2" d="M1007.75,414.83c1.21,0,2.2-.98,2.2-2.2,0-1.26-.99-2.24-2.2-2.24s-2.22.98-2.22,2.24c0,1.22.99,2.2,2.22,2.2Z"/>
        <path class="cls-2" d="M1057.59,414.57c1.08,0,1.94-.87,1.94-1.94,0-1.09-.86-1.96-1.94-1.96s-1.92.87-1.92,1.96c0,1.07.86,1.94,1.92,1.94Z"/>
        <path class="cls-2" d="M10.64,469.97c3.9,0,7.05-3.18,7.05-7.11s-3.15-7.11-7.05-7.11c-3.9,0-7.05,3.18-7.05,7.11,0,3.93,3.16,7.11,7.05,7.11Z"/>
        <path class="cls-2" d="M60.5,469.55c3.66,0,6.62-2.99,6.62-6.69s-2.97-6.68-6.62-6.68-6.64,2.99-6.64,6.68c0,3.7,2.97,6.69,6.64,6.69Z"/>
        <path class="cls-2" d="M110.35,469.12c3.43,0,6.23-2.8,6.23-6.26,0-3.46-2.8-6.26-6.23-6.26s-6.21,2.8-6.21,6.26c0,3.46,2.78,6.26,6.21,6.26Z"/>
        <path class="cls-2" d="M160.21,468.86c3.29,0,5.93-2.69,5.93-6s-2.65-6-5.93-6-5.95,2.69-5.95,6c0,3.31,2.67,6,5.95,6Z"/>
        <path class="cls-2" d="M210.06,468.71c3.21,0,5.8-2.63,5.8-5.85s-2.59-5.85-5.8-5.85c-3.21,0-5.8,2.61-5.8,5.85s2.59,5.85,5.8,5.85Z"/>
        <path class="cls-2" d="M259.92,468.58c3.14,0,5.67-2.58,5.67-5.72s-2.54-5.72-5.67-5.72-5.67,2.56-5.67,5.72,2.54,5.72,5.67,5.72Z"/>
        <path class="cls-2" d="M309.76,468.58c3.14,0,5.67-2.58,5.67-5.72s-2.54-5.72-5.67-5.72-5.65,2.56-5.65,5.72,2.54,5.72,5.65,5.72Z"/>
        <path class="cls-2" d="M359.63,468.43c3.06,0,5.52-2.48,5.52-5.57s-2.46-5.57-5.52-5.57-5.53,2.48-5.53,5.57,2.46,5.57,5.53,5.57Z"/>
        <path class="cls-2" d="M409.47,468.27c2.99,0,5.4-2.41,5.4-5.42s-2.41-5.43-5.4-5.43c-2.97,0-5.39,2.44-5.39,5.43s2.43,5.42,5.39,5.42Z"/>
        <path class="cls-2" d="M459.34,468.16c2.89,0,5.24-2.37,5.24-5.3s-2.35-5.28-5.24-5.28c-2.91,0-5.26,2.37-5.26,5.28s2.35,5.3,5.26,5.3Z"/>
        <path class="cls-2" d="M509.18,467.88c2.76,0,4.98-2.26,4.98-5.02s-2.22-5.02-4.98-5.02-4.96,2.24-4.96,5.02,2.22,5.02,4.96,5.02Z"/>
        <path class="cls-2" d="M559.05,467.6c2.59,0,4.7-2.12,4.7-4.74s-2.11-4.74-4.7-4.74-4.7,2.12-4.7,4.74,2.11,4.74,4.7,4.74Z"/>
        <path class="cls-2" d="M608.91,467.32c2.43,0,4.42-1.99,4.42-4.46s-2-4.48-4.42-4.48-4.44,2.01-4.44,4.48,1.99,4.46,4.44,4.46Z"/>
        <path class="cls-2" d="M658.76,467.18c2.37,0,4.29-1.96,4.29-4.33,0-2.39-1.92-4.33-4.29-4.33s-4.29,1.94-4.29,4.33,1.92,4.33,4.29,4.33Z"/>
        <path class="cls-2" d="M708.62,466.75c2.13,0,3.86-1.73,3.86-3.89s-1.74-3.89-3.86-3.89-3.88,1.75-3.88,3.89,1.74,3.89,3.88,3.89Z"/>
        <path class="cls-2" d="M758.47,466.34c1.9,0,3.45-1.56,3.45-3.48s-1.55-3.48-3.45-3.48-3.45,1.54-3.45,3.48,1.55,3.48,3.45,3.48Z"/>
        <path class="cls-2" d="M808.33,466.21c1.83,0,3.3-1.5,3.3-3.35s-1.47-3.35-3.3-3.35-3.32,1.5-3.32,3.35,1.47,3.35,3.32,3.35Z"/>
        <path class="cls-2" d="M858.17,465.91c1.68,0,3.04-1.35,3.04-3.05,0-1.69-1.36-3.07-3.04-3.07s-3.04,1.37-3.04,3.07,1.36,3.05,3.04,3.05Z"/>
        <path class="cls-2" d="M908.04,465.64c1.53,0,2.76-1.26,2.76-2.78,0-1.54-1.23-2.78-2.76-2.78s-2.76,1.24-2.76,2.78c0,1.52,1.23,2.78,2.76,2.78Z"/>
        <path class="cls-2" d="M957.88,465.36c1.38,0,2.5-1.11,2.5-2.5,0-1.37-1.12-2.5-2.5-2.5s-2.48,1.13-2.48,2.5,1.12,2.5,2.48,2.5Z"/>
        <path class="cls-2" d="M1007.75,464.95c1.14,0,2.07-.92,2.07-2.09,0-1.15-.93-2.11-2.07-2.11s-2.07.96-2.07,2.11.91,2.09,2.07,2.09Z"/>
        <path class="cls-2" d="M1057.59,464.81c1.08,0,1.94-.88,1.94-1.96s-.86-1.96-1.94-1.96-1.92.87-1.92,1.96.86,1.96,1.92,1.96Z"/>
        <path class="cls-2" d="M10.64,519.65c3.58,0,6.49-2.93,6.49-6.56,0-3.63-2.91-6.53-6.49-6.53s-6.49,2.9-6.49,6.53,2.91,6.56,6.49,6.56Z"/>
        <path class="cls-2" d="M60.5,519.35c3.43,0,6.21-2.78,6.21-6.26s-2.78-6.26-6.21-6.26-6.23,2.8-6.23,6.26,2.8,6.26,6.23,6.26Z"/>
        <path class="cls-2" d="M110.35,519.09c3.28,0,5.95-2.67,5.95-6,0-3.29-2.67-6-5.95-6s-5.93,2.71-5.93,6,2.65,6,5.93,6Z"/>
        <path class="cls-2" d="M160.21,518.8c3.12,0,5.65-2.56,5.65-5.72s-2.54-5.7-5.65-5.7c-3.14,0-5.67,2.56-5.67,5.7s2.53,5.72,5.67,5.72Z"/>
        <path class="cls-2" d="M210.06,518.67c3.06,0,5.54-2.5,5.54-5.59,0-3.07-2.48-5.58-5.54-5.58-3.04,0-5.52,2.52-5.52,5.58s2.48,5.59,5.52,5.59Z"/>
        <path class="cls-2" d="M259.92,518.54c2.97,0,5.39-2.44,5.39-5.45,0-2.99-2.43-5.42-5.39-5.42s-5.39,2.43-5.39,5.42c0,3.01,2.41,5.45,5.39,5.45Z"/>
        <path class="cls-2" d="M309.76,518.39c2.91,0,5.27-2.37,5.27-5.3s-2.35-5.28-5.27-5.28c-2.89,0-5.24,2.37-5.24,5.28s2.35,5.3,5.24,5.3Z"/>
        <path class="cls-2" d="M359.63,518.39c2.89,0,5.24-2.37,5.24-5.3s-2.35-5.28-5.24-5.28c-2.91,0-5.27,2.37-5.27,5.28s2.35,5.3,5.27,5.3Z"/>
        <path class="cls-2" d="M409.47,518.26c2.84,0,5.13-2.31,5.13-5.17s-2.3-5.15-5.13-5.15-5.11,2.31-5.11,5.15,2.3,5.17,5.11,5.17Z"/>
        <path class="cls-2" d="M459.34,517.98c2.67,0,4.83-2.18,4.83-4.89s-2.16-4.87-4.83-4.87-4.83,2.16-4.83,4.87,2.17,4.89,4.83,4.89Z"/>
        <path class="cls-2" d="M509.18,517.83c2.61,0,4.7-2.11,4.7-4.74s-2.09-4.72-4.7-4.72c-2.59,0-4.68,2.11-4.68,4.72s2.09,4.74,4.68,4.74Z"/>
        <path class="cls-2" d="M559.05,517.56c2.44,0,4.42-1.99,4.42-4.48,0-2.44-1.98-4.44-4.42-4.44-2.44,0-4.42,1.99-4.42,4.44s1.98,4.48,4.42,4.48Z"/>
        <path class="cls-2" d="M608.91,517.28c2.28,0,4.15-1.88,4.15-4.19s-1.87-4.17-4.15-4.17-4.16,1.88-4.16,4.17c0,2.31,1.87,4.19,4.16,4.19Z"/>
        <path class="cls-2" d="M658.76,516.98c2.15,0,3.88-1.73,3.88-3.89s-1.74-3.89-3.88-3.89-3.86,1.75-3.86,3.89,1.74,3.89,3.86,3.89Z"/>
        <path class="cls-2" d="M708.62,516.72c1.98,0,3.58-1.62,3.58-3.63s-1.6-3.63-3.58-3.63-3.6,1.64-3.6,3.63,1.6,3.63,3.6,3.63Z"/>
        <path class="cls-2" d="M758.47,516.43c1.83,0,3.32-1.49,3.32-3.35s-1.49-3.33-3.32-3.33-3.32,1.47-3.32,3.33,1.49,3.35,3.32,3.35Z"/>
        <path class="cls-2" d="M808.33,516.17c1.68,0,3.04-1.39,3.04-3.08s-1.36-3.05-3.04-3.05-3.04,1.35-3.04,3.05c0,1.69,1.36,3.08,3.04,3.08Z"/>
        <path class="cls-2" d="M858.17,516.02c1.6,0,2.91-1.3,2.91-2.93,0-1.6-1.31-2.91-2.91-2.91s-2.89,1.32-2.89,2.91c0,1.64,1.28,2.93,2.89,2.93Z"/>
        <path class="cls-2" d="M908.04,515.74c1.46,0,2.63-1.18,2.63-2.65,0-1.45-1.18-2.63-2.63-2.63s-2.63,1.18-2.63,2.63c0,1.47,1.18,2.65,2.63,2.65Z"/>
        <path class="cls-2" d="M957.88,515.46c1.31,0,2.35-1.05,2.35-2.37,0-1.3-1.04-2.37-2.35-2.37s-2.35,1.07-2.35,2.37c0,1.32,1.06,2.37,2.35,2.37Z"/>
        <path class="cls-2" d="M1007.75,515.19c1.14,0,2.07-.94,2.07-2.11s-.93-2.07-2.07-2.07-2.07.92-2.07,2.07c0,1.17.91,2.11,2.07,2.11Z"/>
        <path class="cls-2" d="M1057.59,514.91c1.01,0,1.81-.81,1.81-1.82,0-1.02-.8-1.81-1.81-1.81s-1.79.79-1.79,1.81c0,1.02.8,1.82,1.79,1.82Z"/>
        <path class="cls-2" d="M10.64,569.46c3.36,0,6.08-2.76,6.08-6.15s-2.72-6.11-6.08-6.11-6.08,2.73-6.08,6.11c0,3.38,2.72,6.15,6.08,6.15Z"/>
        <path class="cls-2" d="M60.5,569.18c3.19,0,5.8-2.61,5.8-5.87s-2.61-5.83-5.8-5.83c-3.21,0-5.8,2.61-5.8,5.83s2.59,5.87,5.8,5.87Z"/>
        <path class="cls-2" d="M110.35,568.9c3.06,0,5.54-2.48,5.54-5.59s-2.48-5.55-5.54-5.55c-3.04,0-5.52,2.5-5.52,5.55,0,3.1,2.48,5.59,5.52,5.59Z"/>
        <path class="cls-2" d="M160.21,568.64c2.89,0,5.24-2.37,5.24-5.32s-2.35-5.27-5.24-5.27-5.26,2.37-5.26,5.27,2.35,5.32,5.26,5.32Z"/>
        <path class="cls-2" d="M210.06,568.49c2.84,0,5.11-2.29,5.11-5.17s-2.28-5.15-5.11-5.15-5.11,2.33-5.11,5.15,2.3,5.17,5.11,5.17Z"/>
        <path class="cls-2" d="M259.92,568.35c2.74,0,4.96-2.24,4.96-5.04,0-2.75-2.22-4.98-4.96-4.98s-4.98,2.24-4.98,4.98,2.24,5.04,4.98,5.04Z"/>
        <path class="cls-2" d="M309.76,568.35c2.76,0,4.98-2.24,4.98-5.04s-2.22-4.98-4.98-4.98-4.96,2.24-4.96,4.98,2.22,5.04,4.96,5.04Z"/>
        <path class="cls-2" d="M359.63,568.22c2.67,0,4.83-2.2,4.83-4.91s-2.16-4.85-4.83-4.85-4.84,2.18-4.84,4.85,2.16,4.91,4.84,4.91Z"/>
        <path class="cls-2" d="M409.47,568.05c2.61,0,4.7-2.12,4.7-4.74s-2.09-4.74-4.7-4.74-4.68,2.12-4.68,4.74,2.09,4.74,4.68,4.74Z"/>
        <path class="cls-2" d="M509.18,567.66c2.37,0,4.29-1.94,4.29-4.34s-1.92-4.31-4.29-4.31-4.27,1.94-4.27,4.31,1.92,4.34,4.27,4.34Z"/>
        <path class="cls-2" d="M559.05,567.51c2.3,0,4.14-1.86,4.14-4.19s-1.85-4.16-4.14-4.16-4.14,1.86-4.14,4.16,1.85,4.19,4.14,4.19Z"/>
        <path class="cls-2" d="M608.91,567.09c2.05,0,3.73-1.67,3.73-3.78,0-2.05-1.68-3.74-3.73-3.74s-3.73,1.69-3.73,3.74,1.66,3.78,3.73,3.78Z"/>
        <path class="cls-2" d="M658.76,566.94c1.98,0,3.6-1.6,3.6-3.63,0-1.97-1.62-3.59-3.6-3.59-1.98,0-3.6,1.62-3.6,3.59s1.62,3.63,3.6,3.63Z"/>
        <path class="cls-2" d="M708.62,566.68c1.83,0,3.3-1.5,3.3-3.37,0-1.82-1.47-3.33-3.3-3.33s-3.32,1.5-3.32,3.33,1.47,3.37,3.32,3.37Z"/>
        <path class="cls-2" d="M758.47,566.53c1.75,0,3.19-1.43,3.19-3.22s-1.44-3.18-3.19-3.18-3.17,1.43-3.17,3.18c0,1.79,1.42,3.22,3.17,3.22Z"/>
        <path class="cls-2" d="M808.33,566.27c1.61,0,2.89-1.32,2.89-2.95,0-1.6-1.28-2.9-2.89-2.9s-2.91,1.3-2.91,2.9c0,1.64,1.31,2.95,2.91,2.95Z"/>
        <path class="cls-2" d="M858.17,565.98c1.46,0,2.63-1.18,2.63-2.67,0-1.45-1.18-2.63-2.63-2.63s-2.63,1.18-2.63,2.63,1.18,2.67,2.63,2.67Z"/>
        <path class="cls-2" d="M908.04,565.85c1.37,0,2.49-1.13,2.49-2.54,0-1.35-1.12-2.48-2.49-2.48s-2.5,1.13-2.5,2.48,1.12,2.54,2.5,2.54Z"/>
        <path class="cls-2" d="M957.88,565.57c1.23,0,2.22-1,2.22-2.26,0-1.2-.99-2.2-2.22-2.2s-2.2,1-2.2,2.2c0,1.26.99,2.26,2.2,2.26Z"/>
        <path class="cls-2" d="M1007.75,565.29c1.06,0,1.94-.87,1.94-1.97,0-1.05-.88-1.92-1.94-1.92s-1.94.87-1.94,1.92c0,1.11.88,1.97,1.94,1.97Z"/>
        <path class="cls-2" d="M1057.59,565.16c1.01,0,1.81-.83,1.81-1.84,0-.98-.8-1.79-1.81-1.79s-1.79.81-1.79,1.79c0,1.02.8,1.84,1.79,1.84Z"/>
        <path class="cls-2" d="M10.64,619.28c3.14,0,5.67-2.54,5.67-5.7,0-3.16-2.54-5.72-5.67-5.72-3.14,0-5.67,2.56-5.67,5.72s2.54,5.7,5.67,5.7Z"/>
        <path class="cls-2" d="M60.5,619.01c2.97,0,5.4-2.44,5.4-5.43s-2.43-5.45-5.4-5.45-5.39,2.44-5.39,5.45,2.41,5.43,5.39,5.43Z"/>
        <path class="cls-2" d="M110.35,618.86c2.91,0,5.26-2.37,5.26-5.28s-2.35-5.3-5.26-5.3c-2.89,0-5.24,2.37-5.24,5.3s2.35,5.28,5.24,5.28Z"/>
        <path class="cls-2" d="M160.21,618.58c2.74,0,4.97-2.26,4.97-5,0-2.78-2.22-5.02-4.97-5.02s-4.98,2.24-4.98,5.02,2.22,5,4.98,5Z"/>
        <path class="cls-2" d="M210.06,618.45c2.67,0,4.85-2.2,4.85-4.87s-2.18-4.89-4.85-4.89-4.83,2.2-4.83,4.89,2.16,4.87,4.83,4.87Z"/>
        <ellipse class="cls-2" cx="259.92" cy="613.58" rx="4.7" ry="4.74"/>
        <path class="cls-2" d="M309.76,618.17c2.52,0,4.57-2.05,4.57-4.59s-2.05-4.61-4.57-4.61-4.55,2.07-4.55,4.61,2.03,4.59,4.55,4.59Z"/>
        <path class="cls-2" d="M359.63,618.17c2.52,0,4.55-2.05,4.55-4.59s-2.03-4.61-4.55-4.61-4.58,2.07-4.58,4.61,2.05,4.59,4.58,4.59Z"/>
        <path class="cls-2" d="M409.47,617.88c2.37,0,4.29-1.92,4.29-4.31s-1.92-4.33-4.29-4.33c-2.35,0-4.27,1.92-4.27,4.33s1.92,4.31,4.27,4.31Z"/>
        <path class="cls-2" d="M459.34,617.75c2.3,0,4.14-1.88,4.14-4.17s-1.85-4.17-4.14-4.17-4.14,1.86-4.14,4.17,1.85,4.17,4.14,4.17Z"/>
        <path class="cls-2" d="M509.18,617.47c2.15,0,3.88-1.75,3.88-3.89s-1.74-3.93-3.88-3.93-3.86,1.77-3.86,3.93,1.74,3.89,3.86,3.89Z"/>
        <path class="cls-2" d="M559.05,617.17c1.98,0,3.6-1.6,3.6-3.59s-1.62-3.63-3.6-3.63-3.6,1.62-3.6,3.63,1.63,3.59,3.6,3.59Z"/>
        <path class="cls-2" d="M608.91,617.06c1.91,0,3.45-1.56,3.45-3.48s-1.55-3.48-3.45-3.48-3.47,1.54-3.47,3.48,1.55,3.48,3.47,3.48Z"/>
        <path class="cls-2" d="M658.76,616.93c1.83,0,3.32-1.52,3.32-3.35s-1.49-3.35-3.32-3.35-3.32,1.5-3.32,3.35,1.49,3.35,3.32,3.35Z"/>
        <path class="cls-2" d="M708.62,616.64c1.68,0,3.04-1.37,3.04-3.07s-1.36-3.08-3.04-3.08-3.04,1.39-3.04,3.08,1.36,3.07,3.04,3.07Z"/>
        <path class="cls-2" d="M758.47,616.49c1.6,0,2.91-1.3,2.91-2.91s-1.31-2.93-2.91-2.93-2.89,1.32-2.89,2.93,1.29,2.91,2.89,2.91Z"/>
        <path class="cls-2" d="M808.33,616.23c1.44,0,2.61-1.2,2.61-2.65,0-1.47-1.18-2.65-2.61-2.65s-2.63,1.18-2.63,2.65c0,1.45,1.18,2.65,2.63,2.65Z"/>
        <path class="cls-2" d="M858.17,616.08c1.38,0,2.5-1.13,2.5-2.5,0-1.39-1.12-2.52-2.5-2.52s-2.48,1.13-2.48,2.52,1.12,2.5,2.48,2.5Z"/>
        <path class="cls-2" d="M908.04,615.8c1.21,0,2.2-1,2.2-2.22,0-1.24-.99-2.24-2.2-2.24s-2.22,1-2.22,2.24c0,1.22.99,2.22,2.22,2.22Z"/>
        <path class="cls-2" d="M957.88,615.65c1.16,0,2.07-.92,2.07-2.07,0-1.17-.91-2.09-2.07-2.09s-2.07.92-2.07,2.09.93,2.07,2.07,2.07Z"/>
        <path class="cls-2" d="M1007.75,615.38c.99,0,1.79-.83,1.79-1.81,0-1-.8-1.82-1.79-1.82s-1.79.83-1.79,1.82c0,.98.8,1.81,1.79,1.81Z"/>
        <path class="cls-2" d="M1057.59,615.23c.92,0,1.66-.73,1.66-1.65,0-.92-.75-1.67-1.66-1.67s-1.66.75-1.66,1.67c0,.92.75,1.65,1.66,1.65Z"/>
        <path class="cls-2" d="M10.64,668.96c2.82,0,5.11-2.31,5.11-5.15s-2.29-5.15-5.11-5.15-5.11,2.31-5.11,5.15,2.3,5.15,5.11,5.15Z"/>
        <path class="cls-2" d="M60.5,668.83c2.74,0,4.96-2.24,4.96-5.02s-2.22-5-4.96-5-4.98,2.24-4.98,5,2.22,5.02,4.98,5.02Z"/>
        <path class="cls-2" d="M110.35,668.7c2.67,0,4.83-2.22,4.83-4.89s-2.16-4.87-4.83-4.87-4.83,2.18-4.83,4.87,2.16,4.89,4.83,4.89Z"/>
        <path class="cls-2" d="M160.21,668.41c2.52,0,4.55-2.07,4.55-4.61s-2.03-4.61-4.55-4.61-4.57,2.07-4.57,4.61,2.05,4.61,4.57,4.61Z"/>
        <path class="cls-2" d="M210.06,668.41c2.52,0,4.58-2.07,4.58-4.61s-2.05-4.61-4.58-4.61-4.55,2.07-4.55,4.61,2.04,4.61,4.55,4.61Z"/>
        <path class="cls-2" d="M259.92,668.24c2.44,0,4.42-1.97,4.42-4.44s-1.98-4.46-4.42-4.46-4.42,1.99-4.42,4.46,1.98,4.44,4.42,4.44Z"/>
        <path class="cls-2" d="M309.76,668.13c2.37,0,4.29-1.94,4.29-4.33s-1.92-4.31-4.29-4.31-4.27,1.9-4.27,4.31,1.9,4.33,4.27,4.33Z"/>
        <path class="cls-2" d="M359.63,668c2.29,0,4.14-1.88,4.14-4.19s-1.85-4.19-4.14-4.19-4.15,1.9-4.15,4.19c0,2.31,1.85,4.19,4.15,4.19Z"/>
        <path class="cls-2" d="M409.47,667.72c2.15,0,3.88-1.75,3.88-3.91s-1.74-3.89-3.88-3.89-3.86,1.73-3.86,3.89,1.74,3.91,3.86,3.91Z"/>
        <path class="cls-2" d="M459.34,667.57c2.05,0,3.73-1.69,3.73-3.76s-1.68-3.76-3.73-3.76-3.73,1.69-3.73,3.76,1.66,3.76,3.73,3.76Z"/>
        <path class="cls-2" d="M509.18,667.28c1.92,0,3.47-1.54,3.47-3.48s-1.55-3.48-3.47-3.48-3.45,1.56-3.45,3.48,1.55,3.48,3.45,3.48Z"/>
        <path class="cls-2" d="M559.05,667.15c1.83,0,3.32-1.52,3.32-3.35s-1.49-3.33-3.32-3.33-3.32,1.49-3.32,3.33,1.49,3.35,3.32,3.35Z"/>
        <path class="cls-2" d="M608.91,667.02c1.75,0,3.17-1.45,3.17-3.22s-1.42-3.2-3.17-3.2-3.19,1.43-3.19,3.2,1.42,3.22,3.19,3.22Z"/>
        <path class="cls-2" d="M658.76,666.87c1.68,0,3.04-1.37,3.04-3.07,0-1.69-1.36-3.08-3.04-3.08s-3.04,1.39-3.04,3.08,1.36,3.07,3.04,3.07Z"/>
        <path class="cls-2" d="M708.62,666.59c1.51,0,2.76-1.24,2.76-2.78,0-1.56-1.25-2.78-2.76-2.78s-2.78,1.22-2.78,2.78c0,1.54,1.25,2.78,2.78,2.78Z"/>
        <path class="cls-2" d="M758.47,666.46c1.46,0,2.63-1.18,2.63-2.65,0-1.45-1.17-2.63-2.63-2.63s-2.63,1.18-2.63,2.63c0,1.47,1.18,2.65,2.63,2.65Z"/>
        <path class="cls-2" d="M808.33,666.18c1.29,0,2.35-1.05,2.35-2.37s-1.07-2.37-2.35-2.37-2.35,1.07-2.35,2.37c0,1.32,1.05,2.37,2.35,2.37Z"/>
        <path class="cls-2" d="M858.17,666.04c1.23,0,2.22-1.02,2.22-2.24,0-1.22-.99-2.24-2.22-2.24s-2.2,1.02-2.2,2.24c0,1.22.99,2.24,2.2,2.24Z"/>
        <path class="cls-2" d="M908.04,665.87c1.14,0,2.07-.92,2.07-2.07,0-1.15-.93-2.09-2.07-2.09s-2.07.94-2.07,2.09c0,1.15.91,2.07,2.07,2.07Z"/>
        <path class="cls-2" d="M957.88,665.76c1.08,0,1.94-.87,1.94-1.96s-.86-1.94-1.94-1.94-1.92.87-1.92,1.94.86,1.96,1.92,1.96Z"/>
        <path class="cls-2" d="M1007.75,665.46c.91,0,1.66-.73,1.66-1.65,0-.92-.75-1.67-1.66-1.67s-1.66.75-1.66,1.67.75,1.65,1.66,1.65Z"/>
        <path class="cls-2" d="M1057.59,665.35c.84,0,1.53-.7,1.53-1.54,0-.85-.69-1.52-1.53-1.52s-1.51.68-1.51,1.52c0,.85.67,1.54,1.51,1.54Z"/>
        <ellipse class="cls-2" cx="10.64" cy="714.05" rx="4.7" ry="4.74"/>
        <path class="cls-2" d="M60.5,718.64c2.52,0,4.55-2.05,4.55-4.59,0-2.54-2.03-4.63-4.55-4.63s-4.57,2.09-4.57,4.63,2.05,4.59,4.57,4.59Z"/>
        <path class="cls-2" d="M110.35,718.51c2.44,0,4.42-1.99,4.42-4.46s-1.98-4.46-4.42-4.46-4.42,1.99-4.42,4.46,1.98,4.46,4.42,4.46Z"/>
        <path class="cls-2" d="M160.21,718.36c2.37,0,4.27-1.92,4.27-4.31s-1.9-4.33-4.27-4.33-4.29,1.94-4.29,4.33,1.92,4.31,4.29,4.31Z"/>
        <path class="cls-2" d="M210.06,718.23c2.3,0,4.14-1.86,4.14-4.17s-1.85-4.17-4.14-4.17-4.14,1.86-4.14,4.17,1.87,4.17,4.14,4.17Z"/>
        <path class="cls-2" d="M259.92,718.1c2.2,0,4.01-1.82,4.01-4.04,0-2.26-1.81-4.04-4.01-4.04s-4.01,1.79-4.01,4.04,1.79,4.04,4.01,4.04Z"/>
        <path class="cls-2" d="M309.76,717.94c2.15,0,3.88-1.75,3.88-3.89,0-2.18-1.74-3.91-3.88-3.91s-3.86,1.73-3.86,3.91,1.74,3.89,3.86,3.89Z"/>
        <path class="cls-2" d="M359.63,717.66c1.98,0,3.58-1.62,3.58-3.61s-1.6-3.63-3.58-3.63-3.6,1.62-3.6,3.63,1.6,3.61,3.6,3.61Z"/>
        <path class="cls-2" d="M409.47,717.53c1.92,0,3.47-1.56,3.47-3.48,0-1.92-1.55-3.48-3.47-3.48s-3.45,1.56-3.45,3.48,1.55,3.48,3.45,3.48Z"/>
        <path class="cls-2" d="M459.34,717.4c1.83,0,3.32-1.5,3.32-3.35s-1.49-3.37-3.32-3.37-3.32,1.52-3.32,3.37,1.49,3.35,3.32,3.35Z"/>
        <path class="cls-2" d="M509.18,717.25c1.77,0,3.19-1.43,3.19-3.2s-1.42-3.22-3.19-3.22-3.17,1.45-3.17,3.22,1.42,3.2,3.17,3.2Z"/>
        <ellipse class="cls-2" cx="559.05" cy="714.05" rx="3.04" ry="3.07"/>
        <path class="cls-2" d="M608.91,716.95c1.59,0,2.89-1.28,2.89-2.9s-1.31-2.93-2.89-2.93-2.91,1.32-2.91,2.93,1.31,2.9,2.91,2.9Z"/>
        <path class="cls-2" d="M658.76,716.84c1.53,0,2.76-1.24,2.76-2.78s-1.23-2.78-2.76-2.78-2.76,1.24-2.76,2.78,1.23,2.78,2.76,2.78Z"/>
        <path class="cls-2" d="M708.62,716.55c1.36,0,2.48-1.13,2.48-2.5s-1.12-2.52-2.48-2.52-2.5,1.11-2.5,2.52c0,1.37,1.12,2.5,2.5,2.5Z"/>
        <path class="cls-2" d="M758.47,716.42c1.31,0,2.35-1.07,2.35-2.37s-1.05-2.37-2.35-2.37-2.35,1.03-2.35,2.37,1.06,2.37,2.35,2.37Z"/>
        <path class="cls-2" d="M808.33,716.27c1.21,0,2.2-1.02,2.2-2.22,0-1.24-.99-2.26-2.2-2.26s-2.22,1.02-2.22,2.26c0,1.2.99,2.22,2.22,2.22Z"/>
        <path class="cls-2" d="M858.17,716.14c1.16,0,2.07-.94,2.07-2.09,0-1.17-.91-2.09-2.07-2.09s-2.07.92-2.07,2.09c0,1.15.93,2.09,2.07,2.09Z"/>
        <path class="cls-2" d="M908.04,716.01c1.06,0,1.93-.88,1.93-1.96s-.86-1.96-1.93-1.96-1.94.88-1.94,1.96c0,1.07.86,1.96,1.94,1.96Z"/>
        <ellipse class="cls-2" cx="957.88" cy="714.05" rx="1.66" ry="1.67"/>
        <path class="cls-2" d="M1007.75,715.58c.84,0,1.51-.68,1.51-1.52,0-.85-.67-1.54-1.51-1.54s-1.53.7-1.53,1.54c0,.85.69,1.52,1.53,1.52Z"/>
        <path class="cls-2" d="M1057.59,715.42c.77,0,1.38-.6,1.38-1.37s-.62-1.41-1.38-1.41-1.38.64-1.38,1.41c0,.77.62,1.37,1.38,1.37Z"/>
        <path class="cls-2" d="M10.64,768.47c2.3,0,4.14-1.88,4.14-4.19s-1.85-4.17-4.14-4.17-4.14,1.88-4.14,4.17,1.85,4.19,4.14,4.19Z"/>
        <path class="cls-2" d="M60.5,768.32c2.2,0,3.99-1.82,3.99-4.04s-1.79-4.04-3.99-4.04c-2.22,0-4.01,1.82-4.01,4.04s1.79,4.04,4.01,4.04Z"/>
        <path class="cls-2" d="M110.35,768.19c2.15,0,3.88-1.75,3.88-3.91s-1.74-3.89-3.88-3.89-3.86,1.75-3.86,3.89,1.74,3.91,3.86,3.91Z"/>
        <path class="cls-2" d="M160.21,767.91c1.98,0,3.58-1.62,3.58-3.63s-1.6-3.61-3.58-3.61-3.6,1.6-3.6,3.61c0,2.01,1.6,3.63,3.6,3.63Z"/>
        <path class="cls-2" d="M210.06,767.91c2,0,3.6-1.62,3.6-3.63s-1.6-3.61-3.6-3.61-3.58,1.6-3.58,3.61,1.6,3.63,3.58,3.63Z"/>
        <path class="cls-2" d="M259.92,767.76c1.9,0,3.45-1.54,3.45-3.48s-1.55-3.48-3.45-3.48-3.45,1.56-3.45,3.48,1.55,3.48,3.45,3.48Z"/>
        <path class="cls-2" d="M309.76,767.63c1.85,0,3.32-1.49,3.32-3.35s-1.47-3.33-3.32-3.33-3.3,1.49-3.3,3.33c0,1.86,1.48,3.35,3.3,3.35Z"/>
        <path class="cls-2" d="M359.63,767.5c1.75,0,3.17-1.45,3.17-3.22s-1.42-3.2-3.17-3.2-3.19,1.43-3.19,3.2,1.44,3.22,3.19,3.22Z"/>
        <ellipse class="cls-2" cx="409.47" cy="764.28" rx="3.04" ry="3.07"/>
        <path class="cls-2" d="M459.34,767.34c1.68,0,3.04-1.37,3.04-3.07s-1.36-3.07-3.04-3.07-3.04,1.37-3.04,3.07,1.36,3.07,3.04,3.07Z"/>
        <path class="cls-2" d="M509.18,767.21c1.61,0,2.91-1.32,2.91-2.93s-1.31-2.91-2.91-2.91-2.89,1.3-2.89,2.91c0,1.62,1.31,2.93,2.89,2.93Z"/>
        <path class="cls-2" d="M559.05,767.08c1.53,0,2.76-1.26,2.76-2.8,0-1.52-1.23-2.78-2.76-2.78s-2.76,1.26-2.76,2.78c0,1.54,1.23,2.8,2.76,2.8Z"/>
        <path class="cls-2" d="M608.91,766.93c1.44,0,2.61-1.2,2.61-2.65,0-1.45-1.18-2.63-2.61-2.63s-2.63,1.18-2.63,2.63c0,1.45,1.18,2.65,2.63,2.65Z"/>
        <path class="cls-2" d="M658.76,766.8c1.38,0,2.48-1.15,2.48-2.52,0-1.37-1.1-2.52-2.48-2.52s-2.48,1.15-2.48,2.52,1.1,2.52,2.48,2.52Z"/>
        <path class="cls-2" d="M708.62,766.65c1.29,0,2.35-1.05,2.35-2.37,0-1.3-1.06-2.37-2.35-2.37s-2.35,1.07-2.35,2.37c0,1.32,1.05,2.37,2.35,2.37Z"/>
        <path class="cls-2" d="M758.47,766.37c1.16,0,2.07-.92,2.07-2.09,0-1.17-.91-2.09-2.07-2.09s-2.07.92-2.07,2.09c0,1.17.93,2.09,2.07,2.09Z"/>
        <path class="cls-2" d="M808.33,766.24c1.06,0,1.92-.87,1.92-1.96,0-1.07-.86-1.94-1.92-1.94s-1.94.87-1.94,1.94.86,1.96,1.94,1.96Z"/>
        <path class="cls-2" d="M858.17,766.1c.99,0,1.81-.81,1.81-1.82,0-1-.82-1.81-1.81-1.81s-1.79.81-1.79,1.81c0,1.02.8,1.82,1.79,1.82Z"/>
        <ellipse class="cls-2" cx="908.04" cy="764.28" rx="1.66" ry="1.67"/>
        <path class="cls-2" d="M957.88,765.82c.84,0,1.53-.7,1.53-1.54,0-.85-.69-1.52-1.53-1.52s-1.51.68-1.51,1.52c0,.85.67,1.54,1.51,1.54Z"/>
        <path class="cls-2" d="M1007.75,765.65c.76,0,1.38-.6,1.38-1.37,0-.77-.62-1.39-1.38-1.39s-1.38.62-1.38,1.39.62,1.37,1.38,1.37Z"/>
        <path class="cls-2" d="M1057.59,765.39c.62,0,1.12-.49,1.12-1.11,0-.6-.5-1.11-1.12-1.11s-1.1.51-1.1,1.11c0,.62.5,1.11,1.1,1.11Z"/>
        <path class="cls-2" d="M10.64,817.99c1.9,0,3.45-1.54,3.45-3.46s-1.55-3.48-3.45-3.48-3.45,1.56-3.45,3.48,1.55,3.46,3.45,3.46Z"/>
        <path class="cls-2" d="M60.5,817.87c1.83,0,3.3-1.5,3.3-3.35s-1.47-3.35-3.3-3.35-3.32,1.49-3.32,3.35c0,1.84,1.47,3.35,3.32,3.35Z"/>
        <path class="cls-2" d="M110.35,817.72c1.75,0,3.19-1.43,3.19-3.2,0-1.79-1.44-3.22-3.19-3.22s-3.17,1.43-3.17,3.22,1.42,3.2,3.17,3.2Z"/>
        <path class="cls-2" d="M160.21,817.72c1.75,0,3.17-1.43,3.17-3.2s-1.42-3.22-3.17-3.22-3.19,1.43-3.19,3.22,1.44,3.2,3.19,3.2Z"/>
        <path class="cls-2" d="M210.06,817.72c1.75,0,3.19-1.43,3.19-3.2s-1.44-3.22-3.19-3.22-3.17,1.43-3.17,3.22,1.42,3.2,3.17,3.2Z"/>
        <path class="cls-2" d="M259.92,817.57c1.68,0,3.04-1.35,3.04-3.05s-1.37-3.07-3.04-3.07-3.04,1.37-3.04,3.07,1.36,3.05,3.04,3.05Z"/>
        <path class="cls-2" d="M309.76,817.44c1.6,0,2.91-1.32,2.91-2.91,0-1.62-1.31-2.93-2.91-2.93s-2.89,1.32-2.89,2.93,1.29,2.91,2.89,2.91Z"/>
        <path class="cls-2" d="M359.63,817.31c1.53,0,2.76-1.26,2.76-2.78s-1.23-2.78-2.76-2.78-2.76,1.24-2.76,2.78,1.23,2.78,2.76,2.78Z"/>
        <path class="cls-2" d="M409.47,817.18c1.46,0,2.63-1.18,2.63-2.65,0-1.47-1.18-2.65-2.63-2.65s-2.61,1.18-2.61,2.65,1.18,2.65,2.61,2.65Z"/>
        <ellipse class="cls-2" cx="459.34" cy="814.53" rx="2.63" ry="2.65"/>
        <path class="cls-2" d="M509.18,817.03c1.38,0,2.5-1.11,2.5-2.5,0-1.39-1.12-2.5-2.5-2.5s-2.48,1.11-2.48,2.5,1.12,2.5,2.48,2.5Z"/>
        <path class="cls-2" d="M559.05,816.9c1.31,0,2.35-1.07,2.35-2.37,0-1.32-1.05-2.37-2.35-2.37s-2.35,1.05-2.35,2.37,1.04,2.37,2.35,2.37Z"/>
        <path class="cls-2" d="M608.91,816.73c1.21,0,2.2-.98,2.2-2.2s-.99-2.24-2.2-2.24-2.22,1-2.22,2.24.99,2.2,2.22,2.2Z"/>
        <path class="cls-2" d="M658.76,816.61c1.14,0,2.07-.94,2.07-2.09,0-1.15-.93-2.09-2.07-2.09s-2.07.94-2.07,2.09c0,1.15.93,2.09,2.07,2.09Z"/>
        <path class="cls-2" d="M708.62,816.46c1.06,0,1.92-.87,1.92-1.94,0-1.07-.86-1.96-1.92-1.96s-1.94.88-1.94,1.96c0,1.07.86,1.94,1.94,1.94Z"/>
        <path class="cls-2" d="M758.47,816.33c.99,0,1.79-.81,1.79-1.81,0-1.02-.8-1.81-1.79-1.81s-1.79.79-1.79,1.81c0,1,.8,1.81,1.79,1.81Z"/>
        <path class="cls-2" d="M808.33,816.33c.99,0,1.79-.81,1.79-1.81s-.81-1.81-1.79-1.81-1.81.79-1.81,1.81c0,1,.82,1.81,1.81,1.81Z"/>
        <path class="cls-2" d="M858.17,816.2c.91,0,1.66-.75,1.66-1.67,0-.92-.75-1.69-1.66-1.69s-1.66.77-1.66,1.69c0,.92.75,1.67,1.66,1.67Z"/>
        <path class="cls-2" d="M908.04,816.05c.84,0,1.51-.68,1.51-1.52,0-.85-.67-1.54-1.51-1.54s-1.53.7-1.53,1.54c0,.85.69,1.52,1.53,1.52Z"/>
        <path class="cls-2" d="M957.88,815.92c.77,0,1.38-.62,1.38-1.39,0-.77-.62-1.39-1.38-1.39s-1.38.62-1.38,1.39c0,.77.62,1.39,1.38,1.39Z"/>
        <path class="cls-2" d="M1007.75,815.62c.61,0,1.1-.47,1.1-1.09s-.49-1.11-1.1-1.11-1.1.49-1.1,1.11c0,.62.49,1.09,1.1,1.09Z"/>
        <path class="cls-2" d="M1057.59,815.5c.54,0,.97-.43.97-.98s-.43-.98-.97-.98-.95.43-.95.98c0,.55.43.98.95.98Z"/>
        <path class="cls-2" d="M10.64,867.69c1.6,0,2.91-1.34,2.91-2.93,0-1.62-1.31-2.91-2.91-2.91-1.6,0-2.89,1.3-2.89,2.91s1.29,2.93,2.89,2.93Z"/>
        <path class="cls-2" d="M60.5,867.54c1.51,0,2.76-1.26,2.76-2.78s-1.25-2.78-2.76-2.78-2.78,1.26-2.78,2.78c0,1.52,1.25,2.78,2.78,2.78Z"/>
        <path class="cls-2" d="M110.35,867.54c1.53,0,2.76-1.26,2.76-2.78s-1.23-2.78-2.76-2.78c-1.53,0-2.76,1.26-2.76,2.78s1.23,2.78,2.76,2.78Z"/>
        <path class="cls-2" d="M160.21,867.54c1.53,0,2.76-1.26,2.76-2.78,0-1.52-1.23-2.78-2.76-2.78s-2.76,1.26-2.76,2.78c0,1.52,1.23,2.78,2.76,2.78Z"/>
        <path class="cls-2" d="M210.06,867.4c1.46,0,2.63-1.18,2.63-2.65s-1.18-2.63-2.63-2.63-2.61,1.18-2.61,2.63c0,1.47,1.18,2.65,2.61,2.65Z"/>
        <path class="cls-2" d="M259.92,867.4c1.46,0,2.63-1.18,2.63-2.65s-1.18-2.63-2.63-2.63-2.63,1.18-2.63,2.63c0,1.47,1.18,2.65,2.63,2.65Z"/>
        <path class="cls-2" d="M309.76,867.27c1.38,0,2.5-1.13,2.5-2.52s-1.12-2.5-2.5-2.5-2.48,1.13-2.48,2.5c0,1.39,1.12,2.52,2.48,2.52Z"/>
        <path class="cls-2" d="M359.63,867.12c1.28,0,2.35-1.05,2.35-2.37s-1.06-2.37-2.35-2.37-2.35,1.07-2.35,2.37,1.05,2.37,2.35,2.37Z"/>
        <path class="cls-2" d="M409.47,867.12c1.31,0,2.35-1.05,2.35-2.37s-1.04-2.37-2.35-2.37-2.35,1.07-2.35,2.37,1.06,2.37,2.35,2.37Z"/>
        <path class="cls-2" d="M459.34,866.99c1.21,0,2.2-1,2.2-2.24,0-1.22-.99-2.22-2.2-2.22-1.23,0-2.22,1-2.22,2.22s.99,2.24,2.22,2.24Z"/>
        <path class="cls-2" d="M509.18,866.86c1.16,0,2.09-.94,2.09-2.11s-.93-2.09-2.09-2.09-2.07.94-2.07,2.09c0,1.17.93,2.11,2.07,2.11Z"/>
        <path class="cls-2" d="M559.05,866.86c1.14,0,2.07-.94,2.07-2.11s-.93-2.09-2.07-2.09-2.07.94-2.07,2.09c0,1.17.93,2.11,2.07,2.11Z"/>
        <path class="cls-2" d="M608.91,866.69c1.06,0,1.92-.85,1.92-1.94,0-1.07-.86-1.96-1.92-1.96s-1.94.88-1.94,1.96c0,1.09.86,1.94,1.94,1.94Z"/>
        <path class="cls-2" d="M658.76,866.58c.99,0,1.79-.81,1.79-1.82s-.8-1.81-1.79-1.81-1.79.79-1.79,1.81c0,1.02.8,1.82,1.79,1.82Z"/>
        <path class="cls-2" d="M708.62,866.43c.92,0,1.66-.75,1.66-1.67s-.75-1.65-1.66-1.65-1.66.71-1.66,1.65.75,1.67,1.66,1.67Z"/>
        <path class="cls-2" d="M758.47,866.43c.91,0,1.66-.75,1.66-1.67s-.75-1.65-1.66-1.65-1.66.71-1.66,1.65c0,.92.75,1.67,1.66,1.67Z"/>
        <path class="cls-2" d="M808.33,866.28c.84,0,1.51-.68,1.51-1.52,0-.85-.67-1.52-1.51-1.52s-1.53.68-1.53,1.52c0,.85.69,1.52,1.53,1.52Z"/>
        <path class="cls-2" d="M858.17,866.16c.77,0,1.38-.66,1.38-1.41,0-.77-.62-1.39-1.38-1.39s-1.38.62-1.38,1.39c0,.75.62,1.41,1.38,1.41Z"/>
        <path class="cls-2" d="M908.04,866.01c.69,0,1.23-.58,1.23-1.26s-.54-1.24-1.23-1.24-1.25.56-1.25,1.24c0,.68.56,1.26,1.25,1.26Z"/>
        <path class="cls-2" d="M957.88,865.88c.62,0,1.12-.51,1.12-1.13,0-.6-.5-1.11-1.12-1.11s-1.1.51-1.1,1.11.5,1.13,1.1,1.13Z"/>
        <path class="cls-2" d="M1007.75,865.73c.52,0,.97-.43.97-.98,0-.53-.45-.96-.97-.96s-.97.43-.97.96c0,.55.43.98.97.98Z"/>
        <path class="cls-2" d="M1057.59,865.6c.47,0,.84-.38.84-.85,0-.45-.37-.85-.84-.85s-.82.39-.82.85c0,.47.37.85.82.85Z"/>
        <path class="cls-2" d="M10.64,917.37c1.31,0,2.35-1.05,2.35-2.37s-1.05-2.39-2.35-2.39-2.35,1.07-2.35,2.39c0,1.32,1.07,2.37,2.35,2.37Z"/>
        <path class="cls-2" d="M60.5,917.37c1.29,0,2.35-1.05,2.35-2.37,0-1.32-1.06-2.39-2.35-2.39-1.31,0-2.35,1.07-2.35,2.39s1.05,2.37,2.35,2.37Z"/>
        <path class="cls-2" d="M110.35,917.37c1.31,0,2.35-1.05,2.35-2.37s-1.05-2.39-2.35-2.39-2.35,1.07-2.35,2.39,1.06,2.37,2.35,2.37Z"/>
        <path class="cls-2" d="M160.21,917.24c1.21,0,2.2-1.02,2.2-2.24s-.99-2.24-2.2-2.24c-1.23,0-2.22,1.02-2.22,2.24s.99,2.24,2.22,2.24Z"/>
        <path class="cls-2" d="M210.06,917.24c1.23,0,2.22-1.02,2.22-2.24s-.99-2.24-2.22-2.24-2.2,1.02-2.2,2.24.99,2.24,2.2,2.24Z"/>
        <path class="cls-2" d="M259.92,917.09c1.14,0,2.07-.94,2.07-2.09,0-1.15-.93-2.09-2.07-2.09-1.16,0-2.07.94-2.07,2.09,0,1.15.91,2.09,2.07,2.09Z"/>
        <path class="cls-2" d="M309.76,917.09c1.16,0,2.07-.94,2.07-2.09s-.91-2.09-2.07-2.09-2.07.94-2.07,2.09c0,1.15.93,2.09,2.07,2.09Z"/>
        <path class="cls-2" d="M359.63,916.95c1.06,0,1.94-.88,1.94-1.96,0-1.07-.88-1.97-1.94-1.97s-1.94.9-1.94,1.97.88,1.96,1.94,1.96Z"/>
        <path class="cls-2" d="M409.47,916.95c1.08,0,1.94-.88,1.94-1.96s-.86-1.97-1.94-1.97-1.92.9-1.92,1.97.86,1.96,1.92,1.96Z"/>
        <path class="cls-2" d="M459.34,916.8c.99,0,1.79-.81,1.79-1.81,0-1-.8-1.81-1.79-1.81s-1.79.81-1.79,1.81.81,1.81,1.79,1.81Z"/>
        <path class="cls-2" d="M509.18,916.8c1.01,0,1.81-.81,1.81-1.81s-.8-1.81-1.81-1.81-1.79.81-1.79,1.81c0,1,.8,1.81,1.79,1.81Z"/>
        <path class="cls-2" d="M559.05,916.67c.91,0,1.66-.77,1.66-1.67s-.75-1.67-1.66-1.67-1.66.75-1.66,1.67.75,1.67,1.66,1.67Z"/>
        <path class="cls-2" d="M608.91,916.52c.84,0,1.51-.68,1.51-1.52,0-.85-.67-1.54-1.51-1.54s-1.53.7-1.53,1.54c0,.85.69,1.52,1.53,1.52Z"/>
        <path class="cls-2" d="M658.76,916.52c.84,0,1.53-.68,1.53-1.52,0-.85-.69-1.54-1.53-1.54s-1.51.7-1.51,1.54c0,.85.67,1.52,1.51,1.52Z"/>
        <path class="cls-2" d="M708.62,916.39c.77,0,1.38-.62,1.38-1.39s-.62-1.39-1.38-1.39-1.38.6-1.38,1.39c0,.77.62,1.39,1.38,1.39Z"/>
        <path class="cls-2" d="M758.47,916.24c.69,0,1.25-.55,1.25-1.24s-.56-1.26-1.25-1.26-1.25.56-1.25,1.26.56,1.24,1.25,1.24Z"/>
        <path class="cls-2" d="M808.33,916.11c.6,0,1.1-.49,1.1-1.11,0-.62-.5-1.13-1.1-1.13s-1.12.51-1.12,1.13c0,.62.5,1.11,1.12,1.11Z"/>
        <path class="cls-2" d="M858.17,916.11c.62,0,1.1-.49,1.1-1.11,0-.62-.49-1.13-1.1-1.13s-1.1.51-1.1,1.13c0,.62.49,1.11,1.1,1.11Z"/>
        <path class="cls-2" d="M908.04,915.98c.52,0,.97-.43.97-.98s-.45-.98-.97-.98-.97.43-.97.98c0,.55.43.98.97.98Z"/>
        <path class="cls-2" d="M957.88,915.98c.54,0,.97-.43.97-.98,0-.55-.43-.98-.97-.98s-.97.43-.97.98.45.98.97.98Z"/>
        <path class="cls-2" d="M1007.75,915.83c.44,0,.82-.36.82-.83,0-.47-.37-.83-.82-.83-.47,0-.84.36-.84.83,0,.47.37.83.84.83Z"/>
        <path class="cls-2" d="M1057.59,915.7c.39,0,.69-.32.69-.7,0-.38-.3-.7-.69-.7s-.69.32-.69.7c0,.38.32.7.69.7Z"/>
        <path class="cls-2" d="M10.64,967.18c1.06,0,1.94-.88,1.94-1.94s-.88-1.96-1.94-1.96-1.94.87-1.94,1.96.88,1.94,1.94,1.94Z"/>
        <path class="cls-2" d="M60.5,967.18c1.06,0,1.92-.88,1.92-1.94s-.86-1.96-1.92-1.96c-1.08,0-1.94.87-1.94,1.96s.86,1.94,1.94,1.94Z"/>
        <path class="cls-2" d="M110.35,967.05c.99,0,1.79-.81,1.79-1.81s-.8-1.82-1.79-1.82-1.79.81-1.79,1.82.8,1.81,1.79,1.81Z"/>
        <path class="cls-2" d="M160.21,967.05c.99,0,1.79-.81,1.79-1.81s-.81-1.82-1.79-1.82-1.81.81-1.81,1.82c0,1,.82,1.81,1.81,1.81Z"/>
        <path class="cls-2" d="M210.06,967.05c.99,0,1.81-.81,1.81-1.81s-.82-1.82-1.81-1.82-1.79.81-1.79,1.82.8,1.81,1.79,1.81Z"/>
        <path class="cls-2" d="M259.92,966.88c.91,0,1.66-.71,1.66-1.64,0-.94-.75-1.67-1.66-1.67s-1.66.73-1.66,1.67c0,.92.75,1.64,1.66,1.64Z"/>
        <path class="cls-2" d="M309.76,966.88c.91,0,1.66-.71,1.66-1.64,0-.94-.75-1.67-1.66-1.67s-1.66.73-1.66,1.67.75,1.64,1.66,1.64Z"/>
        <path class="cls-2" d="M359.63,966.77c.84,0,1.51-.68,1.51-1.52s-.67-1.54-1.51-1.54-1.53.7-1.53,1.54c0,.85.69,1.52,1.53,1.52Z"/>
        <path class="cls-2" d="M409.47,966.77c.84,0,1.53-.68,1.53-1.52s-.69-1.54-1.53-1.54-1.51.7-1.51,1.54.67,1.52,1.51,1.52Z"/>
        <path class="cls-2" d="M459.34,966.77c.84,0,1.51-.68,1.51-1.52s-.67-1.54-1.51-1.54-1.53.7-1.53,1.54c0,.85.69,1.52,1.53,1.52Z"/>
        <path class="cls-2" d="M509.18,966.64c.77,0,1.4-.64,1.4-1.39s-.63-1.41-1.4-1.41-1.38.64-1.38,1.41c0,.75.63,1.39,1.38,1.39Z"/>
        <path class="cls-2" d="M559.05,966.47c.69,0,1.25-.55,1.25-1.22s-.56-1.26-1.25-1.26-1.25.56-1.25,1.26.56,1.22,1.25,1.22Z"/>
        <path class="cls-2" d="M608.91,966.35c.6,0,1.1-.51,1.1-1.11,0-.64-.5-1.15-1.1-1.15s-1.12.51-1.12,1.15.5,1.11,1.12,1.11Z"/>
        <path class="cls-2" d="M658.76,966.35c.62,0,1.1-.51,1.1-1.11,0-.64-.49-1.15-1.1-1.15s-1.1.51-1.1,1.15.48,1.11,1.1,1.11Z"/>
        <path class="cls-2" d="M708.62,966.2c.52,0,.95-.43.95-.96,0-.55-.43-.98-.95-.98s-.97.43-.97.98c0,.53.43.96.97.96Z"/>
        <path class="cls-2" d="M758.47,966.2c.54,0,.97-.43.97-.96,0-.55-.43-.98-.97-.98s-.97.43-.97.98.44.96.97.96Z"/>
        <path class="cls-2" d="M808.33,966.07c.45,0,.82-.38.82-.83s-.37-.85-.82-.85-.84.38-.84.85c0,.45.37.83.84.83Z"/>
        <path class="cls-2" d="M858.17,966.07c.47,0,.84-.38.84-.83,0-.47-.37-.85-.84-.85s-.82.38-.82.85c0,.45.37.83.82.83Z"/>
        <path class="cls-2" d="M908.04,966.07c.45,0,.82-.38.82-.83,0-.47-.37-.85-.82-.85s-.84.38-.84.85c0,.45.37.83.84.83Z"/>
        <path class="cls-2" d="M957.88,965.94c.39,0,.69-.32.69-.7,0-.39-.3-.71-.69-.71s-.69.32-.69.71c0,.38.32.7.69.7Z"/>
        <path class="cls-2" d="M1007.75,965.79c.3,0,.54-.26.54-.55,0-.32-.24-.56-.54-.56-.32,0-.56.24-.56.56,0,.28.24.55.56.55Z"/>
        <path class="cls-2" d="M1057.59,965.79c.32,0,.56-.26.56-.55,0-.32-.24-.56-.56-.56-.3,0-.54.24-.54.56,0,.28.24.55.54.55Z"/>
        <path class="cls-2" d="M10.64,1017.01c.84,0,1.53-.7,1.53-1.54,0-.85-.69-1.52-1.53-1.52s-1.51.68-1.51,1.52.67,1.54,1.51,1.54Z"/>
        <path class="cls-2" d="M60.5,1016.86c.77,0,1.38-.62,1.38-1.39,0-.77-.62-1.39-1.38-1.39s-1.38.62-1.38,1.39c0,.77.62,1.39,1.38,1.39Z"/>
        <path class="cls-2" d="M110.35,1016.86c.77,0,1.38-.62,1.38-1.39,0-.77-.62-1.39-1.38-1.39s-1.38.62-1.38,1.39c0,.77.62,1.39,1.38,1.39Z"/>
        <path class="cls-2" d="M160.21,1016.73c.69,0,1.23-.56,1.23-1.26,0-.7-.54-1.26-1.23-1.26s-1.25.56-1.25,1.26.56,1.26,1.25,1.26Z"/>
        <path class="cls-2" d="M210.06,1016.73c.69,0,1.25-.56,1.25-1.26s-.56-1.26-1.25-1.26-1.23.56-1.23,1.26.54,1.26,1.23,1.26Z"/>
        <path class="cls-2" d="M259.92,1016.73c.69,0,1.23-.56,1.23-1.26,0-.7-.54-1.26-1.23-1.26s-1.25.56-1.25,1.26c0,.7.56,1.26,1.25,1.26Z"/>
        <path class="cls-2" d="M309.76,1016.73c.69,0,1.25-.56,1.25-1.26,0-.7-.56-1.26-1.25-1.26s-1.23.56-1.23,1.26c0,.7.56,1.26,1.23,1.26Z"/>
        <path class="cls-2" d="M359.63,1016.58c.61,0,1.1-.49,1.1-1.11,0-.64-.49-1.11-1.1-1.11s-1.1.47-1.1,1.11c0,.62.49,1.11,1.1,1.11Z"/>
        <path class="cls-2" d="M409.47,1016.58c.62,0,1.12-.49,1.12-1.11s-.5-1.11-1.12-1.11-1.1.47-1.1,1.11c0,.62.5,1.11,1.1,1.11Z"/>
        <path class="cls-2" d="M459.34,1016.58c.62,0,1.1-.49,1.1-1.11,0-.64-.49-1.11-1.1-1.11s-1.1.47-1.1,1.11c0,.62.49,1.11,1.1,1.11Z"/>
        <path class="cls-2" d="M509.18,1016.43c.54,0,.97-.41.97-.96s-.43-.98-.97-.98-.95.41-.95.98.43.96.95.96Z"/>
        <path class="cls-2" d="M559.05,1016.43c.54,0,.97-.41.97-.96,0-.56-.43-.98-.97-.98s-.97.41-.97.98c0,.55.43.96.97.96Z"/>
        <path class="cls-2" d="M608.91,1016.43c.52,0,.95-.41.95-.96,0-.56-.43-.98-.95-.98s-.97.41-.97.98c0,.55.43.96.97.96Z"/>
        <path class="cls-2" d="M658.76,1016.3c.47,0,.84-.38.84-.83,0-.47-.37-.83-.84-.83s-.82.36-.82.83.37.83.82.83Z"/>
        <path class="cls-2" d="M708.62,1016.3c.45,0,.82-.38.82-.83s-.37-.83-.82-.83-.84.36-.84.83c0,.45.37.83.84.83Z"/>
        <path class="cls-2" d="M758.47,1016.17c.39,0,.69-.32.69-.7,0-.38-.3-.7-.69-.7s-.69.32-.69.7c0,.38.32.7.69.7Z"/>
        <path class="cls-2" d="M808.33,1016.17c.37,0,.69-.32.69-.7s-.32-.7-.69-.7c-.39,0-.69.32-.69.7s.3.7.69.7Z"/>
        <path class="cls-2" d="M858.17,1016.17c.39,0,.69-.32.69-.7,0-.38-.3-.7-.69-.7s-.69.32-.69.7.32.7.69.7Z"/>
        <path class="cls-2" d="M908.04,1016.02c.3,0,.54-.26.54-.55,0-.3-.24-.56-.54-.56-.31,0-.56.26-.56.56,0,.28.25.55.56.55Z"/>
        <path class="cls-2" d="M957.88,1016.02c.32,0,.56-.26.56-.55,0-.3-.24-.56-.56-.56-.3,0-.54.26-.54.56,0,.28.24.55.54.55Z"/>
        <path class="cls-2" d="M1007.75,1016.02c.3,0,.54-.26.54-.55,0-.3-.24-.56-.54-.56-.32,0-.56.26-.56.56s.24.55.56.55Z"/>
        <path class="cls-2" d="M1057.59,1015.89c.24,0,.43-.21.43-.41,0-.23-.19-.41-.43-.41-.22,0-.41.19-.41.41,0,.21.19.41.41.41Z"/>
        <path class="cls-2" d="M10.64,1066.55c.47,0,.84-.39.84-.83s-.37-.85-.84-.85-.82.36-.82.85c0,.43.37.83.82.83Z"/>
        <path class="cls-2" d="M60.5,1066.55c.45,0,.82-.39.82-.83s-.37-.85-.82-.85-.84.36-.84.85c0,.43.37.83.84.83Z"/>
        <path class="cls-2" d="M110.35,1066.55c.47,0,.84-.39.84-.83,0-.49-.37-.85-.84-.85s-.82.36-.82.85.37.83.82.83Z"/>
        <path class="cls-2" d="M160.21,1066.55c.45,0,.82-.39.82-.83s-.37-.85-.82-.85-.84.36-.84.85.37.83.84.83Z"/>
        <path class="cls-2" d="M210.06,1066.55c.47,0,.84-.39.84-.83,0-.49-.37-.85-.84-.85s-.82.36-.82.85.37.83.82.83Z"/>
        <path class="cls-2" d="M259.92,1066.55c.45,0,.82-.39.82-.83,0-.49-.37-.85-.82-.85s-.84.36-.84.85.37.83.84.83Z"/>
        <path class="cls-2" d="M309.76,1066.41c.39,0,.69-.34.69-.7,0-.41-.3-.7-.69-.7s-.69.28-.69.7c0,.36.32.7.69.7Z"/>
        <path class="cls-2" d="M359.63,1066.41c.37,0,.69-.34.69-.7,0-.41-.31-.7-.69-.7-.39,0-.69.28-.69.7,0,.36.3.7.69.7Z"/>
        <path class="cls-2" d="M409.47,1066.41c.39,0,.69-.34.69-.7,0-.41-.3-.7-.69-.7s-.69.28-.69.7c0,.36.32.7.69.7Z"/>
        <path class="cls-2" d="M459.34,1066.55c.45,0,.82-.39.82-.83,0-.49-.37-.85-.82-.85s-.84.36-.84.85c0,.43.37.83.84.83Z"/>
        <path class="cls-2" d="M509.18,1066.55c.47,0,.84-.39.84-.83,0-.49-.37-.85-.84-.85s-.82.36-.82.85c0,.43.37.83.82.83Z"/>
        <path class="cls-2" d="M559.05,1066.41c.37,0,.69-.34.69-.7s-.32-.7-.69-.7-.69.28-.69.7c0,.36.32.7.69.7Z"/>
        <path class="cls-2" d="M608.91,1066.41c.37,0,.69-.34.69-.7s-.32-.7-.69-.7c-.39,0-.69.28-.69.7,0,.36.3.7.69.7Z"/>
        <path class="cls-2" d="M658.76,1066.41c.39,0,.69-.34.69-.7s-.3-.7-.69-.7c-.37,0-.69.28-.69.7,0,.36.32.7.69.7Z"/>
        <path class="cls-2" d="M708.62,1066.25c.3,0,.54-.23.54-.53s-.25-.58-.54-.58c-.32,0-.56.26-.56.58,0,.3.24.53.56.53Z"/>
        <path class="cls-2" d="M758.47,1066.25c.32,0,.56-.23.56-.53s-.24-.58-.56-.58c-.3,0-.54.26-.54.58,0,.3.24.53.54.53Z"/>
        <path class="cls-2" d="M808.33,1066.25c.3,0,.54-.23.54-.53s-.24-.58-.54-.58c-.32,0-.56.26-.56.58,0,.3.24.53.56.53Z"/>
        <path class="cls-2" d="M858.17,1066.25c.32,0,.56-.23.56-.53,0-.32-.24-.58-.56-.58-.3,0-.54.26-.54.58,0,.3.24.53.54.53Z"/>
        <path class="cls-2" d="M908.04,1066.25c.3,0,.54-.23.54-.53,0-.32-.24-.58-.54-.58-.31,0-.56.26-.56.58,0,.3.25.53.56.53Z"/>
        <path class="cls-2" d="M957.88,1066.13c.24,0,.43-.19.43-.41,0-.24-.19-.43-.43-.43-.22,0-.41.19-.41.43,0,.23.19.41.41.41Z"/>
        <path class="cls-2" d="M1007.75,1066.13c.22,0,.41-.19.41-.41,0-.24-.19-.43-.41-.43s-.41.19-.41.43c0,.23.19.41.41.41Z"/>
        <path class="cls-2" d="M1057.59,1065.98c.17,0,.28-.11.28-.26,0-.17-.11-.28-.28-.28,0,0-.26.11-.26.28,0,.15.11.26.26.26Z"/>
      </g>
      <g>
        <rect class="cls-4" x="137.14" y="138.78" width="805.71" height="648.13" rx="33.8" ry="33.8"/>
        <text class="cls-6" transform="translate(162.26 340.8)"><tspan x="0" y="0">Küçük Bir Hatırlatma:</tspan><tspan x="143.09" y="92.1">7 Nisan 18.00</tspan><tspan x="122.3" y="184.19">Ne</tspan><tspan class="cls-9" x="224.45" y="184.19">v</tspan><tspan x="264.88" y="184.19">ada C</tspan><tspan class="cls-9" x="464.06" y="184.19">o</tspan><tspan x="509.81" y="184.19">ffee</tspan><tspan x="53.87" y="276.29">Üni</tspan><tspan class="cls-7" x="177.61" y="276.29">v</tspan><tspan x="218.45" y="276.29">e</tspan><tspan class="cls-12" x="259.97" y="276.29">r</tspan><tspan x="290.97" y="276.29">si</tspan><tspan class="cls-10" x="346.54" y="276.29">t</tspan><tspan x="376.11" y="276.29">e Caddesi</tspan></text>
      </g>
      <g id="Logolar">
        <g id="LogoVeYazı">
          <g id="Yazı">
            <g class="cls-5">
              <text class="cls-1" transform="translate(286.66 924.86)"><tspan x="0" y="0">Inno</tspan></text>
              <text class="cls-1" transform="translate(397.38 924.86)"><tspan x="0" y="0">v</tspan></text>
              <text class="cls-1" transform="translate(424.67 924.86)"><tspan x="0" y="0">a</tspan></text>
            </g>
            <g class="cls-5">
              <text class="cls-1" transform="translate(285.55 965.92)"><tspan x="0" y="0">101</tspan></text>
            </g>
          </g>
          <g id="Logo">
            <path class="cls-2" d="M228.05,936.25l6.7-6.7-12.45-12.45c-7.15,7.15-14.29,14.29-21.43,21.43.98,3.29,2.4,6.38,4.18,9.22l17.26-17.26s5.75,5.75,5.75,5.75Z"/>
            <path class="cls-2" d="M212.26,956.19c2.43,2.11,5.13,3.93,8.03,5.37,11.2-11.2,22.41-22.41,33.61-33.61l16.85,16.85c1.58-3.11,2.74-6.46,3.41-9.99-6.75-6.75-13.5-13.51-20.26-20.26-13.88,13.88-27.76,27.76-41.64,41.64h0Z"/>
            <path class="cls-2" d="M213.53,943.42l-6.8,6.8c1.04,1.4,2.17,2.72,3.39,3.97l6.7-6.7c-1.22-1.25-2.32-2.61-3.3-4.06h0Z"/>
            <path class="cls-2" d="M274.82,927.71c0-20.85-16.91-37.76-37.76-37.76s-37.76,16.91-37.76,37.76c0,2.57.26,5.08.74,7.51l8.76-8.76c.65-15.04,13.05-27.03,28.26-27.03,13.33,0,24.5,9.22,27.5,21.63l10.11,10.11c.1-1.14.16-2.29.16-3.45h0Z"/>
            <path class="cls-2" d="M237.06,956c-2.19,0-4.32-.25-6.36-.72l-7.55,7.55c4.3,1.71,8.99,2.64,13.91,2.64,13.62,0,25.56-7.21,32.2-18.03l-6.96-6.96c-4.66,9.2-14.22,15.51-25.24,15.51Z"/>
          </g>
        </g>
        <g id="VeksisLogo">
          <path class="cls-2" d="M552.98,928.85l3.09-10.13c-4.52-4.13-10.31-6.89-16.77-7.43-17.02-1.44-33.25,13.29-33.25,34.61l14.69-1.29c-.36-12.64,8.83-22.26,19.32-22.01,5.1.11,9.66,2.55,12.93,6.25"/>
          <path class="cls-2" d="M578.62,912.47c.79,5.57-1.97,10.05-6.46,9.91-4.78-.14-9.41-5.39-10.13-11.56-.68-6.03,2.76-10.16,7.4-9.41,4.38.72,8.37,5.6,9.16,11.02"/>
          <path class="cls-2" d="M553.81,942.71c.68,7.5-3.95,14.61-10.81,15.8-7.4,1.29-14.15-4.81-14.54-13.46-.36-8.37,5.53-15.08,12.6-15.22,6.57-.11,12.06,5.57,12.75,12.85"/>
          <path class="cls-2" d="M582.1,918.29c-.57,5.92-4.2,10.38-9.52,10.41-3.7,0-7.43-2.12-10.31-5.6l-2.84,10.02c4.34,3.84,9.41,5.92,14.33,5.57,8.51-.61,13.93-8.26,14.51-17.74l-6.18-2.66h0Z"/>
          <g class="cls-5">
            <text class="cls-3" transform="translate(702.42 939.37)"><tspan x="0" y="0">Business</tspan></text>
          </g>
          <g class="cls-5">
            <text class="cls-3" transform="translate(599.16 939.37)"><tspan x="0" y="0">V</tspan></text>
            <text class="cls-3" transform="translate(618.4 939.37)"><tspan x="0" y="0">e</tspan></text>
            <text class="cls-3" transform="translate(636.86 939.37)"><tspan x="0" y="0">k</tspan></text>
            <text class="cls-3" transform="translate(653.41 939.37)"><tspan x="0" y="0">sis</tspan></text>
          </g>
          <path class="cls-2" d="M613.12,959.8v4.31s0,.11-.04.14c0,.04-.07.07-.14.07s-.14.04-.25.07h-.72c-.11,0-.18,0-.25-.07-.07,0-.11-.04-.14-.07,0-.04-.04-.07-.04-.14v-4.31l-3.3-6.61s-.11-.25-.11-.32,0-.14.04-.18c.04-.04.14-.07.25-.07h.9c.11,0,.22,0,.25.04.07,0,.11.04.14.11,0,.04.07.07.11.14l1.62,3.38c.14.32.29.65.47,1.01.14.36.29.72.47,1.04h0c.14-.36.29-.68.43-1.04.14-.32.29-.68.43-1.01l1.62-3.38s.04-.11.07-.14c0-.04.07-.07.14-.11.07,0,.14-.04.25-.04h.9c.11,0,.22.04.25.07.04.04.07.11.04.18,0,.07-.07.18-.11.32l-3.3,6.61h.04ZM623.18,964.14s0,.14-.07.18c-.04.04-.11.07-.22.07h-.72c-.11,0-.14-.04-.22-.07-.04-.04-.07-.11-.07-.18v-.83c-.36.39-.75.68-1.18.9s-.9.32-1.4.32c-.43,0-.83-.07-1.15-.18-.36-.11-.65-.29-.9-.47-.25-.22-.43-.47-.57-.79-.14-.32-.22-.65-.22-1.04,0-.47.11-.86.29-1.18s.47-.61.79-.83c.36-.22.79-.39,1.29-.5.5-.11,1.08-.18,1.72-.18h1.11v-.65c0-.32,0-.57-.11-.83-.07-.25-.18-.43-.32-.61-.14-.14-.32-.29-.57-.36-.25-.07-.54-.11-.86-.11-.36,0-.68.04-1.01.14-.29.07-.54.18-.75.29-.22.11-.39.22-.54.29s-.25.14-.32.14c-.04,0-.11,0-.14-.04-.04,0-.07-.07-.11-.11,0-.04-.04-.11-.07-.18v-.61c0-.07.07-.18.14-.25.07-.07.22-.18.43-.29s.43-.22.68-.29.54-.14.86-.22c.32-.07.61-.07.93-.07.57,0,1.08.07,1.51.22.39.14.75.32,1.01.57.25.25.43.57.54.97s.18.83.18,1.33v5.49l.04-.07ZM621.71,960.44h-1.29c-.39,0-.75,0-1.08.11-.29.07-.54.18-.75.32-.22.14-.36.29-.43.5-.11.18-.14.39-.14.65,0,.43.14.75.39,1.01s.65.36,1.11.36c.39,0,.75-.11,1.08-.29.32-.22.68-.5,1.04-.9v-1.72l.07-.04ZM631.11,963.75v.29c0,.07-.04.14-.07.22,0,.04-.07.07-.11.11h-5.17s-.22-.04-.32-.14c-.07-.07-.11-.22-.11-.43v-.54c0-.07,0-.14.07-.22,0-.07.07-.14.11-.22s.11-.14.14-.25l3.59-5.6h-3.48s-.18-.04-.22-.14c-.07-.11-.07-.25-.07-.47v-.29c0-.07,0-.14.07-.22,0-.04.07-.07.11-.11h4.99s.11.04.14.11c.04.04.07.11.07.18v.79c0,.07,0,.14-.07.22,0,.07-.07.14-.11.22s-.11.18-.14.25l-3.59,5.6h3.95s.07.07.11.11c0,.04.04.11.07.18v.29l.04.07ZM634.74,964.14s0,.07-.04.11c0,0-.07.07-.11.07-.07,0-.14.04-.22.07h-.72c-.11,0-.18,0-.22-.07-.07,0-.11-.04-.11-.07v-8.37s.07-.07.11-.11c.07,0,.14-.04.22-.07h.72c.11,0,.18,0,.22.07s.11.07.11.11c0,0,.04.07.04.11v8.15ZM638.98,964.14s0,.07-.04.11c0,0-.07.07-.11.07-.07,0-.14.04-.22.07h-.72c-.11,0-.18,0-.22-.07-.07,0-.11-.04-.11-.07v-12.35s.07-.07.11-.11c.07,0,.14-.04.22-.07h.72c.11,0,.18,0,.22.07.07,0,.11.07.11.11s.04.07.04.14v12.1ZM643.25,964.14s0,.07-.04.11c0,0-.07.07-.11.07-.07,0-.14.04-.22.07h-.72c-.11,0-.18,0-.22-.07-.07,0-.11-.04-.11-.07v-8.37s.07-.07.11-.11c.07,0,.14-.04.22-.07h.72c.11,0,.18,0,.22.07s.11.07.11.11c0,0,.04.07.04.11v8.15ZM658.08,964.14s0,.07-.04.11c0,0-.07.07-.11.07-.07,0-.14.04-.22.07h-.72c-.11,0-.18,0-.22-.07-.07,0-.11-.04-.11-.07,0,0-.04-.07-.04-.11v-4.96c0-.36,0-.65-.11-.93-.07-.29-.14-.54-.29-.72-.14-.22-.29-.36-.5-.47s-.43-.18-.72-.18c-.36,0-.68.14-1.04.39-.36.25-.72.65-1.15,1.18v5.71s0,.07-.04.11c0,0-.07.07-.11.07-.07,0-.14.04-.22.07h-.72c-.11,0-.18,0-.25-.07-.07,0-.11-.04-.11-.07v-5.06c0-.36,0-.65-.11-.93-.07-.29-.18-.54-.29-.72-.14-.22-.29-.36-.5-.47s-.43-.18-.72-.18c-.36,0-.68.14-1.04.39-.36.25-.72.65-1.15,1.18v5.71s0,.07-.04.11c0,0-.07.07-.11.07-.07,0-.14.04-.22.07h-.72c-.11,0-.18,0-.22-.07-.07,0-.11-.04-.11-.07v-8.37s.07-.07.11-.11.11-.04.22-.07h.65c.07,0,.14,0,.22.07.04,0,.07.07.11.11v1.18c.47-.5.9-.9,1.33-1.11.43-.25.86-.36,1.29-.36.32,0,.65.04.9.11s.5.18.72.32.39.32.54.5c.14.18.25.43.36.65.29-.29.54-.54.79-.75s.47-.36.72-.5c.22-.14.43-.22.65-.29s.43-.07.65-.07c.54,0,.97.11,1.33.29.36.18.65.43.86.75.22.32.39.68.47,1.08.11.43.14.86.14,1.29v5.13l-.14-.04ZM670.29,965.04c.14.29.22.5.29.68s.07.36.07.5c0,.22-.04.43-.14.61-.07.18-.22.32-.36.47-.14.11-.32.22-.57.29-.22.07-.47.11-.72.11-.22,0-.39,0-.61-.04-.18,0-.36-.07-.5-.07s-.22-.07-.29-.07c-.04,0-.07-.07-.11-.11,0-.04-.04-.07-.04-.14v-.22c0-.18,0-.32.07-.36.04-.07.11-.11.18-.11h1.11c.22,0,.36-.04.47-.11s.18-.22.18-.36c0-.07,0-.18-.07-.29-.04-.11-.07-.25-.14-.36l-.43-.93c-.54-.07-1.04-.22-1.54-.43-.5-.25-.97-.57-1.36-1.04s-.72-1.08-.97-1.8c-.22-.72-.36-1.58-.36-2.51s.11-1.83.36-2.59.61-1.4,1.04-1.94c.47-.54,1.01-.93,1.62-1.22.65-.29,1.33-.43,2.08-.43.32,0,.68,0,.97.11.32.07.61.14.9.25s.5.22.72.32c.22.14.36.22.43.32.07.07.14.14.14.18s.04.11.07.14c0,.07,0,.11.04.22v.61c0,.07,0,.14-.07.22,0,.07-.04.11-.07.14,0,0-.07.04-.11.04-.07,0-.22-.07-.36-.18-.14-.11-.36-.25-.57-.39-.25-.14-.54-.29-.86-.39-.32-.11-.75-.18-1.22-.18-.5,0-1.01.11-1.4.32-.43.22-.79.5-1.08.93-.29.39-.54.9-.72,1.47s-.25,1.26-.25,2.01.07,1.4.25,1.97c.14.57.39,1.04.68,1.44s.68.68,1.11.86.93.29,1.47.29c.43,0,.83-.07,1.18-.18s.65-.25.9-.39c.25-.14.47-.29.61-.39s.29-.18.36-.18h.11s.07.04.07.11c0,.04,0,.11.04.22v.79c0,.07,0,.11-.07.14,0,.04-.07.11-.14.14-.07.07-.18.14-.39.29-.18.11-.43.25-.72.36s-.54.22-.83.29-.54.11-.79.14l.25.54.11-.11ZM682.46,959.98c0,.65-.07,1.29-.25,1.83-.18.57-.43,1.04-.79,1.44s-.79.72-1.29.93c-.54.22-1.11.32-1.83.32s-1.26-.11-1.76-.29c-.5-.22-.9-.5-1.26-.86-.32-.39-.57-.83-.75-1.4-.18-.54-.25-1.15-.25-1.83s.07-1.29.25-1.83c.18-.57.43-1.04.79-1.44s.79-.72,1.29-.93,1.11-.32,1.83-.32,1.26.11,1.76.29c.5.22.9.5,1.26.86.32.39.57.83.75,1.4.18.54.25,1.15.25,1.83ZM680.88,960.08c0-.43-.04-.86-.11-1.26-.07-.39-.22-.75-.39-1.04-.18-.29-.43-.54-.75-.72-.32-.18-.72-.25-1.22-.25-.43,0-.83.07-1.15.25-.32.14-.57.39-.79.68-.22.29-.36.61-.47,1.01s-.14.83-.14,1.29.04.86.11,1.26c.07.39.22.72.39,1.04.18.29.47.54.75.68.32.18.72.25,1.22.25.43,0,.83-.07,1.15-.25.32-.14.57-.39.79-.65.22-.29.36-.61.47-1.01s.14-.83.14-1.29ZM677.61,953.33c0,.32-.07.57-.18.68s-.36.18-.68.18-.54-.07-.65-.18-.18-.32-.18-.65.07-.57.18-.68.32-.18.68-.18.54.07.68.18c.11.11.18.32.18.65h-.04ZM680.81,953.33c0,.32-.07.57-.18.68s-.36.18-.68.18-.54-.07-.65-.18-.18-.32-.18-.65.07-.57.18-.68.32-.18.68-.18.54.07.68.18c.11.11.18.32.18.65h-.04ZM689.61,963.75v.29c0,.07-.04.14-.07.22,0,.04-.07.07-.11.11h-5.17s-.22-.04-.32-.14c-.07-.07-.11-.22-.11-.43v-.54c0-.07,0-.14.07-.22,0-.07.07-.14.11-.22s.11-.14.14-.25l3.59-5.6h-3.48s-.18-.04-.22-.14c-.07-.11-.07-.25-.07-.47v-.29c0-.07,0-.14.07-.22,0-.04.07-.07.11-.11h4.99s.11.04.14.11c.04.04.07.11.07.18v.79c0,.07,0,.14-.07.22,0,.07-.07.14-.11.22s-.11.18-.14.25l-3.59,5.6h3.95s.07.07.11.11c0,.04.04.11.07.18v.29l.04.07ZM698.69,964.14v.11s-.07.07-.11.07c-.07,0-.11.04-.22.07h-.65c-.07,0-.14,0-.22-.07-.04,0-.07-.04-.11-.07v-1.18c-.47.5-.93.9-1.36,1.11-.47.25-.9.36-1.36.36-.54,0-1.01-.11-1.36-.29s-.68-.43-.9-.75-.39-.68-.5-1.08c-.11-.43-.14-.93-.14-1.51v-5.06s.07-.07.11-.11c.07,0,.14-.04.25-.07h.72c.11,0,.18,0,.22.07.07,0,.11.07.11.11,0,0,.04.07.04.11v4.74c0,.47,0,.86.11,1.15.07.29.18.54.32.72.14.22.32.36.54.47s.47.18.75.18c.36,0,.75-.14,1.11-.39.36-.25.75-.65,1.18-1.18v-5.82s.07-.07.11-.11c.07,0,.14-.04.22-.07h.72c.11,0,.18,0,.22.07.07,0,.11.07.11.11,0,0,.04.07.04.11v8.15l.07.07ZM694.45,953.33c0,.32-.07.57-.18.68s-.36.18-.68.18-.54-.07-.65-.18-.18-.32-.18-.65.07-.57.18-.68.32-.18.68-.18.54.07.68.18c.11.11.18.32.18.65h-.04ZM697.65,953.33c0,.32-.07.57-.18.68s-.36.18-.68.18-.54-.07-.65-.18-.18-.32-.18-.65.07-.57.18-.68.32-.18.68-.18.54.07.68.18c.11.11.18.32.18.65h-.04ZM713.56,964.14s0,.07-.04.11c0,0-.07.07-.11.07-.07,0-.14.04-.22.07h-.72c-.11,0-.18,0-.22-.07-.07,0-.11-.04-.11-.07,0,0-.04-.07-.04-.11v-4.96c0-.36,0-.65-.11-.93-.07-.29-.14-.54-.29-.72-.14-.22-.29-.36-.5-.47s-.43-.18-.72-.18c-.36,0-.68.14-1.04.39-.36.25-.72.65-1.15,1.18v5.71s0,.07-.04.11c0,0-.07.07-.11.07-.07,0-.14.04-.22.07h-.72c-.11,0-.18,0-.25-.07-.07,0-.11-.04-.11-.07v-5.06c0-.36,0-.65-.11-.93-.07-.29-.18-.54-.29-.72-.14-.22-.29-.36-.5-.47s-.43-.18-.72-.18c-.36,0-.68.14-1.04.39-.36.25-.72.65-1.15,1.18v5.71s0,.07-.04.11c0,0-.07.07-.11.07-.07,0-.14.04-.22.07h-.72c-.11,0-.18,0-.22-.07-.07,0-.11-.04-.11-.07v-8.37s.07-.07.11-.11c.07,0,.11-.04.22-.07h.65c.07,0,.14,0,.22.07.04,0,.07.07.11.11v1.18c.47-.5.9-.9,1.33-1.11.43-.25.86-.36,1.29-.36.32,0,.65.04.9.11s.5.18.72.32.39.32.54.5c.14.18.25.43.36.65.29-.29.54-.54.79-.75s.47-.36.72-.5c.22-.14.43-.22.65-.29s.43-.07.65-.07c.54,0,.97.11,1.33.29.36.18.65.43.86.75.22.32.39.68.47,1.08.11.43.14.86.14,1.29v5.13l-.14-.04ZM717.76,964.14s0,.07-.04.11c0,0-.07.07-.11.07-.07,0-.14.04-.22.07h-.72c-.11,0-.18,0-.22-.07-.07,0-.11-.04-.11-.07v-12.35s.07-.07.11-.11c.07,0,.14-.04.22-.07h.72c.11,0,.18,0,.22.07.07,0,.11.07.11.11s.04.07.04.14v12.1ZM727.45,959.73c0,.25-.07.39-.18.5-.11.11-.25.14-.39.14h-5.35c0,.47.04.86.14,1.22s.25.68.47.93.5.47.83.61.75.22,1.26.22c.39,0,.72,0,1.04-.11.29-.07.57-.14.79-.22s.39-.14.54-.22.25-.11.32-.11h.11s.07.04.07.11c0,.04,0,.11.04.18v.65s0,.07-.04.11c0,.04-.04.07-.07.11,0,0-.14.07-.29.18-.18.07-.36.14-.65.22-.25.07-.57.14-.9.18-.32.07-.72.07-1.08.07-.68,0-1.26-.11-1.76-.29s-.93-.47-1.26-.83c-.36-.36-.61-.83-.79-1.4-.18-.54-.25-1.18-.25-1.94s.11-1.33.29-1.9.43-1.04.79-1.44c.32-.39.75-.68,1.22-.9.47-.22,1.01-.32,1.62-.32.65,0,1.18.11,1.65.32s.83.47,1.11.83.5.75.65,1.22.22.97.22,1.51v.29l-.14.07ZM725.98,959.26c0-.79-.14-1.4-.54-1.83-.36-.43-.9-.68-1.65-.68-.36,0-.68.07-.97.22s-.5.32-.72.54c-.18.22-.32.5-.43.79s-.14.61-.18.97h4.49ZM734.49,956.53v.32c0,.11,0,.14-.04.22,0,.04-.04.11-.07.11,0,0-.07.04-.11.04s-.11,0-.18-.04c-.07,0-.14-.07-.25-.07-.07,0-.18-.04-.29-.07-.11,0-.22-.04-.36-.04s-.29,0-.43.11c-.14.07-.29.14-.47.29-.14.14-.32.32-.5.54s-.36.5-.57.83v5.35s0,.07-.04.11c0,0-.07.07-.11.07-.07,0-.14.04-.22.07h-.72c-.11,0-.18,0-.22-.07-.07,0-.11-.04-.11-.07v-8.37s.07-.07.11-.11c.07,0,.11-.04.22-.07h.65c.07,0,.14,0,.22.07.04,0,.07.07.11.11v1.29c.22-.32.43-.57.65-.79.18-.22.39-.36.57-.47s.36-.22.5-.25c.18-.04.36-.07.5-.07h.25c.11,0,.22,0,.32.04.11,0,.22.04.29.07.07,0,.14.07.18.11.04,0,.07.07.07.07v.61l.04.07ZM737.86,953.23c0,.36-.07.57-.22.72s-.39.18-.72.18-.57-.07-.72-.18-.18-.36-.18-.72.07-.57.22-.72.39-.18.72-.18.57.07.72.18.18.36.18.72ZM737.68,964.14s0,.07-.04.11c0,0-.07.07-.11.07-.07,0-.14.04-.22.07h-.72c-.11,0-.18,0-.22-.07-.07,0-.11-.04-.11-.07v-8.37s.07-.07.11-.11c.07,0,.14-.04.22-.07h.72c.11,0,.18,0,.22.07.07,0,.11.07.11.11s.04.07.04.11v8.15ZM744.22,961.27c0-.32.04-.65.14-.93.11-.29.22-.57.43-.86.18-.29.43-.54.75-.83.32-.25.68-.54,1.11-.79-.25-.32-.43-.61-.61-.9-.18-.25-.32-.5-.43-.75-.11-.22-.18-.43-.25-.65-.04-.22-.07-.43-.07-.65,0-.36.07-.72.18-1.08.14-.32.32-.65.61-.9s.65-.47,1.08-.61c.43-.14.97-.22,1.62-.22.54,0,1.01.07,1.36.18.39.11.72.29.97.5.25.22.47.47.57.75.14.29.18.65.18,1.01s-.07.68-.18.97-.29.57-.54.86c-.25.29-.57.54-.97.83-.39.29-.86.57-1.44.86.22.25.43.5.68.79.25.25.5.54.75.83.25.29.54.54.79.79.29.25.54.5.83.75.11-.18.22-.36.32-.57s.18-.43.25-.65.14-.47.18-.72c.04-.25.07-.5.07-.72v-.47s.07-.07.11-.11c.04,0,.11-.04.22-.07h.68c.11,0,.18,0,.22.04.07,0,.11.07.14.11,0,.04.04.11.04.18v.22c0,.32,0,.68-.07,1.01s-.14.65-.25.97c-.11.32-.22.61-.36.9-.14.29-.32.54-.5.79.29.22.5.39.72.54s.36.25.5.36.25.14.36.18c.11.04.18.07.22.07h.32s.07.07.07.14v.9s-.04.07-.07.11c-.04,0-.11.07-.22.07s-.22.04-.39.04c-.11,0-.25,0-.39-.07-.14-.04-.32-.11-.5-.22s-.43-.25-.68-.43-.57-.39-.9-.68c-.25.22-.5.39-.79.57-.29.18-.57.32-.9.43s-.65.22-1.01.29-.72.11-1.11.11-.75,0-1.08-.11c-.32-.07-.65-.14-.93-.29-.29-.11-.54-.29-.79-.47-.22-.18-.43-.39-.57-.65-.14-.25-.29-.5-.36-.79s-.14-.61-.14-.97h.04ZM745.87,961.13c0,.32.04.61.14.86.11.25.25.47.47.68.22.18.47.32.75.43.32.11.65.14,1.08.14.25,0,.5,0,.72-.07.25-.04.47-.11.68-.22.22-.07.43-.18.61-.32.18-.11.36-.25.54-.39-.32-.29-.61-.54-.93-.86-.32-.29-.61-.57-.9-.9-.29-.29-.57-.57-.83-.9-.25-.29-.5-.57-.75-.86-.29.18-.54.39-.75.57-.22.18-.36.39-.5.57-.11.18-.22.39-.25.57-.07.18-.07.39-.07.61v.07ZM746.91,954.84s0,.32.07.5c.04.18.11.36.22.54s.22.39.36.61c.14.22.29.43.47.72.43-.25.83-.47,1.11-.68s.54-.39.72-.61c.18-.18.32-.39.39-.57.07-.18.11-.39.11-.61,0-.18,0-.36-.11-.5-.07-.14-.18-.29-.29-.43-.14-.11-.32-.22-.54-.29s-.47-.11-.75-.11c-.32,0-.57.04-.83.11-.22.07-.39.18-.54.32s-.25.29-.32.47c-.07.18-.11.36-.11.57l.04-.04ZM769.28,964.11v.14s-.07.07-.11.11c-.07,0-.14.04-.25.07h-.9c-.14,0-.22-.04-.29-.11-.07-.04-.11-.11-.18-.18l-4.31-5.85v5.85s0,.07-.04.11c0,.04-.07.07-.14.11-.07,0-.14.04-.25.07h-.72c-.11,0-.18,0-.25-.07-.07,0-.11-.04-.14-.11,0-.04-.04-.07-.04-.11v-11.24s0-.11.04-.14c0-.04.07-.07.14-.07s.14-.04.25-.07h.72c.11,0,.18,0,.25.07.07,0,.11.04.14.07,0,.04.04.07.04.14v5.21l4.13-5.21s.07-.11.14-.14c.04-.04.11-.07.18-.07s.14-.04.25-.04h.79c.11,0,.18,0,.22.07.07,0,.11.07.11.11v.11c0,.07,0,.14-.07.25-.04.07-.11.18-.22.32l-3.88,4.63,4.17,5.57s.18.25.18.32v.14l.04-.07ZM777.79,964.14v.11s-.07.07-.11.07c-.07,0-.11.04-.22.07h-.65c-.07,0-.14,0-.22-.07-.04,0-.07-.04-.11-.07v-1.18c-.47.5-.93.9-1.36,1.11-.47.25-.9.36-1.36.36-.54,0-1.01-.11-1.36-.29s-.68-.43-.9-.75-.39-.68-.5-1.08c-.11-.43-.14-.93-.14-1.51v-5.06s.07-.07.11-.11c.07,0,.14-.04.25-.07h.72c.11,0,.18,0,.22.07.07,0,.11.07.11.11,0,0,.04.07.04.11v4.74c0,.47,0,.86.11,1.15.07.29.18.54.32.72.14.22.32.36.54.47s.47.18.75.18c.36,0,.75-.14,1.11-.39.36-.25.75-.65,1.18-1.18v-5.82s.07-.07.11-.11c.07,0,.14-.04.22-.07h.72c.11,0,.18,0,.22.07.07,0,.11.07.11.11,0,0,.04.07.04.11v8.15l.07.07ZM785.3,956.53v.32c0,.11,0,.14-.04.22,0,.04-.04.11-.07.11,0,0-.07.04-.11.04s-.11,0-.18-.04c-.07,0-.14-.07-.25-.07-.07,0-.18-.04-.29-.07-.11,0-.22-.04-.36-.04s-.29,0-.43.11c-.14.07-.29.14-.47.29-.14.14-.32.32-.5.54s-.36.5-.57.83v5.35s0,.07-.04.11c0,0-.07.07-.11.07-.07,0-.14.04-.22.07h-.72c-.11,0-.18,0-.22-.07-.07,0-.11-.04-.11-.07v-8.37s.07-.07.11-.11c.07,0,.11-.04.22-.07h.65c.07,0,.14,0,.22.07.04,0,.07.07.11.11v1.29c.22-.32.43-.57.65-.79.18-.22.39-.36.57-.47s.36-.22.5-.25c.18-.04.36-.07.5-.07h.25c.11,0,.22,0,.32.04.11,0,.22.04.29.07.07,0,.14.07.18.11.04,0,.07.07.07.07v.61l.04.07ZM793.99,964.14v.11s-.07.07-.11.07c-.07,0-.11.04-.22.07h-.65c-.07,0-.14,0-.22-.07-.04,0-.07-.04-.11-.07v-1.18c-.47.5-.93.9-1.36,1.11-.47.25-.9.36-1.36.36-.54,0-1.01-.11-1.36-.29s-.68-.43-.9-.75-.39-.68-.5-1.08c-.11-.43-.14-.93-.14-1.51v-5.06s.07-.07.11-.11c.07,0,.14-.04.25-.07h.72c.11,0,.18,0,.22.07.07,0,.11.07.11.11,0,0,.04.07.04.11v4.74c0,.47,0,.86.11,1.15.07.29.18.54.32.72.14.22.32.36.54.47s.47.18.75.18c.36,0,.75-.14,1.11-.39.36-.25.75-.65,1.18-1.18v-5.82s.07-.07.11-.11c.07,0,.14-.04.22-.07h.72c.11,0,.18,0,.22.07.07,0,.11.07.11.11,0,0,.04.07.04.11v8.15l.07.07ZM808.85,964.14s0,.07-.04.11c0,0-.07.07-.11.07-.07,0-.14.04-.22.07h-.72c-.11,0-.18,0-.22-.07-.07,0-.11-.04-.11-.07,0,0-.04-.07-.04-.11v-4.96c0-.36,0-.65-.11-.93-.07-.29-.14-.54-.29-.72-.14-.22-.29-.36-.5-.47s-.43-.18-.72-.18c-.36,0-.68.14-1.04.39-.36.25-.72.65-1.15,1.18v5.71s0,.07-.04.11c0,0-.07.07-.11.07-.07,0-.14.04-.22.07h-.72c-.11,0-.18,0-.25-.07-.07,0-.11-.04-.11-.07v-5.06c0-.36,0-.65-.11-.93-.07-.29-.18-.54-.29-.72-.14-.22-.29-.36-.5-.47s-.43-.18-.72-.18c-.36,0-.68.14-1.04.39-.36.25-.72.65-1.15,1.18v5.71s0,.07-.04.11c0,0-.07.07-.11.07-.07,0-.14.04-.22.07h-.72c-.11,0-.18,0-.22-.07-.07,0-.11-.04-.11-.07v-8.37s.07-.07.11-.11c.07,0,.11-.04.22-.07h.65c.07,0,.14,0,.22.07.04,0,.07.07.11.11v1.18c.47-.5.9-.9,1.33-1.11.43-.25.86-.36,1.29-.36.32,0,.65.04.9.11s.5.18.72.32.39.32.54.5c.14.18.25.43.36.65.29-.29.54-.54.79-.75s.47-.36.72-.5c.22-.14.43-.22.65-.29s.43-.07.65-.07c.54,0,.97.11,1.33.29.36.18.65.43.86.75.22.32.39.68.47,1.08.11.43.14.86.14,1.29v5.13l-.14-.04ZM816.68,961.92c0,.43-.07.79-.22,1.11s-.36.61-.65.83c-.29.22-.61.39-1.01.5-.39.11-.83.18-1.29.18-.29,0-.57,0-.83-.07-.25-.04-.5-.11-.72-.18s-.39-.14-.54-.22-.25-.14-.32-.22c-.07-.07-.11-.14-.14-.25,0-.11-.04-.25-.04-.43v-.29c0-.07,0-.14.04-.18,0-.04.04-.07.07-.11h.11c.07,0,.18.04.29.11.14.07.29.18.47.25.18.11.43.18.68.25.25.07.57.11.9.11.25,0,.47,0,.68-.07s.39-.14.54-.25.25-.25.36-.39c.07-.18.11-.36.11-.57s-.07-.43-.18-.57-.29-.29-.47-.43c-.18-.11-.39-.22-.65-.32-.25-.11-.5-.18-.75-.29s-.5-.22-.75-.36-.47-.29-.65-.47c-.18-.18-.36-.39-.47-.68-.11-.25-.18-.57-.18-.93,0-.32.07-.61.18-.93.11-.29.32-.54.57-.75s.57-.39.93-.54c.36-.14.79-.22,1.29-.22.22,0,.43,0,.65.07s.43.07.57.14c.18.07.32.11.43.18s.22.11.29.18c.07.04.11.11.14.14,0,.04.04.07.04.11v.68c0,.07,0,.14-.04.18,0,.04-.04.07-.07.11h-.11c-.07,0-.14,0-.25-.11-.11-.07-.25-.14-.39-.22-.18-.07-.36-.14-.57-.22s-.47-.11-.75-.11c-.25,0-.47,0-.68.07-.18.07-.36.14-.47.25s-.22.22-.29.36-.11.29-.11.47c0,.25.07.43.18.61.11.14.29.29.47.43.18.11.43.22.65.32.25.11.5.18.75.29s.5.22.75.36.47.29.68.47c.18.18.36.39.47.65s.18.54.18.9l.11.07ZM824.94,964.14s0,.14-.07.18c-.04.04-.11.07-.22.07h-.72c-.11,0-.14-.04-.22-.07-.04-.04-.07-.11-.07-.18v-.83c-.36.39-.75.68-1.18.9s-.9.32-1.4.32c-.43,0-.83-.07-1.15-.18-.36-.11-.65-.29-.9-.47-.25-.22-.43-.47-.57-.79-.14-.32-.22-.65-.22-1.04,0-.47.11-.86.29-1.18s.47-.61.79-.83c.36-.22.79-.39,1.29-.5.5-.11,1.08-.18,1.72-.18h1.11v-.65c0-.32,0-.57-.11-.83-.07-.25-.18-.43-.32-.61-.14-.14-.32-.29-.57-.36-.25-.07-.54-.11-.86-.11-.36,0-.68.04-1.01.14-.29.07-.54.18-.75.29-.22.11-.39.22-.54.29s-.25.14-.32.14c-.04,0-.11,0-.14-.04-.04,0-.07-.07-.11-.11,0-.04-.04-.11-.07-.18v-.61c0-.07.07-.18.14-.25.07-.07.22-.18.43-.29s.43-.22.68-.29.54-.14.86-.22c.32-.07.61-.07.93-.07.57,0,1.08.07,1.51.22.39.14.75.32,1.01.57.25.25.43.57.54.97s.18.83.18,1.33v5.49l.04-.07ZM823.46,960.44h-1.29c-.39,0-.75,0-1.08.11-.29.07-.54.18-.75.32-.22.14-.36.29-.43.5-.11.18-.14.39-.14.65,0,.43.14.75.39,1.01s.65.36,1.11.36c.39,0,.75-.11,1.08-.29.32-.22.68-.5,1.04-.9v-1.72l.07-.04ZM829.17,964.14s0,.07-.04.11c0,0-.07.07-.11.07-.07,0-.14.04-.22.07h-.72c-.11,0-.18,0-.22-.07-.07,0-.11-.04-.11-.07v-12.35s.07-.07.11-.11c.07,0,.14-.04.22-.07h.72c.11,0,.18,0,.22.07.07,0,.11.07.11.11s.04.07.04.14v12.1ZM842.82,963.71v.29c0,.07,0,.14-.07.22,0,.07-.07.11-.11.11s-.07.04-.14.04h-5.64s-.29-.04-.39-.14-.18-.25-.18-.5v-10.45c0-.25.07-.39.18-.5.11-.11.25-.14.39-.14h5.57s.11,0,.14.04c.04,0,.07.07.11.11,0,.07.04.11.07.22v.57c0,.07,0,.14-.07.22,0,.04-.07.07-.11.11-.04,0-.07.04-.14.04h-4.6v3.66h3.91s.11,0,.14.04c.04,0,.07.07.11.11,0,.04.04.11.07.22v.57c0,.07,0,.14-.07.18,0,.04-.07.07-.11.11h-4.06v4.2h4.63s.11,0,.14.04c.04,0,.07.07.11.11,0,.04.04.11.07.22v.29l.04.07ZM851.97,956.35c0,.22,0,.36-.07.47s-.14.14-.22.14h-1.18c.22.22.36.47.43.72.07.25.14.54.14.83,0,.47-.07.9-.22,1.26s-.36.68-.65.93c-.29.25-.61.43-1.01.57s-.83.22-1.29.22c-.32,0-.65-.04-.93-.14-.29-.07-.54-.22-.68-.32-.11.11-.22.22-.25.36-.07.14-.11.29-.11.47,0,.22.11.39.29.54s.47.22.79.22l2.12.11c.39,0,.79.07,1.11.18s.65.25.86.43c.25.18.43.39.57.68.14.25.22.57.22.93s-.07.72-.25,1.08c-.14.32-.39.65-.72.9s-.72.47-1.22.61-1.08.22-1.76.22-1.22-.07-1.69-.18-.83-.25-1.15-.47c-.29-.18-.5-.43-.65-.68s-.22-.57-.22-.86c0-.22,0-.39.07-.57.04-.18.11-.36.22-.54s.22-.32.36-.47c.14-.14.32-.32.5-.47-.29-.14-.5-.32-.65-.57-.14-.22-.22-.47-.22-.75,0-.36.07-.68.22-.97s.32-.54.57-.79c-.18-.22-.32-.47-.43-.75s-.18-.61-.18-1.01c0-.47.07-.9.25-1.26.14-.36.36-.68.65-.93.29-.25.61-.43,1.01-.57s.83-.22,1.26-.22c.25,0,.47,0,.68.04.22,0,.43.07.61.11h2.48s.18.04.22.14.07.25.07.47l.04-.07ZM850.39,964.97c0-.36-.14-.61-.43-.83-.29-.18-.68-.29-1.15-.29l-2.12-.07c-.18.14-.36.29-.47.43s-.22.25-.29.39c-.07.11-.11.25-.14.36,0,.11-.04.25-.04.36,0,.39.22.68.61.9s.97.29,1.65.29c.47,0,.83-.04,1.15-.14.29-.07.54-.22.75-.36.18-.14.32-.32.39-.5.07-.18.11-.39.11-.57l-.04.04ZM849.42,952.01s.04-.14.11-.22.22-.07.43-.07h.29c.07,0,.11,0,.18.04.04,0,.07.04.07.07v.11c0,.39-.04.75-.14,1.08-.11.29-.25.57-.43.75-.18.22-.43.36-.72.47s-.65.14-1.01.14c-.39,0-.75-.07-1.04-.18-.29-.11-.54-.25-.72-.47s-.32-.47-.43-.75c-.07-.29-.14-.65-.14-1.04,0-.11.04-.18.11-.22s.22-.07.43-.07h.25c.07,0,.11,0,.18.04.04,0,.07.04.07.07v.11c0,.22.04.39.11.57.04.18.14.32.22.43.11.11.22.22.39.29s.32.11.54.11c.18,0,.36,0,.5-.07.14-.04.29-.14.39-.25s.22-.25.25-.43c.07-.18.11-.39.11-.65v.14ZM849.64,958.5c0-.54-.14-1.01-.47-1.29-.29-.32-.75-.47-1.29-.47-.29,0-.54.04-.75.14-.22.11-.39.22-.54.39s-.25.36-.32.57c-.07.22-.11.47-.11.68,0,.54.14.97.47,1.26.29.32.72.47,1.29.47.29,0,.54-.04.75-.14.22-.11.39-.22.54-.39s.25-.36.32-.57c.07-.22.11-.43.11-.68v.04ZM855.56,953.23c0,.36-.07.57-.22.72s-.39.18-.72.18-.57-.07-.72-.18-.18-.36-.18-.72.07-.57.22-.72.39-.18.72-.18.57.07.72.18.18.36.18.72ZM855.39,964.14s0,.07-.04.11c0,0-.07.07-.11.07-.07,0-.14.04-.22.07h-.72c-.11,0-.18,0-.22-.07-.07,0-.11-.04-.11-.07v-8.37s.07-.07.11-.11c.07,0,.14-.04.22-.07h.72c.11,0,.18,0,.22.07.07,0,.11.07.11.11s.04.07.04.11v8.15ZM865.26,955.78c.18,0,.29.04.36.11s.11.22.11.36v7.9s0,.07-.04.11c0,0-.07.07-.11.07-.07,0-.14.04-.22.07h-.72c-.11,0-.18,0-.22-.07-.07,0-.11-.04-.11-.07,0,0-.04-.07-.04-.11v-7.15h-4.2v4.56c0,.57.07.97.25,1.26.18.29.47.43.9.43.14,0,.25,0,.36-.04s.22-.07.29-.07.14-.07.22-.07.11-.04.18-.04h.07s.04.04.07.07c0,.04,0,.11.04.18v.29c0,.18,0,.32-.04.39,0,.11-.07.18-.11.22s-.11.11-.22.14-.22.07-.32.11c-.11,0-.25.04-.39.07h-.43c-.43,0-.79-.07-1.08-.18s-.54-.29-.75-.5c-.18-.22-.32-.5-.43-.86-.07-.36-.14-.75-.14-1.22v-4.78h-1.15s-.18-.04-.22-.14c-.07-.11-.07-.25-.07-.47v-.29c0-.07,0-.14.07-.18,0-.04.07-.07.11-.11h1.29v-2.05s.07-.07.11-.11c.07,0,.14-.04.22-.07h.72c.11,0,.18,0,.22.07.07,0,.11.07.11.11s.04.07.04.11v1.94h5.28ZM865.87,953.23c0,.36-.07.57-.22.72s-.39.18-.72.18-.57-.07-.72-.18-.18-.36-.18-.72.07-.57.22-.72.39-.18.72-.18.57.07.72.18.18.36.18.72ZM880.56,964.14s0,.07-.04.11c0,0-.07.07-.11.07-.07,0-.14.04-.22.07h-.72c-.11,0-.18,0-.22-.07-.07,0-.11-.04-.11-.07,0,0-.04-.07-.04-.11v-4.96c0-.36,0-.65-.11-.93-.07-.29-.14-.54-.29-.72-.14-.22-.29-.36-.5-.47s-.43-.18-.72-.18c-.36,0-.68.14-1.04.39-.36.25-.72.65-1.15,1.18v5.71s0,.07-.04.11c0,0-.07.07-.11.07-.07,0-.14.04-.22.07h-.72c-.11,0-.18,0-.25-.07-.07,0-.11-.04-.11-.07v-5.06c0-.36,0-.65-.11-.93-.07-.29-.18-.54-.29-.72-.14-.22-.29-.36-.5-.47s-.43-.18-.72-.18c-.36,0-.68.14-1.04.39-.36.25-.72.65-1.15,1.18v5.71s0,.07-.04.11c0,0-.07.07-.11.07-.07,0-.14.04-.22.07h-.72c-.11,0-.18,0-.22-.07-.07,0-.11-.04-.11-.07v-8.37s.07-.07.11-.11c.07,0,.11-.04.22-.07h.65c.07,0,.14,0,.22.07.04,0,.07.07.11.11v1.18c.47-.5.9-.9,1.33-1.11.43-.25.86-.36,1.29-.36.32,0,.65.04.9.11s.5.18.72.32.39.32.54.5c.14.18.25.43.36.65.29-.29.54-.54.79-.75s.47-.36.72-.5c.22-.14.43-.22.65-.29s.43-.07.65-.07c.54,0,.97.11,1.33.29.36.18.65.43.86.75.22.32.39.68.47,1.08.11.43.14.86.14,1.29v5.13l-.14-.04Z"/>
        </g>
      </g>
    </g>
  </g>
</svg>