<?xml version="1.0" encoding="UTF-8"?>
<svg xmlns="http://www.w3.org/2000/svg" version="1.1" viewBox="0 0 211 62">
  <defs>
    <style>
      .cls-1 {
        font-size: 34.1px;
      }

      .cls-2 {
        fill: #00a651;
        fill-rule: evenodd;
      }

      .cls-3 {
        font-size: 29.8px;
      }

      .cls-4 {
        fill: #202124;
        font-family: SegoeUI-Bold, 'Segoe UI';
        font-weight: 700;
        isolation: isolate;
      }
    </style>
  </defs>
  <!-- Generator: Adobe Illustrator 28.7.1, SVG Export Plug-In . SVG Version: 1.2.0 Build 142)  -->
  <g>
    <g id="Layer_1">
      <g>
        <path class="cls-2" d="M4.7,47.3l14.1-14.1,4.7,4.7,5.5-5.5-10.2-10.2c-5.8,5.8-11.7,11.7-17.5,17.5.8,2.7,2,5.2,3.4,7.5"/>
        <path class="cls-2" d="M10.6,54.2c2,1.7,4.2,3.2,6.6,4.4,9.1-9.1,18.3-18.3,27.4-27.4l13.7,13.7c1.3-2.5,2.2-5.3,2.8-8.2-5.5-5.5-11-11-16.5-16.5-11.3,11.3-22.6,22.6-34,34"/>
        <path class="cls-2" d="M11.6,43.8l-5.5,5.5c.8,1.1,1.8,2.2,2.8,3.2l5.5-5.5c-1-1-1.9-2.1-2.7-3.3"/>
        <path class="cls-2" d="M.6,37.1l7.1-7.1c.5-12.3,10.6-22,23-22s20,7.5,22.4,17.6l8.2,8.2c0-.9.1-1.9.1-2.8C61.6,14,47.8.2,30.8.2S0,14,0,31s.2,4.1.6,6.1"/>
        <path class="cls-2" d="M51.4,41.4c-3.8,7.5-11.6,12.7-20.6,12.7s-3.5-.2-5.2-.6l-6.2,6.2c3.5,1.4,7.3,2.2,11.3,2.2,11.1,0,20.8-5.9,26.3-14.7l-5.7-5.7h0Z"/>
      </g>
      <text class="cls-4" transform="translate(69.9 38.8)"><tspan class="cls-1" x="0" y="0">inova</tspan><tspan class="cls-3" x="88" y="0">101</tspan></text>
    </g>
  </g>
</svg>