<?xml version="1.0" encoding="UTF-8"?>
<svg xmlns="http://www.w3.org/2000/svg" version="1.1" viewBox="0 0 1486.02 512">
  <defs>
    <style>
      .cls-1 {
        font-family: SegoeUI-Bold, 'Segoe UI';
        font-size: 269.03px;
        font-weight: 700;
      }

      .cls-1, .cls-2 {
        fill: #00a651;
      }

      .cls-2 {
        fill-rule: evenodd;
      }
    </style>
  </defs>
  <!-- Generator: Adobe Illustrator 28.7.1, SVG Export Plug-In . SVG Version: 1.2.0 Build 142)  -->
  <g>
    <g id="Layer_1">
      <path class="cls-2" d="M26.24,335.77l78.71-78.71,26.21,26.22,30.57-30.57-56.79-56.79c-32.59,32.59-65.18,65.18-97.77,97.77,4.47,14.98,10.93,29.11,19.07,42.08"/>
      <path class="cls-2" d="M59.1,374.21c11.06,9.65,23.37,17.9,36.65,24.5,51.1-51.1,102.21-102.21,153.31-153.31l76.85,76.85c7.2-14.18,12.5-29.49,15.56-45.59-30.8-30.8-61.6-61.61-92.41-92.41-63.32,63.32-126.64,126.64-189.96,189.96"/>
      <path class="cls-2" d="M64.92,315.96l-31.02,31.02c4.74,6.38,9.91,12.42,15.48,18.08l30.57-30.57c-5.56-5.69-10.59-11.89-15.03-18.53"/>
      <path class="cls-2" d="M3.41,278.59l39.95-39.95c2.99-68.61,59.55-123.31,128.89-123.31,60.8,0,111.77,42.05,125.42,98.66l46.11,46.11c.47-5.19.71-10.45.71-15.76,0-95.13-77.12-172.25-172.25-172.25S0,149.21,0,244.34c0,11.73,1.17,23.18,3.41,34.25"/>
      <path class="cls-2" d="M287.39,302.6c-21.28,41.98-64.85,70.76-115.14,70.76-9.97,0-19.68-1.13-29-3.27l-34.44,34.45c19.63,7.78,41.04,12.06,63.45,12.06,62.14,0,116.59-32.91,146.89-82.24l-31.75-31.75Z"/>
      <text class="cls-1" transform="translate(358.62 302.6)"><tspan x="0" y="0">inova101</tspan></text>
    </g>
  </g>
</svg>