<?xml version="1.0" encoding="UTF-8"?>
<svg xmlns="http://www.w3.org/2000/svg" version="1.1" viewBox="0 0 1486.02 512">
  <defs>
    <style>
      .cls-1 {
        font-family: SegoeUI-Bold, 'Segoe UI';
        font-size: 242.89px;
        font-weight: 700;
      }

      .cls-1, .cls-2 {
        fill: #00a651;
      }

      .cls-2 {
        fill-rule: evenodd;
      }
    </style>
  </defs>
  <!-- Generator: Adobe Illustrator 28.7.1, SVG Export Plug-In . SVG Version: 1.2.0 Build 142)  -->
  <g>
    <g id="Layer_1">
      <path class="cls-2" d="M86.63,325.38l71.06-71.06,23.67,23.67,27.6-27.6-51.27-51.27c-29.43,29.42-58.85,58.85-88.27,88.27,4.04,13.53,9.87,26.28,17.21,37.99"/>
      <path class="cls-2" d="M116.29,360.1c9.99,8.71,21.1,16.16,33.09,22.12,46.14-46.14,92.28-92.28,138.42-138.42l69.39,69.39c6.5-12.8,11.28-26.62,14.04-41.16-27.81-27.81-55.62-55.62-83.43-83.43-57.17,57.17-114.34,114.34-171.51,171.51"/>
      <path class="cls-2" d="M121.55,307.5l-28,28c4.28,5.76,8.95,11.22,13.97,16.33l27.6-27.6c-5.02-5.14-9.57-10.74-13.57-16.73"/>
      <path class="cls-2" d="M66.01,273.76l36.07-36.07c2.7-61.94,53.76-111.33,116.37-111.33,54.89,0,100.91,37.97,113.24,89.08l41.63,41.63c.43-4.69.64-9.43.64-14.23,0-85.89-69.63-155.51-155.51-155.51S62.94,156.95,62.94,242.84c0,10.59,1.06,20.93,3.07,30.92"/>
      <path class="cls-2" d="M322.41,295.44c-19.21,37.9-58.55,63.88-103.96,63.88-9,0-17.77-1.02-26.18-2.95l-31.1,31.1c17.73,7.03,37.05,10.89,57.28,10.89,56.1,0,105.27-29.71,132.62-74.25l-28.66-28.66Z"/>
      <text class="cls-1" transform="translate(443.77 314.04)"><tspan x="0" y="0">inova101</tspan></text>
    </g>
  </g>
</svg>