<?xml version="1.0" encoding="UTF-8"?>
<svg xmlns="http://www.w3.org/2000/svg" version="1.1" viewBox="0 0 211 62">
  <defs>
    <style>
      .cls-1 {
        font-size: 34.1px;
      }

      .cls-2 {
        font-family: SegoeUI-Bold, 'Segoe UI';
        font-weight: 700;
        isolation: isolate;
      }

      .cls-2, .cls-3 {
        fill: #fff;
      }

      .cls-3 {
        fill-rule: evenodd;
      }

      .cls-4 {
        font-size: 29.8px;
      }
    </style>
  </defs>
  <!-- Generator: Adobe Illustrator 28.7.1, SVG Export Plug-In . SVG Version: 1.2.0 Build 142)  -->
  <g>
    <g id="Layer_1">
      <g>
        <path class="cls-3" d="M4.6,47.2l13.9-13.9,4.6,4.6,5.4-5.4-10.1-10.1c-5.8,5.8-11.5,11.5-17.3,17.3.8,2.7,1.9,5.2,3.4,7.5"/>
        <path class="cls-3" d="M10.5,54c2,1.7,4.1,3.2,6.5,4.3,9-9,18.1-18.1,27.1-27.1l13.6,13.6c1.3-2.5,2.2-5.2,2.8-8.1-5.5-5.5-10.9-10.9-16.4-16.4-11.2,11.2-22.4,22.4-33.6,33.6"/>
        <path class="cls-3" d="M11.5,43.7l-5.5,5.5c.8,1.1,1.8,2.2,2.7,3.2l5.4-5.4c-1-1-1.9-2.1-2.7-3.3"/>
        <path class="cls-3" d="M.6,37.1l7.1-7.1c.5-12.2,10.5-21.8,22.8-21.8s19.8,7.4,22.2,17.5l8.2,8.2c0-.9.1-1.9.1-2.8C61,14.2,47.3.5,30.5.5S0,14.2,0,31s.2,4.1.6,6.1"/>
        <path class="cls-3" d="M50.9,41.3c-3.8,7.4-11.5,12.5-20.4,12.5s-3.5-.2-5.1-.6l-6.1,6.1c3.5,1.4,7.3,2.1,11.2,2.1,11,0,20.6-5.8,26-14.6l-5.6-5.6h0Z"/>
      </g>
      <text class="cls-2" transform="translate(69.9 38.8)"><tspan class="cls-1" x="0" y="0">inova</tspan><tspan class="cls-4" x="88" y="0">101</tspan></text>
    </g>
  </g>
</svg>